<svg id="svg" version="1.1" xmlns="http://www.w3.org/2000/svg" xmlns:xlink="http://www.w3.org/1999/xlink" width="400" height="374.95107632093936" viewBox="0, 0, 400,374.95107632093936"><g id="svgg"><path id="path0" d="M281.520 7.410 C 274.306 7.544,273.240 8.132,278.987 8.807 C 282.641 9.236,286.525 9.765,289.118 10.189 C 290.925 10.483,303.974 10.661,330.945 10.756 C 355.903 10.845,370.279 11.029,370.513 11.264 C 370.716 11.466,371.262 11.632,371.727 11.632 C 372.192 11.632,373.045 11.822,373.622 12.054 C 374.199 12.286,375.009 12.603,375.422 12.757 C 382.692 15.479,389.232 22.269,392.172 30.146 L 392.894 32.083 392.725 30.582 C 391.634 20.912,382.038 10.455,372.233 8.250 C 371.098 7.995,369.679 7.639,369.081 7.458 C 368.109 7.165,296.860 7.126,281.520 7.410 M152.533 8.444 C 145.360 9.954,139.172 14.045,134.937 20.075 C 132.227 23.934,130.163 28.985,130.250 31.546 C 130.275 32.277,130.364 32.509,130.457 32.083 C 131.126 29.012,134.937 22.686,137.911 19.712 C 140.725 16.898,145.790 13.858,149.531 12.737 C 150.356 12.489,151.454 12.110,151.970 11.894 C 152.568 11.644,163.111 11.378,181.051 11.159 L 209.193 10.817 210.225 9.644 C 210.793 8.999,211.257 8.338,211.257 8.176 C 211.257 7.648,155.093 7.904,152.533 8.444 M226.111 8.452 C 218.781 10.542,212.973 16.460,211.065 23.782 C 210.254 26.896,210.240 337.796,211.050 341.188 C 212.131 345.710,216.240 352.355,217.946 352.339 C 218.305 352.336,218.413 352.215,218.199 352.058 C 217.526 351.564,215.747 347.565,215.051 344.985 C 214.379 342.496,214.492 31.275,215.165 28.518 C 217.944 17.134,228.315 10.337,239.806 12.366 C 240.924 12.564,244.709 13.079,248.218 13.511 C 251.726 13.943,255.317 14.457,256.197 14.653 C 257.077 14.849,258.377 15.009,259.086 15.009 C 259.796 15.009,261.186 15.162,262.177 15.348 C 263.167 15.535,265.413 15.877,267.167 16.110 C 268.921 16.343,271.538 16.692,272.983 16.885 C 274.428 17.079,277.045 17.421,278.799 17.646 C 280.553 17.871,283.086 18.208,284.428 18.395 C 285.769 18.583,288.133 18.908,289.681 19.119 C 291.229 19.330,294.268 19.752,296.435 20.057 C 300.328 20.604,308.807 21.757,314.634 22.531 C 318.216 23.006,321.508 23.450,325.328 23.973 C 326.876 24.185,329.493 24.540,331.144 24.763 C 332.795 24.986,335.244 25.321,336.585 25.509 C 337.927 25.697,340.460 26.038,342.214 26.267 C 345.885 26.746,349.531 27.245,353.283 27.779 C 354.728 27.985,358.443 28.492,361.538 28.906 C 368.729 29.868,372.144 30.954,375.865 33.464 C 376.728 34.046,377.600 34.522,377.804 34.522 C 378.007 34.522,378.259 34.733,378.363 34.991 C 378.494 35.314,378.562 35.324,378.582 35.021 C 378.598 34.780,377.440 33.513,376.007 32.207 C 371.864 28.427,365.539 25.565,360.038 24.979 C 359.006 24.869,356.388 24.532,354.221 24.228 C 352.054 23.925,347.664 23.316,344.465 22.875 C 341.266 22.433,337.552 21.911,336.210 21.714 C 334.869 21.517,332.505 21.203,330.957 21.015 C 329.409 20.828,326.961 20.503,325.516 20.293 C 324.071 20.083,322.129 19.817,321.201 19.702 C 320.272 19.586,318.415 19.334,317.073 19.140 C 314.061 18.706,310.007 18.162,305.816 17.630 C 304.062 17.407,301.614 17.068,300.375 16.877 C 299.137 16.685,295.422 16.174,292.120 15.739 C 288.818 15.305,283.837 14.620,281.051 14.217 C 278.265 13.815,274.550 13.316,272.795 13.110 C 271.041 12.904,268.508 12.560,267.167 12.346 C 265.826 12.132,263.462 11.794,261.914 11.595 C 258.846 11.202,255.861 10.795,251.220 10.139 C 249.568 9.905,246.951 9.549,245.403 9.347 C 243.856 9.145,241.492 8.818,240.150 8.622 C 235.690 7.968,228.129 7.876,226.111 8.452 M172.045 29.267 C 166.361 30.064,160.679 32.955,156.804 37.019 C 155.235 38.665,151.970 43.177,151.970 43.698 C 151.970 43.815,151.654 44.626,151.267 45.501 C 148.966 50.708,148.930 51.726,149.049 108.255 L 149.156 158.912 171.885 158.961 C 197.175 159.017,195.836 158.881,198.087 161.613 C 200.451 164.481,200.375 163.015,200.375 205.766 C 200.375 249.444,200.535 246.914,197.574 250.054 C 195.404 252.356,196.179 252.290,172.368 252.181 C 160.369 252.126,150.195 252.194,149.760 252.332 L 148.968 252.583 148.968 291.376 C 148.968 316.521,149.104 330.869,149.356 332.158 C 149.911 335.010,150.467 336.921,151.269 338.739 C 151.654 339.614,151.970 340.425,151.970 340.542 C 151.970 342.835,162.058 352.345,164.490 352.345 C 164.745 352.345,165.120 352.512,165.323 352.715 C 166.851 354.243,171.145 354.597,188.146 354.597 L 204.690 354.597 204.596 191.932 L 204.501 29.268 191.046 29.268 C 183.646 29.268,176.849 29.197,175.944 29.110 C 175.038 29.022,173.283 29.093,172.045 29.267 " stroke="none" fill="#ffffff" fill-rule="evenodd"></path><path id="path1" d="M220.132 3.028 C 218.926 3.446,216.714 4.532,215.218 5.440 L 212.497 7.092 182.515 7.215 L 152.533 7.337 150.281 8.192 C 149.043 8.663,147.692 9.151,147.280 9.278 C 146.867 9.405,145.938 9.845,145.216 10.254 C 144.493 10.664,143.563 11.184,143.148 11.410 C 138.219 14.092,133.419 19.884,130.918 26.173 C 130.733 26.637,130.424 27.397,130.232 27.861 C 129.344 30.006,128.946 34.081,129.296 37.466 L 129.592 40.338 129.896 37.711 C 130.063 36.266,130.370 34.697,130.578 34.222 C 130.787 33.748,130.957 33.029,130.957 32.623 C 130.957 31.910,131.092 31.545,132.024 29.742 C 132.263 29.281,132.458 28.648,132.458 28.335 C 132.458 28.023,132.585 27.767,132.741 27.767 C 132.897 27.767,133.234 27.303,133.490 26.735 C 135.051 23.272,140.423 17.883,144.465 15.724 C 145.394 15.228,146.210 14.695,146.279 14.540 C 146.348 14.386,146.718 14.259,147.101 14.259 C 147.484 14.259,147.902 14.090,148.030 13.884 C 148.158 13.677,148.640 13.508,149.103 13.508 C 149.565 13.508,150.104 13.357,150.300 13.172 C 150.496 12.986,151.417 12.710,152.345 12.557 C 154.616 12.183,208.356 11.920,208.192 12.284 C 208.121 12.442,207.596 13.459,207.024 14.546 C 205.503 17.439,204.763 20.725,204.725 24.765 L 204.690 28.330 187.617 28.550 C 170.748 28.767,169.723 28.844,167.266 30.069 C 166.908 30.248,166.376 30.394,166.084 30.394 C 161.891 30.394,152.931 39.526,150.437 46.341 C 150.285 46.754,150.038 47.430,149.887 47.842 C 149.735 48.255,149.438 49.437,149.225 50.469 C 148.771 52.676,148.424 159.099,148.872 159.099 C 149.028 159.099,149.107 136.262,149.048 108.349 C 148.929 51.716,148.964 50.713,151.267 45.501 C 151.654 44.626,151.970 43.815,151.970 43.698 C 151.970 42.292,157.570 35.865,160.618 33.774 C 167.058 29.355,169.039 29.040,189.399 29.198 L 204.501 29.315 204.596 191.973 L 204.690 354.631 187.161 354.520 C 177.519 354.459,169.921 354.524,170.275 354.664 C 170.629 354.804,178.644 354.931,188.086 354.945 C 203.899 354.970,205.253 355.022,205.253 355.602 C 205.253 357.466,207.737 363.196,209.656 365.763 C 210.537 366.940,211.257 368.175,211.257 368.508 C 211.257 369.384,212.702 370.865,214.540 371.872 C 215.417 372.353,216.135 372.884,216.135 373.052 C 216.135 373.221,216.391 373.358,216.703 373.358 C 217.015 373.358,217.564 373.508,217.923 373.690 C 220.548 375.025,220.744 375.047,229.909 375.012 C 236.288 374.987,239.189 374.845,239.491 374.543 C 239.730 374.304,240.948 374.109,242.198 374.109 C 243.448 374.109,245.024 373.950,245.700 373.756 C 246.376 373.562,247.979 373.362,249.262 373.312 C 250.545 373.262,251.764 373.125,251.970 373.008 C 252.539 372.686,258.385 371.838,261.351 371.647 C 262.795 371.554,264.400 371.319,264.916 371.124 C 265.432 370.929,266.676 370.807,267.682 370.852 C 268.687 370.898,269.784 370.726,270.121 370.470 C 270.481 370.196,271.923 370.000,273.640 369.993 C 275.320 369.986,276.548 369.823,276.548 369.606 C 276.548 369.389,277.738 369.231,279.367 369.231 C 282.023 369.231,283.337 368.862,284.233 367.867 C 284.443 367.633,287.064 367.164,290.056 366.825 C 293.049 366.485,296.004 366.111,296.623 365.994 C 297.242 365.876,299.099 365.617,300.750 365.419 C 302.402 365.221,305.019 364.896,306.567 364.696 C 312.365 363.947,315.460 363.590,318.011 363.374 C 319.456 363.251,320.798 362.999,320.994 362.814 C 321.190 362.628,322.658 362.477,324.256 362.477 C 325.853 362.477,327.265 362.308,327.392 362.101 C 327.520 361.895,328.871 361.726,330.394 361.726 C 331.917 361.726,333.268 361.557,333.396 361.351 C 333.523 361.144,334.850 360.976,336.345 360.976 C 337.839 360.976,339.222 360.820,339.418 360.630 C 339.614 360.439,340.957 360.197,342.402 360.091 C 343.846 359.986,346.210 359.732,347.655 359.528 C 349.099 359.324,351.210 359.053,352.345 358.926 C 353.480 358.800,356.182 358.441,358.349 358.130 C 369.907 356.470,369.784 356.498,374.109 354.447 C 376.924 353.111,378.160 352.355,379.685 351.032 C 382.289 348.774,385.741 345.077,385.741 344.546 C 385.741 344.373,386.043 343.904,386.412 343.504 C 387.137 342.717,389.493 338.015,389.493 337.354 C 389.493 337.132,389.642 336.657,389.825 336.299 C 391.097 333.795,391.089 334.500,391.425 192.683 C 391.743 58.458,391.708 45.958,391.011 44.153 C 390.839 43.706,390.478 42.580,390.211 41.651 C 387.033 30.624,376.186 21.947,363.443 20.239 C 361.776 20.015,359.231 19.671,357.786 19.473 C 356.341 19.275,353.893 18.950,352.345 18.751 C 346.003 17.934,343.802 17.632,336.023 16.510 C 331.810 15.903,327.773 15.354,325.141 15.030 C 321.982 14.641,312.155 13.253,308.975 12.746 C 307.720 12.546,306.116 12.378,305.410 12.371 C 304.252 12.361,304.200 12.317,304.878 11.921 C 305.977 11.279,365.348 10.987,368.594 11.608 C 380.127 13.814,388.933 21.253,391.722 31.144 C 391.984 32.073,392.349 33.221,392.534 33.695 C 392.719 34.169,392.871 35.552,392.871 36.768 C 392.871 39.048,393.363 40.034,393.761 38.551 C 394.112 37.241,394.035 31.888,393.646 30.608 C 393.454 29.974,393.096 28.696,392.851 27.767 C 390.205 17.746,381.957 9.969,370.919 7.087 C 368.740 6.517,369.651 6.523,309.193 6.683 C 270.733 6.785,264.552 6.724,260.788 6.210 C 245.744 4.152,241.446 3.559,237.336 2.970 C 231.687 2.162,222.542 2.193,220.132 3.028 M369.081 7.458 C 369.679 7.639,371.098 7.995,372.233 8.250 C 382.038 10.455,391.634 20.912,392.725 30.582 L 392.894 32.083 392.172 30.146 C 389.232 22.269,382.692 15.479,375.422 12.757 C 375.009 12.603,374.199 12.286,373.622 12.054 C 373.045 11.822,372.192 11.632,371.727 11.632 C 371.262 11.632,370.716 11.466,370.513 11.264 C 370.279 11.029,355.903 10.845,330.945 10.756 C 303.974 10.661,290.925 10.483,289.118 10.189 C 286.525 9.765,282.641 9.236,278.987 8.807 C 273.240 8.132,274.306 7.544,281.520 7.410 C 296.860 7.126,368.109 7.165,369.081 7.458 M211.257 8.176 C 211.257 8.338,210.793 8.999,210.225 9.644 L 209.193 10.817 181.051 11.159 C 163.111 11.378,152.568 11.644,151.970 11.894 C 151.454 12.110,150.356 12.489,149.531 12.737 C 145.790 13.858,140.725 16.898,137.911 19.712 C 134.937 22.686,131.126 29.012,130.457 32.083 C 130.364 32.509,130.275 32.277,130.250 31.546 C 130.163 28.985,132.227 23.934,134.937 20.075 C 139.172 14.045,145.360 9.954,152.533 8.444 C 155.093 7.904,211.257 7.648,211.257 8.176 M240.150 8.622 C 241.492 8.818,243.856 9.145,245.403 9.347 C 246.951 9.549,249.568 9.905,251.220 10.139 C 255.861 10.795,258.846 11.202,261.914 11.595 C 263.462 11.794,265.826 12.132,267.167 12.346 C 268.508 12.560,271.041 12.904,272.795 13.110 C 274.550 13.316,278.265 13.815,281.051 14.217 C 283.837 14.620,288.818 15.305,292.120 15.739 C 295.422 16.174,299.137 16.685,300.375 16.877 C 301.614 17.068,304.062 17.407,305.816 17.630 C 310.007 18.162,314.061 18.706,317.073 19.140 C 318.415 19.334,320.272 19.586,321.201 19.702 C 322.129 19.817,324.071 20.083,325.516 20.293 C 326.961 20.503,329.409 20.828,330.957 21.015 C 332.505 21.203,334.869 21.517,336.210 21.714 C 337.552 21.911,341.266 22.433,344.465 22.875 C 347.664 23.316,352.054 23.925,354.221 24.228 C 356.388 24.532,359.006 24.869,360.038 24.979 C 365.539 25.565,371.864 28.427,376.007 32.207 C 377.440 33.513,378.598 34.780,378.582 35.021 C 378.562 35.324,378.494 35.314,378.363 34.991 C 378.259 34.733,378.007 34.522,377.804 34.522 C 377.600 34.522,376.728 34.046,375.865 33.464 C 372.144 30.954,368.729 29.868,361.538 28.906 C 358.443 28.492,354.728 27.985,353.283 27.779 C 349.531 27.245,345.885 26.746,342.214 26.267 C 340.460 26.038,337.927 25.697,336.585 25.509 C 335.244 25.321,332.795 24.986,331.144 24.763 C 329.493 24.540,326.876 24.185,325.328 23.973 C 321.508 23.450,318.216 23.006,314.634 22.531 C 308.807 21.757,300.328 20.604,296.435 20.057 C 294.268 19.752,291.229 19.330,289.681 19.119 C 288.133 18.908,285.769 18.583,284.428 18.395 C 283.086 18.208,280.553 17.871,278.799 17.646 C 277.045 17.421,274.428 17.079,272.983 16.885 C 271.538 16.692,268.921 16.343,267.167 16.110 C 265.413 15.877,263.167 15.535,262.177 15.348 C 261.186 15.162,259.796 15.009,259.086 15.009 C 258.377 15.009,257.077 14.849,256.197 14.653 C 255.317 14.457,251.726 13.943,248.218 13.511 C 244.709 13.079,240.924 12.564,239.806 12.366 C 228.315 10.337,217.944 17.134,215.165 28.518 C 214.492 31.275,214.379 342.496,215.051 344.985 C 215.747 347.565,217.526 351.564,218.199 352.058 C 218.413 352.215,218.305 352.336,217.946 352.339 C 216.240 352.355,212.131 345.710,211.050 341.188 C 210.240 337.796,210.254 26.896,211.065 23.782 C 212.973 16.460,218.781 10.542,226.111 8.452 C 228.129 7.876,235.690 7.968,240.150 8.622 M104.348 133.618 C 103.851 133.817,102.336 134.777,100.983 135.751 C 99.630 136.726,98.144 137.777,97.681 138.086 C 96.593 138.814,80.231 150.546,79.737 150.953 C 79.531 151.123,77.927 152.270,76.173 153.503 C 74.418 154.736,72.714 155.968,72.385 156.243 C 72.055 156.517,70.789 157.436,69.570 158.286 C 68.352 159.136,65.835 160.936,63.977 162.285 C 62.120 163.634,59.418 165.578,57.974 166.604 C 56.529 167.630,53.827 169.574,51.970 170.923 C 50.113 172.272,47.580 174.077,46.341 174.934 C 45.103 175.791,44.006 176.596,43.902 176.724 C 43.799 176.853,42.026 178.121,39.962 179.543 C 37.899 180.965,36.126 182.237,36.023 182.370 C 35.919 182.503,34.568 183.481,33.021 184.542 C 31.473 185.604,28.940 187.410,27.392 188.555 C 24.534 190.670,22.523 192.112,15.895 196.801 C 13.860 198.240,11.868 199.718,11.468 200.084 C 11.068 200.451,10.629 200.750,10.493 200.750 C 10.036 200.750,8.938 203.637,9.066 204.500 C 9.189 205.325,9.243 205.308,10.694 203.999 C 11.520 203.254,12.392 202.640,12.633 202.635 C 12.874 202.631,13.127 202.487,13.196 202.317 C 13.265 202.146,14.672 201.104,16.323 200.002 C 17.974 198.899,19.409 197.888,19.512 197.755 C 19.615 197.622,21.388 196.349,23.452 194.927 C 25.516 193.505,27.289 192.237,27.392 192.109 C 27.495 191.981,28.677 191.142,30.019 190.244 C 31.360 189.346,32.542 188.505,32.645 188.375 C 32.749 188.245,34.752 186.797,37.098 185.157 C 39.444 183.518,42.920 181.079,44.824 179.737 C 46.727 178.396,49.958 176.122,52.003 174.684 C 54.049 173.246,55.779 171.938,55.847 171.776 C 55.916 171.614,56.139 171.482,56.343 171.482 C 56.547 171.482,56.935 171.271,57.204 171.013 C 57.473 170.755,58.601 169.902,59.710 169.117 C 61.786 167.649,66.380 164.389,73.921 159.036 C 76.295 157.351,79.587 155.039,81.238 153.897 C 82.889 152.756,84.325 151.716,84.428 151.587 C 84.531 151.457,85.703 150.604,87.032 149.690 C 88.361 148.777,90.218 147.477,91.159 146.801 C 104.640 137.118,104.844 136.998,106.582 137.717 C 107.179 137.965,107.769 138.487,107.893 138.877 C 108.321 140.227,108.818 139.580,108.818 137.674 C 108.818 134.676,106.642 132.701,104.348 133.618 M192.120 159.099 C 194.723 159.541,196.431 160.399,197.500 161.800 C 199.748 164.748,199.625 162.188,199.625 205.817 L 199.625 245.804 198.692 247.644 C 198.179 248.656,197.137 249.959,196.376 250.540 L 194.993 251.595 171.887 251.782 L 148.780 251.970 148.685 291.153 C 148.586 331.732,148.634 333.272,150.094 336.625 C 150.546 337.663,150.501 337.351,149.518 332.645 C 149.057 330.439,148.969 323.825,148.969 291.301 L 148.968 252.583 149.760 252.332 C 150.195 252.194,160.369 252.126,172.368 252.181 C 196.179 252.290,195.404 252.356,197.574 250.054 C 200.535 246.914,200.375 249.444,200.375 205.766 C 200.375 161.958,200.512 164.176,197.619 161.172 C 195.977 159.466,194.090 158.695,191.745 158.770 C 190.511 158.810,190.533 158.830,192.120 159.099 M152.627 159.379 C 154.329 159.448,157.115 159.448,158.818 159.379 C 160.521 159.309,159.128 159.252,155.722 159.252 C 152.317 159.252,150.924 159.309,152.627 159.379 M108.969 162.625 C 108.858 162.913,108.821 163.799,108.887 164.595 L 109.006 166.041 151.236 166.229 C 191.721 166.409,193.511 166.446,194.540 167.120 C 195.869 167.991,197.346 169.636,197.362 170.263 C 197.390 171.378,198.124 170.609,198.124 169.464 C 198.124 166.329,195.544 163.165,192.444 162.501 C 189.334 161.834,109.227 161.953,108.969 162.625 M252.302 168.925 C 255.197 169.758,260.038 174.401,260.038 176.345 C 260.038 176.565,260.190 177.039,260.376 177.397 C 261.818 180.170,261.813 191.370,260.370 191.370 C 260.187 191.370,260.038 191.589,260.038 191.858 C 260.038 192.548,259.155 194.365,258.818 194.369 C 258.663 194.370,258.537 194.603,258.537 194.887 C 258.537 195.170,257.794 196.086,256.886 196.923 C 250.906 202.435,243.040 200.578,239.227 192.756 C 233.364 180.727,241.539 165.827,252.302 168.925 M150.485 337.992 C 150.506 338.369,151.934 340.966,151.954 340.665 C 151.980 340.277,150.849 337.711,150.652 337.711 C 150.551 337.711,150.476 337.838,150.485 337.992 M152.605 342.247 C 154.354 345.237,159.850 350.920,159.850 349.738 C 159.850 349.521,159.700 349.343,159.516 349.343 C 158.911 349.343,154.990 345.231,153.601 343.140 C 152.130 340.924,151.503 340.362,152.605 342.247 M160.600 350.544 C 160.910 350.859,161.923 351.498,162.852 351.966 C 163.780 352.433,164.834 352.962,165.192 353.143 C 165.550 353.323,166.057 353.467,166.318 353.462 C 166.578 353.458,166.201 353.189,165.478 352.866 C 164.083 352.241,163.447 351.910,161.351 350.719 C 160.517 350.245,160.243 350.182,160.600 350.544 M167.158 353.831 C 167.290 354.046,167.839 354.221,168.377 354.221 C 169.554 354.221,169.417 354.042,167.980 353.696 C 167.282 353.529,166.999 353.575,167.158 353.831 " stroke="none" fill="#ff7700" fill-rule="evenodd"></path><path id="path2" d="M122.471 33.771 C 122.471 36.351,122.531 37.406,122.604 36.116 C 122.678 34.826,122.678 32.716,122.604 31.426 C 122.531 30.136,122.471 31.191,122.471 33.771 M102.627 127.955 C 102.253 128.368,101.744 128.705,101.495 128.705 C 101.247 128.705,100.726 129.128,100.339 129.644 C 99.951 130.159,99.404 130.582,99.123 130.582 C 98.842 130.582,98.139 131.088,97.561 131.707 C 96.983 132.326,96.239 132.833,95.909 132.833 C 95.580 132.833,95.310 133.002,95.310 133.208 C 95.310 133.415,95.056 133.583,94.747 133.583 C 94.437 133.583,94.184 133.752,94.184 133.959 C 94.184 134.165,93.956 134.334,93.677 134.334 C 93.398 134.334,92.639 134.841,91.992 135.460 C 91.344 136.079,90.636 136.585,90.418 136.585 C 90.200 136.585,89.610 136.965,89.105 137.430 C 86.691 139.653,86.304 139.962,85.942 139.962 C 85.728 139.962,85.553 140.131,85.553 140.338 C 85.553 140.544,85.253 140.713,84.886 140.713 C 84.519 140.713,83.975 141.051,83.677 141.463 C 83.380 141.876,82.904 142.214,82.619 142.214 C 82.335 142.214,81.629 142.720,81.051 143.340 C 80.472 143.959,79.791 144.465,79.537 144.465 C 79.283 144.465,78.791 144.792,78.444 145.192 C 78.097 145.592,77.571 145.972,77.275 146.037 C 76.978 146.101,76.198 146.703,75.541 147.373 C 74.884 148.044,74.119 148.593,73.842 148.593 C 73.564 148.593,73.093 148.931,72.795 149.343 C 72.498 149.756,72.022 150.094,71.738 150.094 C 71.453 150.094,70.747 150.600,70.169 151.220 C 69.590 151.839,68.847 152.345,68.517 152.345 C 68.187 152.345,67.917 152.514,67.917 152.720 C 67.917 152.927,67.664 153.096,67.355 153.096 C 67.045 153.096,66.792 153.265,66.792 153.471 C 66.792 153.677,66.538 153.846,66.229 153.846 C 65.919 153.846,65.666 154.015,65.666 154.221 C 65.666 154.428,65.453 154.597,65.192 154.597 C 64.932 154.597,64.401 155.019,64.014 155.535 C 63.627 156.051,63.117 156.473,62.882 156.473 C 62.647 156.473,62.211 156.811,61.914 157.223 C 61.616 157.636,61.110 157.974,60.788 157.974 C 60.466 157.974,59.960 158.311,59.662 158.724 C 59.365 159.137,58.905 159.475,58.641 159.475 C 58.377 159.475,58.161 159.644,58.161 159.850 C 58.161 160.056,57.861 160.225,57.494 160.225 C 57.127 160.225,56.583 160.563,56.285 160.976 C 55.988 161.388,55.512 161.726,55.227 161.726 C 54.943 161.726,54.237 162.233,53.659 162.852 C 53.080 163.471,52.409 163.977,52.168 163.977 C 51.618 163.977,50.657 164.915,50.657 165.452 C 50.657 165.673,50.344 165.854,49.962 165.854 C 49.580 165.854,48.737 166.360,48.089 166.979 C 47.441 167.598,46.694 168.105,46.428 168.105 C 46.162 168.105,45.701 168.443,45.403 168.856 C 45.106 169.268,44.630 169.606,44.345 169.606 C 44.061 169.606,43.355 170.113,42.777 170.732 C 42.198 171.351,41.526 171.857,41.282 171.857 C 40.826 171.857,37.806 174.158,36.729 175.327 C 36.395 175.689,35.884 175.985,35.592 175.985 C 35.301 175.985,34.819 176.323,34.522 176.735 C 34.224 177.148,33.718 177.486,33.396 177.486 C 33.074 177.486,32.568 177.824,32.270 178.236 C 31.973 178.649,31.513 178.987,31.249 178.987 C 30.985 178.987,30.769 179.156,30.769 179.362 C 30.769 179.568,30.494 179.737,30.157 179.737 C 29.820 179.737,29.271 180.034,28.937 180.397 C 28.603 180.759,27.884 181.284,27.340 181.564 C 26.795 181.843,26.133 182.475,25.869 182.968 C 25.605 183.461,25.117 183.865,24.785 183.865 C 24.453 183.865,23.937 184.203,23.640 184.615 C 23.342 185.028,22.823 185.366,22.487 185.366 C 22.150 185.366,21.383 185.830,20.781 186.398 C 20.179 186.965,19.225 187.669,18.661 187.962 C 18.097 188.255,17.636 188.635,17.636 188.806 C 17.636 188.978,17.366 189.118,17.036 189.118 C 16.706 189.118,15.963 189.625,15.385 190.244 C 14.806 190.863,14.155 191.370,13.938 191.370 C 13.720 191.370,13.120 191.792,12.604 192.308 C 12.089 192.824,11.473 193.246,11.237 193.246 C 11.001 193.246,10.334 193.752,9.756 194.371 C 9.178 194.991,8.472 195.497,8.187 195.497 C 7.903 195.497,7.427 195.835,7.129 196.248 C 6.832 196.660,6.325 196.998,6.004 196.998 C 5.682 196.998,5.176 197.336,4.878 197.749 C 4.581 198.161,4.121 198.499,3.857 198.499 C 3.593 198.499,3.377 198.668,3.377 198.874 C 3.377 199.081,3.127 199.250,2.821 199.250 C 2.516 199.250,2.160 199.672,2.030 200.188 C 1.901 200.704,1.644 201.126,1.460 201.126 C 1.276 201.126,1.126 201.463,1.126 201.876 C 1.126 202.289,0.957 202.627,0.750 202.627 C 0.544 202.627,0.375 203.471,0.375 204.503 C 0.375 205.535,0.544 206.379,0.750 206.379 C 0.957 206.379,1.126 206.652,1.126 206.985 C 1.126 207.574,3.612 210.131,4.184 210.131 C 4.341 210.131,4.891 210.553,5.407 211.069 C 5.923 211.585,6.538 212.008,6.774 212.008 C 7.010 212.008,7.677 212.514,8.255 213.133 C 8.834 213.752,9.539 214.259,9.824 214.259 C 10.108 214.259,10.584 214.597,10.882 215.009 C 11.179 215.422,11.723 215.760,12.090 215.760 C 12.458 215.760,12.758 215.929,12.758 216.135 C 12.758 216.341,12.974 216.510,13.238 216.510 C 13.502 216.510,13.961 216.848,14.259 217.261 C 14.556 217.674,15.100 218.011,15.467 218.011 C 15.835 218.011,16.135 218.244,16.135 218.529 C 16.135 218.813,16.642 219.256,17.261 219.512 C 17.880 219.769,18.386 220.098,18.386 220.245 C 18.386 220.391,18.848 220.751,19.413 221.044 C 20.432 221.572,21.391 222.269,22.342 223.171 C 22.613 223.429,23.064 223.640,23.343 223.640 C 23.621 223.640,24.093 223.977,24.390 224.390 C 24.688 224.803,25.164 225.141,25.448 225.141 C 25.733 225.141,26.439 225.647,27.017 226.266 C 27.595 226.886,28.262 227.392,28.499 227.392 C 28.735 227.392,29.320 227.814,29.798 228.330 C 30.276 228.846,30.876 229.268,31.131 229.268 C 31.385 229.268,32.067 229.775,32.645 230.394 C 33.224 231.013,33.967 231.520,34.297 231.520 C 34.627 231.520,34.897 231.660,34.897 231.832 C 34.897 232.003,35.361 232.383,35.929 232.676 C 36.496 232.969,37.408 233.673,37.955 234.240 C 38.503 234.808,39.220 235.272,39.550 235.272 C 39.880 235.272,40.150 235.441,40.150 235.647 C 40.150 235.854,40.326 236.023,40.541 236.023 C 40.950 236.023,41.460 236.397,42.965 237.805 C 43.462 238.269,44.046 238.649,44.264 238.649 C 44.482 238.649,45.190 239.156,45.838 239.775 C 46.486 240.394,47.166 240.901,47.351 240.901 C 47.535 240.901,48.049 241.238,48.492 241.651 C 48.935 242.064,49.535 242.402,49.826 242.402 C 50.117 242.402,50.829 242.908,51.407 243.527 C 51.985 244.146,52.650 244.653,52.884 244.653 C 53.119 244.653,53.684 244.986,54.141 245.393 C 54.598 245.800,55.640 246.728,56.457 247.456 C 57.274 248.185,58.208 248.780,58.532 248.780 C 58.856 248.780,59.365 249.118,59.662 249.531 C 59.960 249.944,60.466 250.281,60.788 250.281 C 61.110 250.281,61.616 250.619,61.914 251.032 C 62.211 251.445,62.672 251.782,62.938 251.782 C 63.204 251.782,63.952 252.289,64.599 252.908 C 65.247 253.527,65.929 254.034,66.115 254.034 C 66.300 254.034,66.844 254.456,67.322 254.972 C 67.800 255.488,68.400 255.910,68.654 255.910 C 68.909 255.910,69.590 256.417,70.169 257.036 C 70.747 257.655,71.453 258.161,71.738 258.161 C 72.022 258.161,72.498 258.499,72.795 258.912 C 73.093 259.325,73.550 259.662,73.812 259.662 C 74.252 259.662,75.169 260.299,76.375 261.445 C 76.647 261.703,77.095 261.914,77.370 261.914 C 77.645 261.914,78.188 262.336,78.575 262.852 C 78.963 263.368,79.468 263.790,79.697 263.790 C 79.927 263.790,80.593 264.296,81.177 264.916 C 81.762 265.535,82.479 266.041,82.771 266.041 C 83.063 266.041,83.302 266.190,83.302 266.371 C 83.302 266.552,83.809 266.911,84.428 267.167 C 85.047 267.423,85.553 267.782,85.553 267.963 C 85.553 268.144,85.807 268.293,86.116 268.293 C 86.426 268.293,86.679 268.462,86.679 268.668 C 86.679 268.874,86.949 269.043,87.279 269.043 C 87.609 269.043,88.352 269.550,88.931 270.169 C 89.509 270.788,90.174 271.295,90.408 271.295 C 90.642 271.295,91.207 271.638,91.664 272.059 C 93.171 273.444,95.865 275.415,96.259 275.418 C 96.471 275.420,96.888 275.760,97.186 276.173 C 97.483 276.585,97.944 276.923,98.210 276.923 C 98.476 276.923,99.224 277.430,99.871 278.049 C 100.519 278.668,101.200 279.174,101.385 279.174 C 101.569 279.174,102.082 279.512,102.525 279.925 C 104.636 281.891,109.944 280.427,109.944 277.878 C 109.944 277.353,110.113 276.923,110.319 276.923 C 110.561 276.923,110.694 272.622,110.694 264.771 L 110.694 252.620 123.584 252.344 C 130.673 252.192,149.627 251.961,165.704 251.831 L 194.934 251.595 196.332 250.526 C 197.135 249.911,198.132 248.605,198.677 247.453 L 199.625 245.450 199.617 205.558 C 199.607 161.374,199.776 164.483,197.233 161.471 C 195.198 159.061,195.681 159.095,164.916 159.161 C 149.644 159.194,131.027 159.086,123.546 158.923 L 109.944 158.625 109.944 143.853 C 109.944 134.255,109.812 129.081,109.568 129.081 C 109.362 129.081,109.193 128.888,109.193 128.653 C 109.193 127.126,103.887 126.562,102.627 127.955 M107.542 134.484 C 108.660 135.601,108.818 135.997,108.818 137.674 C 108.818 139.580,108.321 140.227,107.893 138.877 C 107.205 136.711,104.979 137.014,101.014 139.814 C 95.475 143.725,92.859 145.580,91.159 146.801 C 90.218 147.477,88.361 148.777,87.032 149.690 C 85.703 150.604,84.531 151.457,84.428 151.587 C 84.325 151.716,82.889 152.756,81.238 153.897 C 79.587 155.039,76.295 157.351,73.921 159.036 C 66.380 164.389,61.786 167.649,59.710 169.117 C 58.601 169.902,57.473 170.755,57.204 171.013 C 56.935 171.271,56.547 171.482,56.343 171.482 C 56.139 171.482,55.916 171.614,55.847 171.776 C 55.779 171.938,54.049 173.246,52.003 174.684 C 49.958 176.122,46.727 178.396,44.824 179.737 C 42.920 181.079,39.444 183.518,37.098 185.157 C 34.752 186.797,32.749 188.245,32.645 188.375 C 32.542 188.505,31.360 189.346,30.019 190.244 C 28.677 191.142,27.495 191.981,27.392 192.109 C 27.289 192.237,25.516 193.505,23.452 194.927 C 21.388 196.349,19.615 197.622,19.512 197.755 C 19.409 197.888,17.974 198.899,16.323 200.002 C 14.672 201.104,13.265 202.146,13.196 202.317 C 13.127 202.487,12.874 202.631,12.633 202.635 C 12.392 202.640,11.520 203.254,10.694 203.999 C 9.243 205.308,9.189 205.325,9.066 204.500 C 8.938 203.637,10.036 200.750,10.493 200.750 C 10.629 200.750,11.068 200.451,11.468 200.084 C 11.868 199.718,13.860 198.240,15.895 196.801 C 22.523 192.112,24.534 190.670,27.392 188.555 C 28.940 187.410,31.473 185.604,33.021 184.542 C 34.568 183.481,35.919 182.503,36.023 182.370 C 36.126 182.237,37.899 180.965,39.962 179.543 C 42.026 178.121,43.799 176.853,43.902 176.724 C 44.006 176.596,45.103 175.791,46.341 174.934 C 47.580 174.077,50.113 172.272,51.970 170.923 C 53.827 169.574,56.529 167.630,57.974 166.604 C 59.418 165.578,62.120 163.634,63.977 162.285 C 65.835 160.936,68.352 159.136,69.570 158.286 C 70.789 157.436,72.055 156.517,72.385 156.243 C 72.714 155.968,74.418 154.736,76.173 153.503 C 77.927 152.270,79.531 151.123,79.737 150.953 C 80.231 150.546,96.593 138.814,97.681 138.086 C 98.144 137.777,99.630 136.726,100.983 135.751 C 105.037 132.832,105.752 132.694,107.542 134.484 M192.444 162.501 C 195.544 163.165,198.124 166.329,198.124 169.464 C 198.124 170.609,197.390 171.378,197.362 170.263 C 197.346 169.636,195.869 167.991,194.540 167.120 C 193.511 166.446,191.721 166.409,151.236 166.229 L 109.006 166.041 108.887 164.595 C 108.821 163.799,108.858 162.913,108.969 162.625 C 109.227 161.953,189.334 161.834,192.444 162.501 " stroke="none" fill="#ff0d00" fill-rule="evenodd"></path><path id="path3" d="M177.674 24.387 C 173.113 24.537,169.847 24.807,169.349 25.075 C 168.898 25.318,168.231 25.516,167.866 25.516 C 166.947 25.516,160.225 28.825,160.225 29.277 C 160.225 29.478,160.058 29.644,159.854 29.644 C 159.160 29.644,153.471 35.036,153.471 35.694 C 153.471 35.845,153.260 36.199,153.002 36.479 C 152.534 36.988,151.931 37.976,151.220 39.400 C 151.013 39.812,150.675 40.486,150.469 40.895 C 150.263 41.305,150.094 41.981,150.094 42.396 C 150.094 42.812,149.925 43.152,149.719 43.152 C 149.512 43.152,149.343 43.813,149.343 44.622 C 149.343 45.430,149.168 46.150,148.954 46.221 C 148.226 46.464,148.008 51.782,148.726 51.782 C 149.180 51.782,149.343 51.439,149.343 50.487 C 149.343 49.774,149.533 48.719,149.765 48.141 C 149.997 47.564,150.305 46.754,150.449 46.341 C 152.766 39.704,161.894 30.394,166.084 30.394 C 166.376 30.394,166.908 30.248,167.266 30.069 C 169.745 28.833,170.678 28.765,187.523 28.610 L 204.503 28.453 204.503 26.827 C 204.503 23.822,205.170 24.008,194.613 24.078 C 189.424 24.112,181.801 24.252,177.674 24.387 M122.411 98.356 L 122.326 158.626 123.734 158.859 C 124.508 158.987,130.417 159.093,136.867 159.095 L 148.593 159.099 148.592 124.484 C 148.592 105.446,148.480 82.650,148.344 73.827 L 148.095 57.786 136.149 57.786 L 124.203 57.786 124.203 56.660 C 124.203 56.041,124.038 55.535,123.837 55.535 C 123.621 55.535,123.425 53.197,123.358 49.812 L 123.243 44.090 123.076 51.032 L 122.908 57.974 122.702 48.030 C 122.588 42.561,122.457 65.208,122.411 98.356 M397.373 54.772 C 397.373 54.998,396.378 55.159,394.995 55.159 L 392.616 55.159 392.349 82.645 C 391.965 122.139,391.396 245.158,391.382 291.628 C 391.368 335.812,391.488 333.618,388.762 339.444 C 385.401 346.628,380.260 351.903,373.699 354.898 C 369.515 356.809,366.634 357.404,354.972 358.768 C 351.542 359.169,347.461 359.674,342.964 360.253 C 341.417 360.453,338.884 360.769,337.336 360.955 C 335.788 361.142,333.086 361.480,331.332 361.708 C 329.578 361.936,326.792 362.279,325.141 362.469 C 323.490 362.660,320.957 362.982,319.512 363.185 C 316.814 363.564,312.900 364.076,307.786 364.718 C 306.187 364.919,302.936 365.349,300.563 365.674 C 294.119 366.557,290.946 366.966,287.617 367.343 C 278.943 368.325,284.655 368.480,329.456 368.480 C 359.225 368.480,374.484 368.353,374.484 368.105 C 374.484 367.899,375.318 367.730,376.338 367.730 C 377.358 367.730,378.296 367.561,378.424 367.355 C 378.552 367.148,379.153 366.979,379.759 366.979 C 380.366 366.979,380.863 366.811,380.863 366.604 C 380.863 366.398,381.201 366.229,381.614 366.229 C 382.026 366.229,382.364 366.060,382.364 365.854 C 382.364 365.647,382.702 365.478,383.114 365.478 C 383.527 365.478,383.865 365.310,383.865 365.103 C 383.865 364.897,384.203 364.728,384.615 364.728 C 385.028 364.728,385.366 364.559,385.366 364.353 C 385.366 364.146,385.644 363.977,385.985 363.977 C 386.325 363.977,387.177 363.386,387.879 362.664 C 388.580 361.942,389.319 361.351,389.521 361.351 C 390.031 361.351,393.246 358.089,393.246 357.571 C 393.246 357.339,393.713 356.701,394.284 356.154 C 395.579 354.914,396.623 353.304,396.623 352.546 C 396.623 352.229,396.792 351.970,396.998 351.970 C 397.205 351.970,397.373 351.632,397.373 351.220 C 397.373 350.807,397.542 350.469,397.749 350.469 C 397.955 350.469,398.124 350.131,398.124 349.719 C 398.124 349.306,398.293 348.968,398.499 348.968 C 398.705 348.968,398.874 348.307,398.874 347.498 C 398.874 346.656,399.075 345.962,399.343 345.872 C 399.717 345.748,399.833 316.196,399.912 200.140 L 400.012 54.563 398.693 54.474 C 397.967 54.425,397.373 54.560,397.373 54.772 M244.518 170.359 C 239.110 173.058,235.717 183.771,238.219 190.244 C 245.142 208.153,265.904 198.411,260.993 179.558 C 259.386 173.388,253.221 167.532,251.066 170.128 C 250.339 171.004,249.238 171.068,247.770 170.320 C 246.097 169.467,246.311 169.464,244.518 170.359 M122.983 252.416 C 122.045 252.661,121.953 340.661,122.889 341.597 C 123.266 341.974,123.452 342.914,123.452 344.438 C 123.452 345.707,123.618 346.717,123.827 346.717 C 124.034 346.717,124.203 347.223,124.203 347.842 C 124.203 348.462,124.371 348.968,124.578 348.968 C 124.784 348.968,124.953 349.475,124.953 350.094 C 124.953 350.713,125.122 351.220,125.328 351.220 C 125.535 351.220,125.704 351.642,125.704 352.158 C 125.704 352.674,125.872 353.096,126.079 353.096 C 126.285 353.096,126.454 353.396,126.454 353.763 C 126.454 354.131,126.792 354.674,127.205 354.972 C 127.617 355.269,127.955 355.745,127.955 356.030 C 127.955 356.314,128.462 357.020,129.081 357.598 C 129.700 358.177,130.206 358.808,130.206 359.000 C 130.206 359.536,132.377 361.351,133.017 361.351 C 133.329 361.351,133.583 361.527,133.583 361.743 C 133.583 362.306,135.333 363.977,135.923 363.977 C 136.196 363.977,136.663 364.315,136.961 364.728 C 137.258 365.141,137.802 365.478,138.169 365.478 C 138.536 365.478,138.837 365.647,138.837 365.854 C 138.837 366.060,139.259 366.229,139.775 366.229 C 140.291 366.229,140.713 366.398,140.713 366.604 C 140.713 366.811,141.220 366.979,141.839 366.979 C 142.458 366.979,142.964 367.148,142.964 367.355 C 142.964 367.561,143.471 367.730,144.090 367.730 C 144.709 367.730,145.216 367.899,145.216 368.105 C 145.216 368.311,146.050 368.480,147.070 368.480 C 148.090 368.480,149.028 368.649,149.156 368.856 C 149.543 369.482,211.257 369.362,211.257 368.736 C 211.257 368.463,210.617 367.382,209.834 366.333 C 208.535 364.592,207.084 361.946,206.383 360.038 C 205.664 358.080,205.253 356.535,205.253 355.789 L 205.253 354.972 188.373 354.972 C 170.276 354.972,169.776 354.930,165.197 353.046 C 156.886 349.626,151.107 342.444,149.161 333.113 C 148.676 330.788,148.593 324.731,148.593 291.276 L 148.593 252.158 136.116 252.201 C 129.254 252.225,123.344 252.322,122.983 252.416 " stroke="none" fill="#ff6200" fill-rule="evenodd"></path><path id="path4" d="M182.898 0.742 C 182.666 0.974,175.987 1.120,165.011 1.133 C 154.221 1.146,147.408 1.293,147.271 1.515 C 147.148 1.714,146.400 1.876,145.609 1.876 C 144.791 1.876,144.091 2.082,143.987 2.353 C 143.886 2.616,143.343 2.869,142.780 2.916 C 142.217 2.962,141.311 3.250,140.766 3.555 C 140.221 3.859,139.479 4.217,139.118 4.350 C 138.757 4.482,138.462 4.740,138.462 4.922 C 138.462 5.104,138.283 5.253,138.066 5.253 C 136.780 5.253,129.456 11.585,129.456 12.697 C 129.456 12.933,129.118 13.338,128.705 13.596 C 128.293 13.853,127.955 14.277,127.955 14.537 C 127.955 14.797,127.818 15.009,127.650 15.009 C 127.482 15.009,127.113 15.600,126.829 16.323 C 126.546 17.045,126.177 17.636,126.009 17.636 C 125.841 17.636,125.704 17.976,125.704 18.392 C 125.704 18.807,125.535 19.483,125.328 19.893 C 125.122 20.302,124.784 20.973,124.578 21.383 C 124.371 21.793,124.203 22.553,124.203 23.072 C 124.203 23.591,124.034 24.015,123.827 24.015 C 123.619 24.015,123.452 25.023,123.452 26.289 C 123.452 27.641,123.307 28.472,123.093 28.340 C 122.866 28.200,122.756 33.621,122.795 43.046 C 122.842 54.529,122.906 56.372,123.073 51.032 L 123.290 44.090 123.371 49.812 C 123.421 53.323,123.597 55.535,123.827 55.535 C 124.034 55.535,124.203 56.041,124.203 56.660 L 124.203 57.786 136.210 57.786 L 148.218 57.786 148.302 68.574 L 148.387 79.362 148.584 65.666 C 148.698 57.689,148.639 51.868,148.441 51.725 C 147.995 51.402,148.470 46.382,148.963 46.218 C 149.172 46.148,149.343 45.430,149.343 44.622 C 149.343 43.813,149.512 43.152,149.719 43.152 C 149.925 43.152,150.094 42.812,150.094 42.396 C 150.094 41.981,150.263 41.305,150.469 40.895 C 150.675 40.486,151.013 39.812,151.220 39.400 C 151.931 37.976,152.534 36.988,153.002 36.479 C 153.260 36.199,153.471 35.845,153.471 35.694 C 153.471 35.036,159.160 29.644,159.854 29.644 C 160.058 29.644,160.225 29.478,160.225 29.277 C 160.225 28.841,166.673 25.699,168.293 25.345 C 171.771 24.584,174.937 24.400,188.684 24.159 C 200.244 23.957,203.887 24.001,204.098 24.342 C 204.250 24.589,204.636 23.191,204.956 21.236 C 205.473 18.072,205.974 16.678,208.177 12.284 C 208.360 11.920,154.616 12.183,152.345 12.557 C 151.417 12.710,150.496 12.986,150.300 13.172 C 150.104 13.357,149.565 13.508,149.103 13.508 C 148.640 13.508,148.158 13.677,148.030 13.884 C 147.902 14.090,147.484 14.259,147.101 14.259 C 146.718 14.259,146.348 14.386,146.279 14.540 C 146.210 14.695,145.394 15.228,144.465 15.724 C 140.423 17.883,135.051 23.272,133.490 26.735 C 133.234 27.303,132.897 27.767,132.741 27.767 C 132.585 27.767,132.458 28.023,132.458 28.335 C 132.458 28.886,132.301 29.285,131.391 31.046 C 131.152 31.507,130.957 32.217,130.957 32.623 C 130.957 33.029,130.787 33.748,130.578 34.222 C 130.370 34.697,130.063 36.266,129.896 37.711 L 129.592 40.338 129.296 37.466 C 128.955 34.170,129.337 30.071,130.182 27.955 C 132.687 21.677,134.280 19.091,137.694 15.760 C 139.509 13.989,141.873 12.104,143.148 11.410 C 143.563 11.184,144.493 10.664,145.216 10.254 C 145.938 9.845,146.867 9.405,147.280 9.278 C 147.692 9.151,149.043 8.663,150.281 8.192 L 152.533 7.337 182.515 7.215 L 212.497 7.092 215.223 5.437 C 220.591 2.178,226.853 1.480,237.336 2.972 C 241.681 3.591,246.166 4.210,260.788 6.210 C 264.552 6.724,270.733 6.785,309.193 6.683 C 369.651 6.523,368.740 6.517,370.919 7.087 C 381.957 9.969,390.205 17.746,392.851 27.767 C 393.096 28.696,393.454 29.974,393.646 30.608 C 394.035 31.888,394.112 37.241,393.761 38.551 C 393.363 40.034,392.871 39.048,392.871 36.768 C 392.871 35.552,392.719 34.169,392.534 33.695 C 392.349 33.221,391.984 32.073,391.722 31.144 C 388.933 21.253,380.127 13.814,368.594 11.608 C 365.348 10.987,305.977 11.279,304.878 11.921 C 304.200 12.317,304.252 12.361,305.410 12.371 C 306.116 12.378,307.720 12.546,308.975 12.746 C 312.155 13.253,321.982 14.641,325.141 15.030 C 327.773 15.354,331.810 15.903,336.023 16.510 C 343.802 17.632,346.003 17.934,352.345 18.751 C 353.893 18.950,356.341 19.275,357.786 19.473 C 359.231 19.671,361.776 20.015,363.443 20.239 C 376.187 21.947,387.000 30.596,390.215 41.651 C 390.485 42.580,390.898 43.846,391.132 44.465 C 391.445 45.295,391.544 69.554,391.506 136.585 C 391.458 221.299,391.474 223.773,391.732 172.420 C 391.885 142.083,392.143 103.288,392.306 86.210 L 392.602 55.159 394.988 55.159 C 396.439 55.159,397.373 55.002,397.373 54.756 C 397.373 54.526,397.897 54.405,398.593 54.475 L 399.812 54.597 399.812 39.550 C 399.812 29.303,399.679 24.215,399.395 23.602 C 399.166 23.107,398.775 22.026,398.526 21.201 C 398.014 19.499,397.446 18.086,396.944 17.261 C 396.755 16.951,396.502 16.402,396.381 16.041 C 396.259 15.680,395.983 15.385,395.766 15.385 C 395.549 15.385,395.477 15.279,395.606 15.151 C 395.813 14.944,395.387 14.280,393.246 11.472 C 391.461 9.132,386.261 4.744,385.691 5.097 C 385.512 5.207,385.366 5.119,385.366 4.900 C 385.366 4.682,385.107 4.503,384.791 4.503 C 384.475 4.503,384.116 4.240,383.992 3.918 C 383.869 3.597,383.547 3.419,383.278 3.522 C 383.008 3.626,382.735 3.593,382.670 3.450 C 382.442 2.947,380.042 1.876,379.144 1.876 C 378.645 1.876,378.236 1.725,378.236 1.540 C 378.236 0.594,183.840 -0.200,182.898 0.742 M204.605 26.642 C 204.605 27.570,204.678 27.950,204.768 27.486 C 204.857 27.022,204.857 26.262,204.768 25.797 C 204.678 25.333,204.605 25.713,204.605 26.642 M246.529 168.962 C 245.375 169.318,242.270 171.107,242.807 171.107 C 242.919 171.107,243.732 170.759,244.614 170.333 C 246.212 169.560,246.220 169.560,247.702 170.293 C 249.255 171.062,250.334 171.009,251.066 170.128 C 252.068 168.920,254.724 169.903,257.149 172.380 C 258.197 173.451,258.454 173.606,257.991 172.890 C 255.839 169.557,250.515 167.733,246.529 168.962 M241.599 172.139 C 240.742 173.173,240.262 174.042,241.019 173.188 C 241.393 172.766,241.974 172.209,242.310 171.951 C 242.646 171.693,242.745 171.482,242.531 171.482 C 242.318 171.482,241.898 171.778,241.599 172.139 M237.277 184.428 C 237.278 186.079,237.344 186.708,237.423 185.825 C 237.503 184.942,237.502 183.592,237.421 182.823 C 237.340 182.055,237.275 182.777,237.277 184.428 M391.089 330.769 C 391.093 331.595,391.170 331.888,391.260 331.422 C 391.350 330.955,391.346 330.279,391.252 329.921 C 391.158 329.562,391.085 329.944,391.089 330.769 M365.947 357.107 C 366.309 357.201,366.900 357.201,367.261 357.107 C 367.622 357.012,367.326 356.935,366.604 356.935 C 365.882 356.935,365.586 357.012,365.947 357.107 M360.882 357.863 C 361.346 357.953,362.106 357.953,362.570 357.863 C 363.035 357.774,362.655 357.701,361.726 357.701 C 360.797 357.701,360.417 357.774,360.882 357.863 M350.657 359.099 C 349.635 359.359,349.618 359.388,350.469 359.404 C 350.985 359.414,351.745 359.277,352.158 359.099 C 353.083 358.702,352.219 358.702,350.657 359.099 M298.780 365.737 C 299.142 365.831,299.733 365.831,300.094 365.737 C 300.455 365.643,300.159 365.565,299.437 365.565 C 298.715 365.565,298.419 365.643,298.780 365.737 M293.719 366.494 C 294.186 366.584,294.861 366.581,295.220 366.487 C 295.579 366.393,295.197 366.319,294.371 366.324 C 293.546 366.328,293.252 366.405,293.719 366.494 M287.711 367.244 C 288.175 367.334,288.935 367.334,289.400 367.244 C 289.864 367.155,289.484 367.082,288.555 367.082 C 287.627 367.082,287.247 367.155,287.711 367.244 M259.381 371.741 C 259.742 371.835,260.333 371.835,260.694 371.741 C 261.055 371.646,260.760 371.569,260.038 371.569 C 259.315 371.569,259.020 371.646,259.381 371.741 M255.629 372.491 C 255.990 372.586,256.581 372.586,256.942 372.491 C 257.303 372.397,257.008 372.320,256.285 372.320 C 255.563 372.320,255.267 372.397,255.629 372.491 " stroke="none" fill="#ff7300" fill-rule="evenodd"></path></g></svg>