<svg width="130" height="130" viewBox="0 0 130 130" fill="none" xmlns="http://www.w3.org/2000/svg">
<path d="M0 115.227C0 119.145 1.55641 122.903 4.32683 125.673C7.09726 128.444 10.8548 130 14.7727 130H115.227C119.145 130 122.903 128.444 125.673 125.673C128.444 122.903 130 119.145 130 115.227V41.3636H0V115.227Z" fill="#E3E3E3"/>
<path d="M115.227 11.8181H14.7727C10.8548 11.8181 7.09726 13.3745 4.32683 16.1449C1.55641 18.9154 0 22.6729 0 26.5908V41.3636H130V26.5908C130 22.6729 128.444 18.9154 125.673 16.1449C122.903 13.3745 119.145 11.8181 115.227 11.8181Z" fill="#FF7163"/>
<path d="M62.7516 109.005H30.6061V102.227C39.1477 93.594 46.4425 86.3819 48.8505 83.2767C52.9337 78.0058 52.2068 73.5267 50.2805 71.8131C46.478 68.439 40.1316 71.5619 35.7648 75.1783L30.4821 68.9176C32.6333 66.7703 35.197 65.0808 38.0187 63.951C40.8405 62.8212 43.8617 62.2744 46.9005 62.3437C55.4096 62.3437 61.4605 67.2542 61.4605 74.8001C61.3939 79.1143 59.7682 83.2587 56.8839 86.4676C54.4434 89.5167 42.7021 100.812 42.7021 100.812H62.7368L62.7516 109.005Z" fill="#AEAEAE"/>
<path d="M67.0682 89.0943C67.0682 79.9943 68.9926 73.2215 72.8414 68.7758C75.0472 66.4549 77.7408 64.6528 80.7278 63.4996C83.7148 62.3464 86.9206 61.8709 90.1137 62.1074C92.1796 62.0622 94.245 62.2206 96.2798 62.5802V70.3477C94.4632 69.9337 92.6062 69.7227 90.743 69.7183C85.4248 69.7183 80.3519 70.9918 77.8494 75.6954C76.6431 78.3313 76.0107 81.1934 75.9939 84.0922C77.1548 82.4203 78.7081 81.0587 80.5177 80.1268C82.3274 79.195 84.338 78.7213 86.3732 78.7474C95.0507 78.7474 99.518 84.7008 99.518 93.3104C99.518 102.975 93.8571 109.265 83.8589 109.265C72.6819 109.256 67.0682 100.809 67.0682 89.0943ZM83.6757 101.486C88.2405 101.486 90.1226 98.0583 90.1226 93.4345C90.1226 89.1179 88.1991 86.2018 83.8648 86.2018C82.0761 86.1213 80.3271 86.7445 78.9923 87.9379C77.6575 89.1313 76.8432 90.8 76.7237 92.5865C76.7148 97.0745 79.241 101.486 83.6669 101.486H83.6757Z" fill="#AEAEAE"/>
<path d="M28.068 29.5455C26.8927 29.5455 25.7654 29.0785 24.9343 28.2474C24.1032 27.4163 23.6362 26.289 23.6362 25.1136V4.43182C23.6362 3.25643 24.1032 2.12918 24.9343 1.29805C25.7654 0.466923 26.8927 0 28.068 0C29.2434 0 30.3707 0.466923 31.2018 1.29805C32.0329 2.12918 32.4999 3.25643 32.4999 4.43182V25.1136C32.4999 26.289 32.0329 27.4163 31.2018 28.2474C30.3707 29.0785 29.2434 29.5455 28.068 29.5455Z" fill="#363636"/>
<path d="M101.932 29.5455C100.756 29.5455 99.6292 29.0785 98.798 28.2474C97.9669 27.4163 97.5 26.289 97.5 25.1136V4.43182C97.5 3.25643 97.9669 2.12918 98.798 1.29805C99.6292 0.466923 100.756 0 101.932 0C103.107 0 104.234 0.466923 105.066 1.29805C105.897 2.12918 106.364 3.25643 106.364 4.43182V25.1136C106.364 26.289 105.897 27.4163 105.066 28.2474C104.234 29.0785 103.107 29.5455 101.932 29.5455Z" fill="#363636"/>
</svg>
