<svg width="101" height="101" viewBox="0 0 101 101" fill="none" xmlns="http://www.w3.org/2000/svg">
<g clip-path="url(#clip0)">
<path d="M20.7129 41.4258H8.87695C7.24142 41.4258 5.91797 40.1023 5.91797 38.4668V26.6309C5.91797 21.7359 9.89997 17.7539 14.7949 17.7539H20.7129C22.3484 17.7539 23.6719 19.0774 23.6719 20.7129V38.4668C23.6719 40.1023 22.3484 41.4258 20.7129 41.4258Z" fill="#57555C"/>
<path d="M95.082 38.4668C95.082 40.1023 93.7586 41.4258 92.123 41.4258H80.2871C78.6516 41.4258 77.3281 40.1023 77.3281 38.4668L71.4102 20.7129C71.4102 19.0774 72.7336 17.7539 74.3691 17.7539H86.2051C91.1 17.7539 95.082 21.7359 95.082 26.6309V38.4668Z" fill="#3C3A41"/>
<path d="M83.2461 23.6719V38.4668C83.2461 40.1236 81.9443 41.4258 80.2871 41.4258H20.7129C19.0557 41.4258 17.7539 40.1236 17.7539 38.4668V2.95898C17.7539 1.30176 19.0557 0 20.7129 0H59.5742L65.4922 17.7539L83.2461 23.6719Z" fill="#E0E0E0"/>
<path d="M80.2871 41.4258H50.5V0H59.5742L65.4922 17.7539L83.2461 23.6719V38.4668C83.2461 40.1236 81.9443 41.4258 80.2871 41.4258Z" fill="#E0E0E0"/>
<path d="M92.123 35.5078H8.87695C3.96484 35.5078 0 39.4727 0 44.3848V80.2871C0 85.1988 3.96484 89.1641 8.87695 89.1641H92.123C97.0352 89.1641 101 85.1988 101 80.2871V44.3848C101 39.4727 97.0352 35.5078 92.123 35.5078Z" fill="#0176FF"/>
<path d="M59.5742 20.7129C59.5742 22.3697 60.876 23.6719 62.5332 23.6719H83.2461L59.5742 0V20.7129Z" fill="#FE9923"/>
<path d="M101 44.3848V80.2871C101 85.1988 97.0352 89.1641 92.123 89.1641H50.5V35.5078H92.123C97.0352 35.5078 101 39.4727 101 44.3848Z" fill="#0176FF"/>
<path d="M20.7129 53.2617H14.7949C13.1594 53.2617 11.8359 51.9383 11.8359 50.3027C11.8359 48.6672 13.1594 47.3438 14.7949 47.3438H20.7129C22.3484 47.3438 23.6719 48.6672 23.6719 50.3027C23.6719 51.9383 22.3484 53.2617 20.7129 53.2617Z" fill="#E1E4FB"/>
<path d="M83.2461 63.1248V98.041C83.2461 99.6978 81.9443 101 80.2871 101H20.7129C19.0557 101 17.7539 99.6978 17.7539 98.041V63.1248H83.2461Z" fill="#E0E0E0"/>
<path d="M83.2461 63.1248V98.041C83.2461 99.6978 81.9443 101 80.2871 101H50.5V63.1248H83.2461Z" fill="#E0E0E0"/>
<path d="M71.4102 74.3691C71.4102 76.026 70.1084 77.3281 68.4512 77.3281H32.5488C30.8916 77.3281 29.5898 76.026 29.5898 74.3691C29.5898 72.7119 30.8916 71.4102 32.5488 71.4102H68.4512C70.1084 71.4102 71.4102 72.7119 71.4102 74.3691Z" fill="#8C8C8C"/>
<path d="M71.4102 86.2051C71.4102 87.8619 70.1084 89.1641 68.4512 89.1641H32.5488C30.8916 89.1641 29.5898 87.8619 29.5898 86.2051C29.5898 84.5478 30.8916 83.2461 32.5488 83.2461H68.4512C70.1084 83.2461 71.4102 84.5478 71.4102 86.2051Z" fill="#8C8C8C"/>
<path d="M71.4102 86.2051C71.4102 87.8619 70.1084 89.1641 68.4512 89.1641H50.5V83.2461H68.4512C70.1084 83.2461 71.4102 84.5478 71.4102 86.2051Z" fill="#8C8C8C"/>
<path d="M71.4102 74.3691C71.4102 76.026 70.1084 77.3281 68.4512 77.3281H50.5V71.4102H68.4512C70.1084 71.4102 71.4102 72.7119 71.4102 74.3691Z" fill="#8C8C8C"/>
<path d="M89.1641 62.5332C89.1641 64.19 87.8623 65.4922 86.2051 65.4922H14.7949C13.1377 65.4922 11.8359 64.19 11.8359 62.5332C11.8359 60.876 13.1377 59.5742 14.7949 59.5742H86.2051C87.8623 59.5742 89.1641 60.876 89.1641 62.5332Z" fill="#57555C"/>
<path d="M89.1641 62.5332C89.1641 64.19 87.8623 65.4922 86.2051 65.4922H50.5V59.5742H86.2051C87.8623 59.5742 89.1641 60.876 89.1641 62.5332Z" fill="#3C3A41"/>
</g>
<defs>
<clipPath id="clip0">
<rect width="101" height="101" fill="white"/>
</clipPath>
</defs>
</svg>
