<svg width="24" height="24" viewBox="0 0 24 24" fill="none" xmlns="http://www.w3.org/2000/svg">
<g clip-path="url(#clip0)">
<path d="M20.512 19.9265L19.1553 20.9167C18.8268 21.1564 18.3837 20.8345 18.5102 20.4479L19.0328 18.8517L17.6679 17.8646C17.3387 17.6265 17.5071 17.1062 17.9134 17.1062H19.5978L20.1134 15.5111C20.2384 15.1244 20.7856 15.1244 20.9106 15.5111L21.4263 17.1062H23.1107C23.517 17.1062 23.6854 17.6265 23.3562 17.8646L21.9913 18.8517L22.5139 20.4479C22.6404 20.8345 22.1973 21.1564 21.8688 20.9167L20.512 19.9265Z" fill="white"/>
<path d="M22.1156 21.4666C21.9322 21.4666 21.7488 21.4095 21.5924 21.2953L20.512 20.5068L19.4317 21.2953C19.1194 21.5232 18.6994 21.5236 18.3867 21.2964C18.0739 21.0691 17.9445 20.6696 18.0648 20.3022L18.4809 19.0311L17.3932 18.2445C17.0755 18.0146 16.9481 17.625 17.0689 17.2518C17.1897 16.8787 17.5211 16.6376 17.9134 16.6376H19.2567L19.6675 15.367C19.7882 14.9937 20.1196 14.7525 20.512 14.7524C20.9044 14.7524 21.2359 14.9936 21.3567 15.367L21.7674 16.6376H23.1107C23.503 16.6376 23.8344 16.8787 23.9553 17.2518C24.076 17.6249 23.9487 18.0145 23.631 18.2444L22.5432 19.0311L22.9593 20.3021C23.0796 20.6696 22.9503 21.0691 22.6375 21.2964C22.4812 21.4098 22.2984 21.4666 22.1156 21.4666ZM20.512 19.4577C20.609 19.4577 20.7061 19.4878 20.7884 19.5479L22.0203 20.4471L21.5458 18.9975C21.4824 18.8038 21.5514 18.5914 21.7166 18.4719L22.9569 17.575H21.4262C21.2229 17.575 21.0428 17.4439 20.9802 17.2504L20.512 15.8019L20.0438 17.2504C19.9813 17.4439 19.8011 17.575 19.5978 17.575H18.0672L19.3075 18.4719C19.4726 18.5914 19.5417 18.8038 19.4783 18.9975L19.0038 20.4471L20.2357 19.5479C20.318 19.4878 20.415 19.4577 20.512 19.4577Z" fill="white"/>
<path d="M3.48806 19.9265L4.8447 20.9167C5.17321 21.1564 5.61633 20.8345 5.48978 20.4479L4.96726 18.8517L6.33215 17.8646C6.66137 17.6265 6.49291 17.1062 6.08664 17.1062H4.40233L3.8867 15.5111C3.7617 15.1244 3.21452 15.1244 3.08947 15.5111L2.57384 17.1062H0.889442C0.483164 17.1062 0.314757 17.6265 0.643931 17.8646L2.00881 18.8517L1.4863 20.4479C1.35975 20.8345 1.80286 21.1564 2.13138 20.9167L3.48806 19.9265Z" fill="white"/>
<path d="M5.09167 21.4666C4.90821 21.4666 4.72485 21.4095 4.5684 21.2953L3.48812 20.5067L2.40779 21.2952C2.09548 21.5231 1.67552 21.5236 1.36275 21.2964C1.04998 21.0691 0.920617 20.6696 1.04089 20.3021L1.45701 19.031L0.369274 18.2445C0.0514889 18.0146 -0.0758127 17.6249 0.0449738 17.2518C0.16576 16.8786 0.497232 16.6376 0.889495 16.6376H2.23282L2.6435 15.3671C2.76424 14.9936 3.09576 14.7524 3.48816 14.7524H3.48821C3.88057 14.7525 4.21204 14.9937 4.33278 15.3671L4.74351 16.6376H6.08683C6.47905 16.6376 6.81052 16.8787 6.93135 17.2518C7.05218 17.6249 6.92479 18.0146 6.607 18.2444L5.51932 19.0311L5.93544 20.3021C6.05566 20.6696 5.92634 21.0691 5.61357 21.2964C5.45731 21.4098 5.27451 21.4666 5.09167 21.4666ZM3.48812 19.4577C3.58509 19.4577 3.68216 19.4878 3.76447 19.5479L4.99642 20.4471L4.5219 18.9975C4.45849 18.8038 4.52753 18.5914 4.6927 18.4719L5.93295 17.575H4.40229C4.19896 17.575 4.01884 17.4439 3.95626 17.2504L3.48807 15.8019L3.01987 17.2504C2.9573 17.4439 2.77718 17.575 2.57385 17.575H1.04323L2.28353 18.4719C2.44866 18.5914 2.5177 18.8038 2.45433 18.9975L1.97981 20.4471L3.21176 19.5479C3.29407 19.4878 3.39109 19.4577 3.48812 19.4577Z" fill="white"/>
<path d="M11.9999 18.9107L9.35866 20.8385C8.71905 21.3053 7.85639 20.6786 8.10275 19.926L9.11999 16.8183L6.46273 14.8966C5.82182 14.4331 6.14968 13.4201 6.94067 13.4201H10.22L11.2238 10.3147C11.4672 9.56177 12.5325 9.56177 12.7759 10.3147L13.7798 13.4201H17.0591C17.85 13.4201 18.178 14.4331 17.537 14.8966L14.8798 16.8183L15.897 19.926C16.1434 20.6786 15.2807 21.3053 14.6411 20.8385L11.9999 18.9107Z" fill="white"/>
<path d="M15.1219 21.4686C14.8582 21.4686 14.5947 21.3847 14.3648 21.217L11.9999 19.4909L9.63506 21.217C9.1761 21.5519 8.58252 21.5526 8.123 21.2186C7.66334 20.8846 7.48059 20.32 7.65729 19.7801L8.56818 16.9976L6.18812 15.2763C5.72827 14.9437 5.54411 14.3799 5.7189 13.84C5.89368 13.3001 6.37326 12.9513 6.94073 12.9513H9.87898L10.7779 10.1704C10.9526 9.63027 11.4322 9.28113 11.9999 9.28113C12.5677 9.28113 13.0474 9.63022 13.222 10.1705L14.1209 12.9513H17.0591C17.6266 12.9513 18.1062 13.3001 18.281 13.84C18.4558 14.3799 18.2716 14.9437 17.8117 15.2763L15.4317 16.9976L16.3426 19.7801C16.5193 20.32 16.3365 20.8846 15.8769 21.2186C15.6474 21.3852 15.3846 21.4686 15.1219 21.4686ZM11.9999 18.4418C12.0969 18.4418 12.1939 18.4719 12.2762 18.532L14.9175 20.4598C15.1067 20.5979 15.2779 20.495 15.3259 20.4602C15.3738 20.4254 15.5245 20.2944 15.4517 20.0717L14.4344 16.964C14.3709 16.7703 14.44 16.5578 14.6052 16.4384L17.2624 14.5167C17.4521 14.3794 17.4074 14.1851 17.3892 14.1288C17.3709 14.0725 17.2933 13.8887 17.0591 13.8887H13.7798C13.5765 13.8887 13.3964 13.7576 13.3338 13.5642L12.33 10.4588C12.258 10.2359 12.0592 10.2185 11.9999 10.2185C11.9407 10.2185 11.7419 10.2359 11.6699 10.4587L10.6661 13.5642C10.6035 13.7576 10.4234 13.8887 10.2201 13.8887H6.94073C6.70661 13.8887 6.62894 14.0725 6.61071 14.1288C6.59248 14.1851 6.54776 14.3795 6.73745 14.5167L9.3947 16.4384C9.55983 16.5578 9.62887 16.7703 9.5655 16.964L8.54822 20.0717C8.47528 20.2944 8.62602 20.4254 8.67402 20.4602C8.72192 20.495 8.89309 20.5979 9.0824 20.4598L11.7236 18.532C11.8058 18.4719 11.9029 18.4418 11.9999 18.4418Z" fill="white"/>
<path d="M12 7.34034C11.7411 7.34034 11.5312 7.13045 11.5312 6.87163V5.10909C11.5312 4.85027 11.7411 4.64038 12 4.64038C12.2588 4.64038 12.4687 4.85027 12.4687 5.10909V6.87163C12.4687 7.13049 12.2588 7.34034 12 7.34034Z" fill="white"/>
<path d="M16.7812 7.68399C16.6612 7.68399 16.5413 7.6382 16.4498 7.54671C16.2667 7.36367 16.2667 7.06689 16.4498 6.88381L18.9426 4.39102C19.1256 4.20804 19.4223 4.20804 19.6055 4.39102C19.7885 4.57405 19.7885 4.87084 19.6055 5.05392L17.1127 7.54671C17.0211 7.63824 16.9012 7.68399 16.7812 7.68399Z" fill="white"/>
<path d="M7.2193 7.68399C7.09931 7.68399 6.97941 7.6382 6.88787 7.54671L4.39509 5.05392C4.21205 4.87089 4.21205 4.5741 4.39509 4.39102C4.57816 4.20804 4.87486 4.20804 5.05798 4.39102L7.55077 6.88381C7.7338 7.06684 7.7338 7.36363 7.55077 7.54671C7.45918 7.63824 7.33929 7.68399 7.2193 7.68399Z" fill="white"/>
<path d="M12.0029 3.46855C11.8796 3.46855 11.7587 3.41839 11.6716 3.33117C11.5844 3.24403 11.5342 3.12311 11.5342 2.99984C11.5342 2.87652 11.5843 2.75564 11.6716 2.66846C11.7592 2.58128 11.8796 2.53113 12.0029 2.53113C12.1262 2.53113 12.2471 2.58123 12.3343 2.66846C12.4219 2.75564 12.472 2.87652 12.472 2.99984C12.472 3.12311 12.4219 3.24403 12.3343 3.33117C12.2471 3.41835 12.1266 3.46855 12.0029 3.46855Z" fill="white"/>
</g>
<defs>
<clipPath id="clip0">
<rect width="24" height="24" fill="white"/>
</clipPath>
</defs>
</svg>
