<svg width="30" height="30" viewBox="0 0 30 30" fill="none" xmlns="http://www.w3.org/2000/svg">
<path d="M0 6C0 2.68629 2.68629 0 6 0H24C27.3137 0 30 2.68629 30 6V24C30 27.3137 27.3137 30 24 30H6C2.68629 30 0 27.3137 0 24V6Z" fill="#096DD9"/>
<path d="M24.4681 23.3404H6.06383V6.53192C6.06383 6.23814 5.82569 6 5.53191 6C5.23814 6 5 6.23814 5 6.53192V23.8723C5 24.1661 5.23814 24.4043 5.53191 24.4043H24.4681C24.7619 24.4043 25 24.1661 25 23.8723C25 23.5786 24.7619 23.3404 24.4681 23.3404Z" fill="white"/>
<path d="M6.58322 21.9642C6.55381 21.9642 6.53003 21.9879 6.53003 22.0173C6.53003 22.0468 6.55381 22.0705 6.58322 22.0705H23.4175C23.4469 22.0705 23.4707 22.0468 23.4707 22.0173C23.4707 21.9879 23.4469 21.9642 23.4175 21.9642H23.2838V18.879H23.4175C23.4469 18.879 23.4707 18.8553 23.4707 18.8259C23.4707 18.7964 23.4469 18.7727 23.4175 18.7727H23.2838V15.6876H23.4175C23.4469 15.6876 23.4707 15.6638 23.4707 15.6344C23.4707 15.6049 23.4469 15.5812 23.4175 15.5812H19.1696L18.3652 14.0158L15.4331 15.5812H15.3069L13.7378 12.4429L12.4477 15.5812H6.58322C6.55381 15.5812 6.53003 15.6049 6.53003 15.6344C6.53003 15.6638 6.55381 15.6876 6.58322 15.6876H9.48604L8.13636 18.7727H6.58322C6.55381 18.7727 6.53003 18.7964 6.53003 18.8259C6.53003 18.8553 6.55381 18.879 6.58322 18.879H8.08982L6.74014 21.9642H6.58322ZM12.404 15.6876L11.1848 18.6532L9.53886 15.6876H12.404ZM19.2242 15.6876H23.2423L20.8343 18.7727H20.8094L19.2242 15.6876Z" fill="white"/>
</svg>
