<?xml version="1.0" standalone="no"?>
<!DOCTYPE svg PUBLIC "-//W3C//DTD SVG 1.1//EN" "http://www.w3.org/Graphics/SVG/1.1/DTD/svg11.dtd" >
<svg>
<metadata>
Created by FontForge 20090622 at Tue Jul 14 08:52:11 2020
 By deploy user
</metadata>
<defs>
<font id="icomoon" horiz-adv-x="1024" >
  <font-face 
    font-family="icomoon"
    font-weight="400"
    font-stretch="normal"
    units-per-em="1024"
    panose-1="0 0 0 0 0 0 0 0 0 0"
    ascent="960"
    descent="-64"
    bbox="-4 -67 1031.67 964.111"
    underline-thickness="0"
    underline-position="0"
    unicode-range="U+0001-U+FFFD"
  />
<missing-glyph 
 />
    <glyph glyph-name=".notdef" unicode="&#xfffd;" 
 />
    <glyph glyph-name="glyph1" horiz-adv-x="0" 
d="M0 0v0v0v0z" />
    <glyph glyph-name="glyph1" horiz-adv-x="0" 
d="M0 0v0v0v0z" />
    <glyph glyph-name="uni0001" horiz-adv-x="0" 
d="M0 0v0v0v0z" />
    <glyph glyph-name="space" unicode=" " horiz-adv-x="512" 
d="M0 0v0v0v0z" />
    <glyph glyph-name="uniE600" unicode="&#xe600;" 
d="M96 800q0 -53 37.5 -90.5t90.5 -37.5t90.5 37.5t37.5 90.5t-37.5 90.5t-90.5 37.5t-90.5 -37.5t-37.5 -90.5zM224 864q26 0 45 -19t19 -45t-19 -45t-45 -19t-45 19t-19 45t19 45t45 19zM704 704q46 0 90.5 -12t85.5 -36q12 -7 25 -3t20 16q5 12 2 24.5t-15 20.5
q-48 26 -100.5 40t-107.5 14q-86 0 -162 -32.5t-132.5 -89t-89 -132.5t-32.5 -162t32.5 -162t89 -132.5t132.5 -89t162 -32.5q53 0 104.5 13.5t97.5 37.5q12 7 16 20t-4 25q-7 12 -19.5 16t-24.5 -3q-39 -22 -81.5 -33.5t-88.5 -11.5q-73 0 -137 27.5t-112 75t-75.5 112
t-27.5 137.5t27.5 137t75 112t112 75.5t137.5 27.5z" />
    <glyph glyph-name="uniE601" unicode="&#xe601;" 
d="M858 509q-10 62 -41 115.5t-77 92.5t-104.5 61t-123.5 22q-56 0 -108 -16.5t-95 -47t-76 -73t-51 -93.5q-40 -11 -74 -33t-58 -53t-37 -68.5t-13 -79.5q0 -47 17 -89t47 -74.5t71 -52.5t89 -24h611q40 4 74.5 22t60 46t40 64t14.5 76q0 74 -47 131t-119 74z" />
    <glyph glyph-name="uniE602" unicode="&#xe602;" 
d="M640 832q-61 0 -117.5 -19t-104 -52.5t-83.5 -81t-57 -103.5h-10.5h-11.5q-53 0 -99.5 -20t-81.5 -55t-55 -81.5t-20 -99.5t20 -99.5t55 -81.5t81.5 -55t99.5 -20h416q2 0 6 0.5t7 2.5q73 9 135 42t107.5 84t71 116.5t25.5 138.5q0 79 -30.5 149t-82.5 122t-122 82.5
t-149 30.5z" />
    <glyph glyph-name="uniE603" unicode="&#xe603;" 
d="M861 637q-11 62 -42 115.5t-77.5 92.5t-105 61t-124.5 22q-55 0 -106.5 -16.5t-95 -47t-77 -73t-54.5 -93.5q-38 -11 -71 -33.5t-57 -53.5t-37.5 -68.5t-13.5 -78.5q0 -47 17 -88.5t47 -73.5t71 -52.5t89 -25.5h144q12 22 29 46.5l38 55.5q15 20 34 29.5t43 9.5t43 -9.5
t34 -29.5q21 -28 38 -54t29 -48h176h1.5h1.5q41 5 75.5 23t60 46t39.5 63.5t14 75.5q0 74 -45.5 131t-117.5 74zM640 90q0 40 -37 100t-65 98q-10 12 -26 12t-26 -12q-28 -38 -65 -98t-37 -100q0 -58 40 -90t88 -32t88 32t40 90z" />
    <glyph glyph-name="uniE604" unicode="&#xe604;" 
d="M179 698q-38 -11 -71 -33.5t-57 -53.5t-37.5 -68.5t-13.5 -78.5v-9.5v-9.5q0 -12 10 -20.5t22 -8.5h960q7 0 12.5 2.5t9.5 7.5q5 4 7.5 11t2.5 14q-5 67 -50.5 118t-112.5 68q-11 62 -42 115.5t-77.5 92.5t-105 61t-124.5 22q-55 0 -106.5 -16.5t-95 -47t-77 -73
t-54.5 -93.5v0zM992 320h-960q-14 0 -23 -9t-9 -23t9 -23t23 -9h960q14 0 23 9t9 23t-9 23t-23 9zM896 160q0 14 -9 23t-23 9h-704q-14 0 -23 -9t-9 -23t9 -23t23 -9h704q14 0 23 9t9 23zM768 32q0 14 -9 23t-23 9h-448q-14 0 -23 -9t-9 -23t9 -23t23 -9h448q14 0 23 9t9 23
z" />
    <glyph glyph-name="uniE605" unicode="&#xe605;" 
d="M861 605q-11 62 -42 115.5t-77.5 92.5t-105 61t-124.5 22q-55 0 -106.5 -16.5t-95 -47t-77 -73t-54.5 -93.5q-38 -11 -71 -33.5t-57 -53.5t-37.5 -68.5t-13.5 -78.5q0 -31 7 -59.5t22 -52.5h1.5h1.5h320q41 0 68.5 -27.5t27.5 -68.5q0 -10 -2 -17.5l-4 -14.5h390h1.5h1.5
q41 5 75.5 23t60 46t39.5 63.5t14 75.5q0 74 -45.5 131t-117.5 74zM352 256h-320q-14 0 -23 -9t-9 -23t9 -23t23 -9h320q14 0 23 9t9 23t-9 23t-23 9zM160 96q0 -14 9 -23t23 -9h320q14 0 23 9t9 23t-9 23t-23 9h-320q-14 0 -23 -9t-9 -23z" />
    <glyph glyph-name="uniE606" unicode="&#xe606;" 
d="M861 669q-11 62 -42 115.5t-77.5 92.5t-105 61t-124.5 22q-55 0 -106.5 -16.5t-95 -47t-77 -73t-54.5 -93.5q-38 -11 -71 -33.5t-57 -53.5t-37.5 -68.5t-13.5 -78.5q0 -47 17 -88.5t47 -73.5t71 -52.5t89 -25.5h96v128q0 14 9 23t23 9t23 -9t9 -23v-128h96v64q0 14 9 23
t23 9t23 -9t9 -23v-64h96v128q0 14 9 23t23 9t23 -9t9 -23v-128h128h1.5h1.5q41 5 75.5 23t60 46t39.5 63.5t14 75.5q0 74 -45.5 131t-117.5 74zM384 64v32q0 14 -9 23t-23 9t-23 -9t-9 -23v-32q0 -14 9 -23t23 -9t23 9t9 23zM544 0v32q0 14 -9 23t-23 9t-23 -9t-9 -23v-32
q0 -14 9 -23t23 -9t23 9t9 23zM704 64v32q0 14 -9 23t-23 9t-23 -9t-9 -23v-32q0 -14 9 -23t23 -9t23 9t9 23zM320 224q0 -14 9 -23t23 -9t23 9t9 23v32h-64v-32zM640 224q0 -14 9 -23t23 -9t23 9t9 23v32h-64v-32zM480 160q0 -14 9 -23t23 -9t23 9t9 23v96h-64v-96z" />
    <glyph glyph-name="uniE607" unicode="&#xe607;" 
d="M861 669q-11 62 -42 115.5t-77.5 92.5t-105 61t-124.5 22q-55 0 -106.5 -16.5t-95 -47t-77 -73t-54.5 -93.5q-38 -11 -71 -33.5t-57 -53.5t-37.5 -68.5t-13.5 -78.5q0 -47 17 -88.5t47 -73.5t71 -52.5t89 -25.5h102q3 5 5.5 11.5t4.5 10.5l128 192q14 20 35 31t45 11
q14 0 28 -4.5t26 -11.5q34 -22 41 -61.5t-15 -72.5l-29 -42h13q26 0 48.5 -13t34.5 -35q3 -5 3.5 -8t3.5 -8h134h1.5h1.5q41 5 75.5 23t60 46t39.5 63.5t14 75.5q0 74 -45.5 131t-117.5 74zM563 442q-12 7 -24.5 4.5t-20.5 -14.5l-128 -192q-4 -7 -4 -16t4 -16
q5 -7 12.5 -11.5t16.5 -4.5h138l-99 -176q-8 -12 -4 -25t16 -20q0 -2 2.5 -2.5t7.5 -0.5q7 0 15.5 4.5t13.5 11.5l128 224q5 7 5 16t-5 16t-12 11.5t-17 4.5h-131l96 141q5 12 2.5 24.5t-12.5 20.5v0z" />
    <glyph glyph-name="uniE608" unicode="&#xe608;" 
d="M992 640q-53 0 -99.5 20t-81.5 55t-55 81.5t-20 99.5q0 14 -9 23t-23 9q-48 0 -93 -14t-83 -39t-68.5 -60.5t-49.5 -78.5h-15h-14q-79 0 -148.5 -30.5t-121 -82.5t-81.5 -122t-30 -149t30 -149t81.5 -122t121 -82.5t148.5 -30.5h393q53 0 98.5 19.5t79.5 54t53 80.5
t19 99q0 55 -20.5 102t-56.5 80q36 43 56.5 95t20.5 110q0 14 -9 23t-23 9zM896 442q-26 14 -57.5 23t-67.5 9q-7 0 -14 -0.5t-15 -3.5q-14 48 -40 89.5t-60.5 74.5t-77 56.5t-90.5 35.5q28 58 80.5 94.5t117.5 43.5q6 -56 30 -105.5t62 -87.5t87 -62t106 -30
q-3 -38 -19 -73.5t-42 -63.5v0z" />
    <glyph glyph-name="uniE609" unicode="&#xe609;" 
d="M480 0q0 -14 9 -23t23 -9t23 9t9 23v224h-64v-224zM320 96q0 -14 9 -23t23 -9t23 9t9 23v128h-64v-128zM640 96q0 -14 9 -23t23 -9t23 9t9 23v128h-64v-128zM224 224h96v160q0 14 9 23t23 9t23 -9t9 -23v-160h96v64q0 14 9 23t23 9t23 -9t9 -23v-64h96v160q0 14 9 23
t23 9t23 -9t9 -23v-160h128h1.5h1.5q41 5 75.5 23t60 46t39.5 63.5t14 75.5q0 74 -45.5 131t-117.5 74q-11 62 -42 115.5t-77.5 92.5t-105 61t-124.5 22q-55 0 -106.5 -16.5t-95 -47t-77 -73t-54.5 -93.5q-38 -11 -71 -33.5t-57 -53.5t-37.5 -68.5t-13.5 -78.5
q0 -47 17 -88.5t47 -73.5t71 -52.5t89 -25.5v0z" />
    <glyph glyph-name="uniE60A" unicode="&#xe60a;" 
d="M992 864q14 0 23 9t9 23t-9 23t-23 9q-78 0 -150 -22t-133 -62.5t-109 -98t-78 -127.5q-41 26 -88.5 40t-97.5 14q-70 0 -131 -26.5t-106.5 -72t-72 -106.5t-26.5 -131t26.5 -131t72 -106.5t106.5 -72t131 -26.5h435q52 0 97.5 19.5t79.5 53.5t53.5 79.5t19.5 97.5
q0 67 -33 123.5t-86 87.5q12 24 36 39t51 15q14 0 23 9t9 23q0 15 -9 23.5t-23 8.5q-48 0 -87 -24.5t-60 -68.5q-17 5 -36 7.5t-38 2.5q-12 0 -22.5 -1.5t-22.5 -1.5q12 43 37 79t59.5 61.5t77 40t89.5 14.5q14 0 23 9t9 23t-9 23t-23 9q-63 0 -119 -21.5t-100.5 -59.5
t-74.5 -90.5t-39 -113.5q-3 -2 -5 -3t-5 -3q-12 31 -32.5 59.5t-44.5 52.5q28 66 72 119.5t99.5 91.5t120 59t134.5 21v0z" />
    <glyph glyph-name="uniE60B" unicode="&#xe60b;" 
d="M861 637q-11 62 -42 115.5t-77.5 92.5t-105 61t-124.5 22q-55 0 -106.5 -16.5t-95 -47t-77 -73t-54.5 -93.5q-38 -11 -71 -33.5t-57 -53.5t-37.5 -68.5t-13.5 -78.5q0 -47 17 -88.5t47 -73.5t71 -52.5t89 -25.5h256v32q0 14 9 23t23 9t23 -9t9 -23v-32h288h1.5h1.5
q41 5 75.5 23t60 46t39.5 63.5t14 75.5q0 74 -45.5 131t-117.5 74zM384 320q0 -14 -9 -23t-23 -9t-23 9t-9 23v32q0 14 9 23t23 9t23 -9t9 -23v-32zM704 320q0 -14 -9 -23t-23 -9t-23 9t-9 23v32q0 14 9 23t23 9t23 -9t9 -23v-32zM544 32v32q0 14 -9 23t-23 9t-23 -9t-9 -23
v-32q0 -14 9 -23t23 -9t23 9t9 23zM384 128v32q0 14 -9 23t-23 9t-23 -9t-9 -23v-32q0 -14 9 -23t23 -9t23 9t9 23zM704 128v32q0 14 -9 23t-23 9t-23 -9t-9 -23v-32q0 -14 9 -23t23 -9t23 9t9 23z" />
    <glyph glyph-name="uniE60C" unicode="&#xe60c;" 
d="M861 637q-11 62 -42 115.5t-77.5 92.5t-105 61t-124.5 22q-55 0 -106.5 -16.5t-95 -47t-77 -73t-54.5 -93.5q-38 -11 -71 -33.5t-57 -53.5t-37.5 -68.5t-13.5 -78.5q0 -47 17 -88.5t47 -73.5t71 -52.5t89 -25.5h106q-20 22 -24 54t11 58q12 22 34.5 35t48.5 13
q5 0 9.5 -0.5t9.5 -2.5q10 29 34.5 48t58.5 19t58.5 -19t34.5 -48q5 0 9.5 1.5t9.5 1.5q26 0 48.5 -13t34.5 -35q17 -29 13 -59.5t-26 -52.5h138h1.5h1.5q41 5 75.5 23t60 46t39.5 63.5t14 75.5q0 74 -45.5 131t-117.5 74zM374 144q5 -7 12.5 -11.5t16.5 -4.5q5 0 8 0.5
t8 2.5l64 35v-70q0 -14 9 -23t23 -9q15 0 23.5 9t8.5 23v74l64 -36q5 -2 8 -2.5t8 -0.5q7 0 15.5 4.5t13.5 11.5q7 12 3 25t-16 20l-67 32l64 35q12 7 15 20t-2 25q-7 12 -20 15t-25 -2l-64 -35v70q0 14 -9 23t-23 9t-23 -9t-9 -23v-74l-64 36q-12 7 -25 3t-20 -16t-3 -25
t16 -20l64 -35l-64 -35q-10 -5 -13.5 -17.5t3.5 -24.5v0z" />
    <glyph glyph-name="uniE60D" unicode="&#xe60d;" 
d="M704 928q-48 0 -93 -14t-83 -39t-68.5 -60.5t-49.5 -78.5h-15h-14q-79 0 -148.5 -30.5t-121 -82.5t-81.5 -122t-30 -149t30 -149t81.5 -122t121 -82.5t148.5 -30.5h393q53 0 98.5 19.5t79.5 54t53 80.5t19 99q0 55 -20.5 102t-56.5 80q36 43 56.5 95t20.5 110
q0 66 -25 124t-68.5 101.5t-102 69t-124.5 25.5zM896 442q-26 14 -57.5 23t-67.5 9q-7 0 -14 -0.5t-15 -3.5q-14 48 -40 89.5t-60.5 74.5t-77 56.5t-90.5 35.5q33 63 95.5 100.5t134.5 37.5q53 0 99.5 -20t81.5 -55t55 -81.5t20 -99.5q0 -48 -16.5 -90.5t-47.5 -75.5v0z" />
    <glyph glyph-name="uniE60E" unicode="&#xe60e;" 
d="M576 864q14 0 23 9t9 23v32q0 14 -9 23t-23 9t-23 -9t-9 -23v-32q0 -14 9 -23t23 -9zM848 752q7 0 12.5 2.5t9.5 7.5l23 22q9 10 9 22.5t-9 22.5q-10 9 -22.5 9t-22.5 -9l-22 -23q-10 -9 -10 -22t10 -22q4 -5 9.5 -7.5t12.5 -2.5zM992 544h-32q-14 0 -23 -9t-9 -23t9 -23
t23 -9h32q14 0 23 9t9 23t-9 23t-23 9zM282 762q4 -5 10.5 -7.5t11.5 -2.5t11.5 2.5t10.5 7.5q10 9 10 22t-10 22l-22 23q-10 9 -22.5 9t-22.5 -9q-9 -10 -9 -22.5t9 -22.5l23 -22v0zM848 422q7 22 11.5 44t4.5 46q0 60 -22.5 112.5t-61.5 91.5t-91.5 61.5t-112.5 22.5
q-47 0 -90 -14.5t-78.5 -40t-62.5 -61.5t-41 -79q-64 -6 -119 -34.5t-96.5 -73.5t-65 -102.5t-23.5 -122.5q0 -70 26.5 -131t72 -106.5t106.5 -72t131 -26.5h435q52 0 97.5 19.5t79.5 53.5t53.5 79.5t19.5 97.5q1 42 -11.5 79.5t-35.5 68.5t-55.5 53.5t-70.5 34.5v0z
M787 435h-5h-8q-33 0 -64.5 -9t-59.5 -26q-18 42 -46.5 77.5t-64 62t-77.5 43.5t-88 22q27 60 81 95.5t121 35.5q47 0 88 -17.5t71 -47.5t47.5 -71t17.5 -88q0 -19 -4 -39.5t-9 -37.5v0z" />
    <glyph glyph-name="uniE60F" unicode="&#xe60f;" 
d="M512 960q-106 0 -199 -40.5t-162.5 -110t-110 -162.5t-40.5 -199t40.5 -199t110 -162.5t162.5 -110t199 -40.5t199 40.5t162.5 110t110 162.5t40.5 199t-40.5 199t-110 162.5t-162.5 110t-199 40.5zM749 483l-183 -93l-92 -182q-3 -7 -9.5 -11.5t-16.5 -4.5h-1.5h-1.5
q-10 0 -18.5 6.5t-10.5 15.5l-128 416q-2 10 0 17.5t6 14.5q10 8 18 10t18 0l416 -128q9 -2 15.5 -10.5t6.5 -18.5q0 -9 -5 -18t-14 -14v0z" />
    <glyph glyph-name="uniE610" unicode="&#xe610;" 
d="M512 -64q71 0 139.5 26t123 75.5t88 121t33.5 161.5q0 88 -54 190t-120.5 191t-124 150t-63.5 67q-9 10 -22 10t-22 -10q-6 -6 -63.5 -67t-124 -150t-120.5 -191t-54 -190q0 -90 33.5 -161t87.5 -120.5t123 -76t140 -26.5v0zM384 352q14 0 23 -9t9 -23q0 -67 42 -81.5
t54 -14.5t22 -10t10 -22t-10 -22t-22 -10q-34 0 -97 31t-63 129q0 14 9 23t23 9z" />
    <glyph glyph-name="uniE611" unicode="&#xe611;" 
d="M512 -64q71 0 139.5 26t123 75.5t88 121t33.5 161.5q0 86 -54 188t-120.5 191.5t-124 151t-63.5 67.5q-9 10 -22 10t-22 -10q-6 -6 -63.5 -67.5t-124 -150.5t-120.5 -191.5t-54 -188.5q0 -90 33.5 -161t87.5 -120.5t123 -76t140 -26.5v0z" />
    <glyph glyph-name="uniE612" unicode="&#xe612;" 
d="M832 250q0 68 -44.5 149.5t-99.5 153.5t-102 122t-52 55q-9 9 -22 9t-22 -9q-5 -6 -52 -56.5t-102 -121.5t-99.5 -152.5t-44.5 -149.5q0 -74 28 -132t73 -98.5t102.5 -62t116.5 -21.5t116 21.5t102.5 62t73.5 98.5t28 132zM886 918q-9 10 -22 10t-22 -10q-9 -8 -31.5 -32
t-46 -55.5t-42 -66.5t-18.5 -66q0 -72 50 -113t110 -41t110 41t50 113q0 31 -18.5 66t-42 66.5t-46 55.5t-31.5 32v0zM160 544q60 0 110 41t50 113q0 31 -18.5 66t-42 66.5t-46 55.5t-31.5 32q-9 10 -22 10t-22 -10q-9 -8 -31.5 -32t-46 -55.5t-42 -66.5t-18.5 -66
q0 -72 50 -113t110 -41v0z" />
    <glyph glyph-name="uniE613" unicode="&#xe613;" 
d="M512 960q-106 0 -199 -40.5t-162.5 -110t-110 -162.5t-40.5 -199t40.5 -199t110 -162.5t162.5 -110t199 -40.5t199 40.5t162.5 110t110 162.5t40.5 199t-40.5 199t-110 162.5t-162.5 110t-199 40.5zM525 0h-7h-6q-92 0 -174 35.5t-142.5 96.5t-96 142.5t-35.5 173.5
t35.5 173.5t96 142.5t142.5 96.5t174 35.5h6h7q-60 -34 -109 -81.5t-84 -105.5t-54 -124t-19 -137t19 -137t54 -124t84 -105.5t109 -81.5z" />
    <glyph glyph-name="uniE614" unicode="&#xe614;" 
d="M64 800q0 -53 37.5 -90.5t90.5 -37.5t90.5 37.5t37.5 90.5t-37.5 90.5t-90.5 37.5t-90.5 -37.5t-37.5 -90.5zM256 800q0 -26 -19 -45t-45 -19t-45 19t-19 45t19 45t45 19t45 -19t19 -45zM928 736q14 0 23 9t9 23t-9 23t-23 9h-480q-14 0 -23 -9t-9 -23v-800q0 -14 9 -23
t23 -9t23 9t9 23v416h384q14 0 23 9t9 23t-9 23t-23 9h-384v288h448z" />
    <glyph glyph-name="uniE615" unicode="&#xe615;" 
d="M3 650q7 -12 20 -14.5t25 4.5l125 74q36 21 76.5 19.5t76.5 -23.5l74 -48q26 -16 55 -25.5t60 -9.5t60 9.5t55 25.5l74 48q34 22 76 23.5t78 -19.5l124 -74q12 -7 25 -3.5t20 13.5q7 9 3.5 23t-12.5 21l-132 74q-50 31 -110 29t-110 -35l-74 -48q-36 -24 -78.5 -24
t-78.5 24l-73 48q-51 33 -111.5 35t-112.5 -29l-122 -74q-12 -7 -15 -19.5t2 -24.5v0zM3 122q7 -12 20 -14.5t25 4.5l125 74q36 21 76.5 19.5t76.5 -23.5l74 -48q26 -16 55 -25.5t60 -9.5t60 9.5t55 25.5l74 48q34 22 76 23.5t78 -19.5l124 -74q12 -7 25 -3.5t20 13.5
q7 9 3.5 23t-12.5 21l-125 74q-51 31 -111 29t-110 -35l-74 -48q-36 -24 -78 -24t-78 24l-74 48q-50 33 -110 34t-111 -28l-125 -74q-16 -7 -20 -19.5t1 -24.5v0zM3 387q7 -12 20 -14.5t25 5.5l125 70q36 22 76.5 20t76.5 -23l74 -48q26 -17 55 -26t60 -9q29 0 59 9t56 26
l74 48q34 24 76 24.5t78 -21.5l124 -74q12 -7 25 -3.5t20 13.5q7 12 3.5 25t-12.5 20l-125 73q-51 32 -111 30t-110 -36l-74 -48q-36 -24 -78 -24t-78 24l-74 48q-55 36 -116.5 37t-113.5 -27l-125 -74q-10 -7 -12.5 -21t2.5 -24v0z" />
    <glyph glyph-name="uniE616" unicode="&#xe616;" 
d="M64 928v-960q0 -14 9 -23t23 -9t23 9t9 23v960q0 14 -9 23t-23 9t-23 -9t-9 -23zM448 851l-218 45q-7 0 -13.5 -1t-11.5 -5q-7 -5 -10 -12t-3 -14v-576q0 -7 3 -14t10 -12q2 -2 8 -4t11 -2h3h3l218 45v550v0zM704 797l-192 38v-518l192 38v442zM998 736l-230 48v-416
l230 48q12 2 19 11t7 21v256q0 12 -7 21t-19 11z" />
    <glyph glyph-name="uniE617" unicode="&#xe617;" 
d="M701 93q-7 12 -20 14.5t-25 -5.5q-29 -19 -66 -28.5t-78 -9.5q-46 0 -86 11.5t-71 33.5q-12 7 -24.5 5t-20.5 -12q-7 -12 -5 -24.5t12 -19.5q38 -27 88.5 -42.5t103.5 -15.5q50 0 95.5 12t83.5 36q14 7 17 20t-4 25zM800 314q-10 9 -22.5 9t-22.5 -9
q-36 -36 -102.5 -56.5t-140.5 -20.5t-138 20t-102 53q-10 10 -22.5 8.5t-22.5 -11.5q-9 -9 -7.5 -22t10.5 -23q46 -43 122.5 -66t162.5 -23q45 0 87 6.5t79 18.5t68 30t54 41q7 9 7 22t-10 23zM870 483q-7 10 -21 12t-23 -5q-24 -18 -57.5 -33t-74 -25.5t-87 -16t-95.5 -5.5
t-95 5.5t-87 16t-74.5 25.5t-57.5 33q-9 7 -23 6t-21 -13q-8 -9 -6 -23t12 -22q28 -21 66 -38.5t83.5 -29.5t97 -18t105.5 -6t105.5 6t97 18t83.5 29.5t66 38.5q10 8 12 22t-6 23zM992 723q0 -36 -37.5 -67.5t-103 -54.5t-153 -37t-186.5 -14t-186.5 14t-153 37t-103 54.5
t-37.5 67.5t37.5 67.5t103 55t153 37t186.5 13.5t186.5 -13.5t153 -37t103 -55t37.5 -67.5z" />
    <glyph glyph-name="uniE618" unicode="&#xe618;" 
d="M992 864q0 14 -9 23t-23 9h-896q-14 0 -23 -9t-9 -23t9 -23t23 -9h896q14 0 23 9t9 23zM832 672q14 0 23 9t9 23t-9 23t-23 9h-640q-14 0 -23 -9t-9 -23t9 -23t23 -9h640zM896 544q0 14 -9 23t-23 9h-544q-14 0 -23 -9t-9 -23t9 -23t23 -9h544q14 0 23 9t9 23zM800 384
q0 14 -9 23t-23 9h-320q-14 0 -23 -9t-9 -23t9 -23t23 -9h320q14 0 23 9t9 23zM544 224q0 14 -9 23t-23 9h-224q-14 0 -23 -9t-9 -23t9 -23t23 -9h224q14 0 23 9t9 23zM128 64q0 -14 9 -23t23 -9h160q14 0 23 9t9 23t-9 23t-23 9h-160q-14 0 -23 -9t-9 -23z" />
    <glyph glyph-name="uniE619" unicode="&#xe619;" 
d="M992 640q0 10 -0.5 21.5t-2.5 23.5q0 7 -4 12t-9 10t-11.5 5.5t-14.5 -2.5q-7 -2 -24.5 -4t-29.5 -2q-79 0 -135.5 56t-56.5 133q0 7 -2.5 13.5t-7.5 8.5q-4 3 -11 7.5t-14 2.5q-47 -6 -88 -25.5t-73.5 -50t-54.5 -70t-31 -85.5q-52 -14 -96 -47t-70 -81q-12 3 -24 5
t-24 2q-43 0 -81 -16.5t-66 -44.5t-44.5 -65t-16.5 -79q0 -43 16.5 -81t44.5 -66t66 -44.5t81 -16.5h125q12 38 38.5 81.5t70.5 91.5q14 17 33 26t40 9q22 0 40.5 -9t33.5 -26q41 -51 69 -94t40 -79h124q44 0 81.5 16.5t66 44.5t44.5 66t16 81t-16 80.5t-44 66.5
q9 29 15.5 60t6.5 65v0zM928 640q0 -24 -5 -46t-14 -44q-22 10 -44.5 16.5t-48.5 6.5q-22 0 -43 -5t-40 -14q-34 69 -99 109.5t-144 40.5v0v0q16 55 57 95.5t96 54.5q7 -45 29.5 -84.5t56 -68t76.5 -45t91 -16.5h16h16v0v0zM486 291q-26 -31 -64 -88t-38 -101q0 -64 40 -99
t88 -35t88 35t40 99q0 46 -38 102t-64 87q-10 12 -26 12t-26 -12v0z" />
    <glyph glyph-name="uniE61A" unicode="&#xe61a;" 
d="M992 224h-960q-14 0 -23 -9t-9 -23t9 -23t23 -9h960q14 0 23 9t9 23t-9 23t-23 9zM864 96h-704q-14 0 -23 -9t-9 -23t9 -23t23 -9h704q14 0 23 9t9 23t-9 23t-23 9zM992 611q0 10 -0.5 21.5t-2.5 23.5q0 7 -4 12.5t-9 9.5q-5 5 -11.5 5.5t-14.5 -1.5q-12 -5 -25.5 -6
t-25.5 -1q-79 0 -135.5 56t-56.5 133q0 7 -2.5 13.5t-6.5 8.5q-5 3 -13.5 6.5t-15.5 3.5q-47 -6 -88 -25.5t-73.5 -50.5t-54.5 -71t-31 -87q-52 -14 -96 -47t-70 -81q-12 3 -24 5t-24 2q-43 0 -81 -16.5t-66 -44.5t-44.5 -65t-16.5 -79v-9.5v-6.5q0 -12 10 -20.5t22 -8.5
h960q12 0 22 8.5t10 20.5v9.5v6.5q0 43 -17.5 80.5t-46.5 66.5q17 29 24.5 62t7.5 66zM928 611q0 -24 -5 -46t-14 -43q-22 9 -44.5 15.5t-48.5 6.5q-22 0 -43 -5t-40 -14q-34 67 -99 107t-144 40v0v0q16 55 57 97t96 57q7 -46 29.5 -85t56 -68t76.5 -45.5t91 -16.5h16h16v0
v0z" />
    <glyph glyph-name="uniE61B" unicode="&#xe61b;" 
d="M992 640q0 10 -0.5 21.5t-2.5 23.5q0 7 -4 12t-9 10t-11.5 5.5t-14.5 -2.5q-7 -2 -24.5 -4t-29.5 -2q-79 0 -135.5 56t-56.5 133q0 7 -2.5 13.5t-7.5 8.5q-4 3 -11 7.5t-14 2.5q-47 -6 -88 -25.5t-73.5 -50t-54.5 -70t-31 -85.5q-52 -14 -96 -47t-70 -81q-12 3 -24 5
t-24 2q-43 0 -81 -16.5t-66 -44.5t-44.5 -65t-16.5 -79t16.5 -79.5t44.5 -66t66 -45.5t81 -17h611q43 0 81 16.5t66.5 44.5t44.5 66t16 81t-16 80.5t-45 66.5q12 29 19 60t7 65v0zM928 640q0 -24 -5 -46t-14 -44q-22 10 -44.5 16.5t-48.5 6.5q-22 0 -43 -5t-40 -14
q-34 69 -99 109.5t-144 40.5v0v0q16 55 57 95.5t96 54.5q7 -45 29.5 -84.5t56 -68t76.5 -45t91 -16.5h16h16v0v0zM512 64q-14 0 -23 -9t-9 -23v-32q0 -14 9 -23t23 -9t23 9t9 23v32q0 14 -9 23t-23 9zM384 128q-14 0 -23 -9t-9 -23v-32q0 -14 9 -23t23 -9t23 9t9 23v32
q0 14 -9 23t-23 9zM640 128q-14 0 -23 -9t-9 -23v-32q0 -14 9 -23t23 -9t23 9t9 23v32q0 14 -9 23t-23 9z" />
    <glyph glyph-name="uniE61C" unicode="&#xe61c;" 
d="M992 643q0 10 -0.5 21.5t-2.5 23.5q0 7 -4 12.5t-9 9.5q-5 5 -11.5 5.5t-14.5 -1.5q-12 -5 -25.5 -6t-25.5 -1q-79 0 -135.5 56t-56.5 133q0 7 -2.5 13.5t-6.5 8.5q-5 3 -13.5 6.5t-15.5 3.5q-47 -6 -88 -25.5t-73.5 -50.5t-54.5 -71t-31 -87q-52 -14 -96 -47t-70 -81
q-12 3 -24 5t-24 2q-43 0 -81 -16.5t-66 -44.5t-44.5 -65t-16.5 -79q0 -43 16.5 -81t44.5 -66t66 -44.5t81 -16.5h150q-7 19 -5 41t12 39l96 160q14 22 36.5 35t46.5 13q12 0 25 -3t23 -10q17 -9 28.5 -25t16.5 -32q5 -20 2.5 -38.5t-12.5 -35.5l-13 -22q15 -8 27 -18
t21 -24q10 -19 12 -40t-5 -40h150q43 0 81 16.5t66.5 44.5t44.5 66t16 81t-17.5 80.5t-46.5 66.5q15 29 22 62t7 66v0zM928 643q0 -24 -5 -46t-14 -43q-22 9 -44.5 15.5t-48.5 6.5q-22 0 -43 -5t-40 -14q-34 67 -99 107t-144 40v0v0q16 55 57 97t96 57q7 -46 29.5 -85
t56 -68t76.5 -45.5t91 -16.5h16h16v0v0zM576 224h-70l67 112q7 12 3.5 25t-13.5 20q-12 7 -24.5 3.5t-20.5 -13.5l-96 -160q-4 -7 -4 -16t4 -16q5 -7 12.5 -11.5t16.5 -4.5h71l-68 -112q-7 -12 -3.5 -24.5t13.5 -20.5q2 -4 6.5 -5t9.5 -1q7 0 15.5 4.5t13.5 11.5l96 160
q5 7 5 16t-5 16t-12 11.5t-17 4.5v0z" />
    <glyph glyph-name="uniE61D" unicode="&#xe61d;" 
d="M992 640q0 10 -0.5 21.5t-2.5 23.5q0 7 -4 12t-9 10t-11.5 5.5t-14.5 -2.5q-7 -2 -24.5 -4t-29.5 -2q-79 0 -135.5 56t-56.5 133q0 7 -2.5 13.5t-7.5 8.5q-4 3 -11 7.5t-14 2.5q-47 -6 -88 -25.5t-73.5 -50t-54.5 -70t-31 -85.5q-52 -14 -96 -47t-70 -81q-12 3 -24 5
t-24 2q-43 0 -81 -16.5t-66 -44.5t-44.5 -65t-16.5 -79t16.5 -79.5t44.5 -66t66 -45.5t81 -17h144v192q0 14 9 23t23 9t23 -9t9 -23v-192h64v96q0 14 9 23t23 9t23 -9t9 -23v-96h64v192q0 14 9 23t23 9t23 -9t9 -23v-192h144q43 0 81 16.5t66 44.5t44.5 66t16.5 81t-16 80.5
t-45 66.5q15 29 22 60t7 65zM928 640q0 -24 -5 -46t-14 -44q-22 10 -44.5 16.5t-48.5 6.5q-22 0 -43 -5t-40 -14q-34 69 -99 109.5t-144 40.5v0v0q16 55 57 95.5t96 54.5q7 -45 29.5 -84.5t56 -68t76.5 -45t91 -16.5h16h16v0v0zM352 96q0 -14 9 -23t23 -9t23 9t9 23v64h-64
v-64zM480 0q0 -14 9 -23t23 -9t23 9t9 23v160h-64v-160zM608 96q0 -14 9 -23t23 -9t23 9t9 23v64h-64v-64z" />
    <glyph glyph-name="uniE61E" unicode="&#xe61e;" 
d="M992 640q0 10 -0.5 21.5t-2.5 23.5q0 7 -4 12t-9 10t-11.5 5.5t-14.5 -2.5q-48 -13 -92.5 -3t-78.5 36t-54.5 65t-20.5 85q0 7 -2.5 13.5t-7.5 8.5q-4 5 -11 7t-14 0q-47 -6 -88 -26t-73.5 -50t-54.5 -69.5t-31 -85.5q-52 -14 -96 -47t-70 -81q-12 3 -24 5t-24 2
q-43 1 -81 -14.5t-66 -43.5t-44.5 -65t-16.5 -79q0 -43 16.5 -81t44.5 -66t66 -44.5t81 -16.5h272v32q0 14 9 23t23 9t23 -9t9 -23v-32h272q43 0 81 16.5t66 44.5t44.5 66t16.5 81t-16 80.5t-45 66.5q15 29 22 60t7 65zM416 256q0 -14 -9 -23t-23 -9t-23 9t-9 23v32
q0 14 9 23t23 9t23 -9t9 -23v-32zM672 256q0 -14 -9 -23t-23 -9t-23 9t-9 23v32q0 14 9 23t23 9t23 -9t9 -23v-32zM909 550q-22 10 -44.5 16.5t-48.5 6.5q-22 0 -43 -5t-40 -14q-34 69 -99 109.5t-144 40.5v0v0q16 55 57 95.5t96 54.5q9 -49 35 -91t64.5 -71t86 -43.5
t99.5 -8.5v-0.5v-2.5q0 -22 -5 -43.5t-14 -43.5zM512 64q-14 0 -23 -9t-9 -23v-32q0 -14 9 -23t23 -9t23 9t9 23v32q0 14 -9 23t-23 9zM384 128q-14 0 -23 -9t-9 -23v-32q0 -14 9 -23t23 -9t23 9t9 23v32q0 14 -9 23t-23 9zM640 128q-14 0 -23 -9t-9 -23v-32q0 -14 9 -23
t23 -9t23 9t9 23v32q0 14 -9 23t-23 9z" />
    <glyph glyph-name="uniE61F" unicode="&#xe61f;" 
d="M992 640q0 10 -0.5 21.5t-2.5 23.5q0 7 -4 12t-9 10t-11.5 5.5t-14.5 -2.5q-48 -13 -92.5 -3t-78.5 36t-54.5 65t-20.5 85q0 7 -2.5 13.5t-7.5 8.5q-4 5 -11 7t-14 0q-47 -6 -88 -26t-73.5 -50t-54.5 -69.5t-31 -85.5q-52 -14 -96 -47t-70 -81q-12 3 -24 5t-24 2
q-43 1 -81 -14.5t-66 -43.5t-44.5 -65t-16.5 -79q0 -43 16.5 -81t44.5 -66t66 -44.5t81 -16.5h106q2 10 7 17.5t12 14.5q-19 22 -23 52.5t10 59.5q12 22 34.5 35t48.5 13q5 0 10 -0.5t9 -2.5q10 29 35 48t58 19q34 0 58.5 -19t34.5 -48q5 0 9.5 1.5t9.5 1.5q27 0 49 -13
t34 -35q17 -29 13 -59.5t-25 -52.5q7 -7 11.5 -14.5t7.5 -17.5h105q44 0 81.5 16.5t66 44.5t44.5 66t16 81t-16 80.5t-44 66.5q9 29 15.5 60t6.5 65v0zM909 550q-22 10 -44.5 16.5t-48.5 6.5q-22 0 -43 -5t-40 -14q-34 69 -99 109.5t-144 40.5v0v0q16 55 57 95.5t96 54.5
q9 -49 35 -91t64.5 -71t86 -43.5t99.5 -8.5v-0.5v-2.5q0 -22 -5 -43.5t-14 -43.5zM650 272q-8 12 -20.5 15t-24.5 -2l-64 -35v70q0 14 -9 23t-23 9q-15 0 -23.5 -9t-8.5 -23v-74l-64 36q-12 7 -25 3t-20 -16t-3 -25t16 -20l64 -35l-64 -35q-12 -8 -15 -20.5t2 -24.5
q5 -7 12 -11.5t17 -4.5q5 0 8 0.5t8 2.5l64 35v-67q0 -14 8.5 -23t23.5 -9q14 0 23 9t9 23v74l64 -36q5 -2 8 -2.5t8 -0.5q7 0 15.5 4.5t13.5 11.5q7 12 3 25t-16 20l-61 32l64 35q10 7 13.5 20t-3.5 25v0z" />
    <glyph glyph-name="uniE620" unicode="&#xe620;" 
d="M0 128q0 -14 9 -23t23 -9h320q14 0 23 9t9 23t-9 23t-23 9h-320q-14 0 -23 -9t-9 -23zM32 458q0 -63 15.5 -122t42.5 -112h262q41 0 68.5 -27.5t27.5 -68.5q0 -10 -2 -17.5l-4 -14.5h70q41 0 68.5 -27.5t27.5 -68.5q0 -7 -0.5 -12.5t-2.5 -13.5q68 12 130 42.5t112.5 76
t88 105t56.5 128.5q2 8 0 16.5t-10 15.5q-7 8 -14.5 10t-17.5 0q-28 -7 -55.5 -11.5t-56.5 -4.5q-87 0 -164 33t-134.5 90.5t-90.5 134.5t-33 164q0 27 4.5 55.5t11.5 56.5q2 8 0 16.5t-10 15.5q-7 8 -14.5 10t-17.5 0q-79 -22 -145 -67.5t-113 -108t-73.5 -138
t-26.5 -156.5zM512 32h-320q-14 0 -23 -9t-9 -23t9 -23t23 -9h320q14 0 23 9t9 23t-9 23t-23 9z" />
    <glyph glyph-name="uniE621" unicode="&#xe621;" 
d="M512 960q-106 0 -199 -40.5t-162.5 -110t-110 -162.5t-40.5 -199t40.5 -199t110 -162.5t162.5 -110t199 -40.5t199 40.5t162.5 110t110 162.5t40.5 199t-40.5 199t-110 162.5t-162.5 110t-199 40.5z" />
    <glyph glyph-name="uniE622" unicode="&#xe622;" 
d="M422 918q-4 8 -13 10t-19 0q-79 -22 -145 -67.5t-113 -108t-73.5 -138t-26.5 -156.5q0 -102 38.5 -191.5t104.5 -155.5t155.5 -104.5t191.5 -38.5q82 0 158 26.5t138 73.5t107 113t67 145q2 8 0 16.5t-10 15.5q-7 8 -14.5 10t-17.5 0q-28 -7 -55.5 -11.5t-56.5 -4.5
q-87 0 -164 33t-134.5 90.5t-90.5 134.5t-33 164q0 27 4.5 55.5t11.5 56.5q2 10 0 19t-10 13zM672 928q-14 0 -23 -9t-9 -23v-32h-32q-14 0 -23 -9t-9 -23t9 -23t23 -9h32v-32q0 -14 9 -23t23 -9t23 9t9 23v32h32q14 0 23 9t9 23t-9 23t-23 9h-32v32q0 14 -9 23t-23 9z
M896 672q-14 0 -23 -9t-9 -23v-32h-32q-14 0 -23 -9t-9 -23t9 -23t23 -9h32v-32q0 -14 9 -23t23 -9t23 9t9 23v32h32q14 0 23 9t9 23t-9 23t-23 9h-32v32q0 14 -9 23t-23 9z" />
    <glyph glyph-name="uniE623" unicode="&#xe623;" 
d="M422 918q-4 8 -13 10t-19 0q-79 -22 -145 -67.5t-113 -108t-73.5 -138t-26.5 -156.5q0 -102 38.5 -191.5t104.5 -155.5t155.5 -104.5t191.5 -38.5q82 0 158 26.5t138 73.5t107 113t67 145q2 8 0 16.5t-10 15.5q-7 8 -14.5 10t-17.5 0q-28 -7 -55.5 -11.5t-56.5 -4.5
q-87 0 -164 33t-134.5 90.5t-90.5 134.5t-33 164q0 27 4.5 55.5t11.5 56.5q2 10 0 19t-10 13z" />
    <glyph glyph-name="uniE624" unicode="&#xe624;" 
d="M534 438q-9 10 -22 10t-22 -10l-32 -32q-10 -9 -10 -22t10 -22q4 -5 10.5 -7.5t11.5 -2.5t11.5 2.5t10.5 7.5l32 32q10 9 10 22t-10 22v0zM618 522q4 -5 10.5 -7.5t11.5 -2.5t11.5 2.5t10.5 7.5l320 320q10 9 10 22t-10 22q-9 10 -22 10t-22 -10l-320 -320
q-10 -9 -10 -22t10 -22zM64 256q7 0 12.5 2.5t9.5 7.5l32 32q10 9 10 22t-10 22q-9 10 -22 10t-22 -10l-32 -32q-10 -9 -10 -22t10 -22q4 -5 9.5 -7.5t12.5 -2.5zM566 790q-9 10 -22 10t-22 -10l-320 -320q-10 -9 -10 -22t10 -22q4 -5 9.5 -7.5t12.5 -2.5t12.5 2.5t9.5 7.5
l320 320q10 9 10 22t-10 22v0zM490 118l-32 -32q-10 -9 -10 -22t10 -22q4 -5 10.5 -7.5t11.5 -2.5t11.5 2.5t10.5 7.5l32 32q10 9 10 22t-10 22q-9 10 -22 10t-22 -10v0zM938 566l-320 -320q-10 -9 -10 -22t10 -22q4 -5 10.5 -7.5t11.5 -2.5t11.5 2.5t10.5 7.5l320 320
q10 9 10 22t-10 22q-9 10 -22 10t-22 -10v0z" />
    <glyph glyph-name="uniE625" unicode="&#xe625;" 
d="M982 886q-9 10 -22 10t-22 -10l-480 -480q-10 -9 -10 -22t10 -22q4 -5 10.5 -7.5t11.5 -2.5t11.5 2.5t10.5 7.5l480 480q10 9 10 22t-10 22zM522 790l-480 -480q-10 -9 -10 -22t10 -22q4 -5 9.5 -7.5t12.5 -2.5t12.5 2.5t9.5 7.5l480 480q10 9 10 22t-10 22q-9 10 -22 10
t-22 -10v0zM938 566l-480 -480q-10 -9 -10 -22t10 -22q4 -5 10.5 -7.5t11.5 -2.5t11.5 2.5t10.5 7.5l480 480q10 9 10 22t-10 22q-9 10 -22 10t-22 -10v0z" />
    <glyph glyph-name="uniE626" unicode="&#xe626;" 
d="M512 736q-106 0 -199 -40.5t-162.5 -110t-110 -162.5t-40.5 -199q0 -14 9 -23t23 -9t23 9t9 23q0 92 35.5 173.5t96 142.5t142.5 96.5t174 35.5t173.5 -35.5t142.5 -96t96.5 -142.5t35.5 -174q0 -14 9 -23t23 -9t23 9t9 23q0 106 -40.5 199t-110 162.5t-162.5 110
t-199 40.5zM512 560q-70 0 -131 -26.5t-106.5 -72t-72 -106.5t-26.5 -131q0 -14 9 -23t23 -9t23 9t9 23q0 56 21.5 105.5t58 86.5t86.5 58.5t106 21.5t105.5 -21.5t86.5 -58t58.5 -86.5t21.5 -106q0 -14 9 -23t23 -9t23 9t9 23q0 70 -26.5 131t-72 106.5t-106.5 72
t-131 26.5zM413 224q0 41 29 70t70 29t70 -29t29 -70q0 -14 9 -23t23 -9q15 0 23.5 9t8.5 23q0 67 -48 115t-115 48t-115 -48t-48 -115q0 -14 8.5 -23t23.5 -9q14 0 23 9t9 23z" />
    <glyph glyph-name="uniE627" unicode="&#xe627;" 
d="M77 374q-12 3 -24 -3.5t-15 -18.5q-2 -12 4.5 -24t18.5 -14l105 -29l-83 -48q-14 -7 -17.5 -20t1.5 -25q5 -7 12 -11.5t17 -4.5q5 0 8 0.5t8 2.5l83 48l-29 -105q-2 -12 4.5 -24t18.5 -15h4.5h4.5q10 0 19 6.5t13 16.5l45 166l205 118v-236l-122 -122q-9 -10 -9 -22.5
t9 -22.5q10 -9 23 -9t22 9l77 77v-96q0 -14 9 -23t23 -9t23 9t9 23v96l77 -77q5 -5 11 -7t11 -2t11.5 2t11.5 7q9 10 9 22.5t-9 22.5l-122 125v237l205 -119l45 -166q2 -10 11 -16.5t21 -6.5h4.5h4.5q12 3 18.5 15t4.5 24l-29 105l83 -48q5 -2 8 -2.5t8 -0.5q7 0 15.5 4.5
t13.5 11.5q7 12 3 25t-16 20l-83 48l105 29q12 2 18.5 14t4.5 24q-3 12 -15 18.5t-24 4.5l-166 -45l-208 115l205 118l166 -44h5h5q9 0 18 6t14 16q2 12 -4.5 24t-18.5 14l-105 29l83 48q12 7 15 20t-2 25q-7 12 -20 15t-25 -2l-83 -48l29 105q2 12 -4.5 24t-18.5 15
q-12 2 -24 -4.5t-14 -18.5l-45 -166l-208 -122v237l122 122q9 9 9 22t-9 23q-10 9 -23 9t-22 -9l-77 -74v96q0 14 -9 23t-23 9t-23 -9t-9 -23v-96l-77 77q-9 9 -22 9t-23 -9q-9 -10 -9 -22.5t9 -22.5l122 -125v-237l-205 119l-45 166q-2 15 -14 21t-24 2q-14 -3 -20.5 -15
t-1.5 -24l28 -105l-86 51q-12 5 -25 2t-20 -15t-3 -25t16 -20l83 -48l-105 -29q-10 -2 -17 -14t-3 -24q3 -10 11.5 -16t20.5 -6h5.5h4.5l166 44l202 -118l-205 -118l-166 44v0z" />
    <glyph glyph-name="uniE628" unicode="&#xe628;" 
d="M883 531q7 19 10 38.5t3 38.5q0 47 -17.5 87.5t-47.5 71t-71 48t-88 17.5q-77 0 -136.5 -45.5t-81.5 -117.5q-62 -7 -116 -43t-85 -92q-12 3 -24 5t-24 2q-42 0 -79.5 -16.5t-65.5 -44.5t-44 -65t-16 -79q0 -43 16.5 -81t44.5 -66t66 -44.5t81 -16.5h125q12 38 38.5 81.5
t70.5 91.5q14 17 33 26t40 9q22 0 40.5 -9t33.5 -26q41 -51 69 -94t40 -79h124q44 0 81.5 16.5t66 44.5t44.5 66t16 81q-4 67 -45.5 120.5t-101.5 74.5v0zM816 541q-22 0 -43 -5t-40 -14q-31 60 -86 98.5t-122 48.5q17 43 58 71t89 28q67 0 113.5 -46.5t46.5 -113.5
q0 -17 -4.5 -33.5t-11.5 -33.5zM512 -64q48 0 88 35t40 99q0 46 -38 102t-64 87q-10 12 -24.5 12t-23.5 -12q-29 -31 -67.5 -88t-38.5 -101q0 -64 40 -99t88 -35v0zM640 928v-32q0 -14 9 -23t23 -9t23 9t9 23v32q0 14 -9 23t-23 9t-23 -9t-9 -23zM899 790l23 23q9 9 9 22
t-9 23q-10 9 -23 9t-22 -9l-23 -23q-9 -9 -9 -22t9 -23q5 -4 11.5 -6.5t11.5 -2.5t11 2.5t11 6.5v0zM992 640h-32q-14 0 -23 -9t-9 -23t9 -23t23 -9h32q14 0 23 9t9 23t-9 23t-23 9zM422 858q-9 -10 -9 -23t9 -22l23 -23q5 -4 11 -6.5t11 -2.5t11.5 2.5t11.5 6.5q9 10 9 23
t-9 22l-23 23q-9 9 -22 9t-23 -9v0z" />
    <glyph glyph-name="uniE629" unicode="&#xe629;" 
d="M992 192h-960q-14 0 -23 -9t-9 -23t9 -23t23 -9h960q14 0 23 9t9 23t-9 23t-23 9zM896 32q0 14 -9 23t-23 9h-704q-14 0 -23 -9t-9 -23t9 -23t23 -9h704q14 0 23 9t9 23zM883 499q7 19 10 38.5t3 38.5q0 47 -17.5 87.5t-47.5 71t-71 48t-88 17.5q-77 0 -136.5 -45.5
t-81.5 -117.5q-62 -7 -116 -43t-85 -92q-12 3 -24 5t-24 2q-42 0 -79.5 -16.5t-65.5 -44.5t-44 -65t-16 -79v-9.5v-6.5q0 -12 10 -20.5t22 -8.5h960q12 0 22 8.5t10 20.5v9.5v6.5q0 67 -40.5 120.5t-100.5 74.5zM816 509q-22 0 -43 -5t-40 -14q-31 60 -86 98.5t-122 48.5
q17 43 58 71t89 28q67 0 113.5 -46.5t46.5 -113.5q0 -17 -4.5 -33.5t-11.5 -33.5zM640 896v-32q0 -14 9 -23t23 -9t23 9t9 23v32q0 14 -9 23t-23 9t-23 -9t-9 -23zM877 749q7 0 12 2.5t10 6.5l23 23q9 9 9 22t-9 23q-10 9 -23 9t-22 -9l-23 -23q-9 -9 -9 -22t9 -23
q5 -4 10.5 -6.5t12.5 -2.5v0zM992 608h-32q-14 0 -23 -9t-9 -23t9 -23t23 -9h32q14 0 23 9t9 23t-9 23t-23 9zM422 826q-9 -10 -9 -23t9 -22l23 -23q5 -4 11 -6.5t11 -2.5t11.5 2.5t11.5 6.5q9 10 9 23t-9 22l-23 23q-9 9 -22 9t-23 -9v0z" />
    <glyph glyph-name="uniE62A" unicode="&#xe62a;" 
d="M883 531q7 19 10 38.5t3 38.5q0 47 -17.5 87.5t-47.5 71t-71 48t-88 17.5q-77 0 -136.5 -45.5t-81.5 -117.5q-62 -7 -116 -43t-85 -92q-12 3 -24 5t-24 2q-42 0 -79.5 -16.5t-65.5 -44.5t-44 -65t-16 -79t16.5 -79.5t44.5 -66t66 -45.5t81 -17h611q43 0 81 16.5
t66.5 44.5t44.5 66t16 81q-2 67 -43 120.5t-101 74.5zM816 541q-22 0 -43 -5t-40 -14q-31 60 -86 98.5t-122 48.5q17 43 58 71t89 28q67 0 113.5 -46.5t46.5 -113.5q0 -17 -4.5 -33.5t-11.5 -33.5zM672 960q-14 0 -23 -9t-9 -23v-32q0 -14 9 -23t23 -9t23 9t9 23v32
q0 14 -9 23t-23 9zM877 858l-23 -23q-9 -9 -9 -22t9 -23q5 -4 11.5 -6.5t11.5 -2.5t11 2.5t11 6.5l23 23q9 9 9 22t-9 23q-10 9 -23 9t-22 -9zM992 640h-32q-14 0 -23 -9t-9 -23t9 -23t23 -9h32q14 0 23 9t9 23t-9 23t-23 9zM422 858q-9 -10 -9 -23t9 -22l23 -23
q5 -4 11 -6.5t11 -2.5t11.5 2.5t11.5 6.5q9 10 9 23t-9 22l-23 23q-9 9 -22 9t-23 -9v0zM544 -32v32q0 14 -9 23t-23 9t-23 -9t-9 -23v-32q0 -14 9 -23t23 -9t23 9t9 23zM416 32v32q0 14 -9 23t-23 9t-23 -9t-9 -23v-32q0 -14 9 -23t23 -9t23 9t9 23zM672 32v32q0 14 -9 23
t-23 9t-23 -9t-9 -23v-32q0 -14 9 -23t23 -9t23 9t9 23z" />
    <glyph glyph-name="uniE62B" unicode="&#xe62b;" 
d="M640 928v-32q0 -14 9 -23t23 -9t23 9t9 23v32q0 14 -9 23t-23 9t-23 -9t-9 -23zM899 790l23 23q9 9 9 22t-9 23q-10 9 -23 9t-22 -9l-23 -23q-9 -9 -9 -22t9 -23q5 -4 11.5 -6.5t11.5 -2.5t11 2.5t11 6.5v0zM992 640h-32q-14 0 -23 -9t-9 -23t9 -23t23 -9h32q14 0 23 9
t9 23t-9 23t-23 9zM422 858q-9 -10 -9 -23t9 -22l23 -23q5 -4 11 -6.5t11 -2.5t11.5 2.5t11.5 6.5q9 10 9 23t-9 22l-23 23q-9 9 -22 9t-23 -9v0zM883 531q7 19 10 38.5t3 38.5q0 47 -17.5 87.5t-47.5 71t-71 48t-88 17.5q-77 0 -136.5 -45.5t-81.5 -117.5q-62 -7 -116 -43
t-85 -92q-12 3 -24 5t-24 2q-42 0 -79.5 -16.5t-65.5 -44.5t-44 -65t-16 -79q0 -43 16.5 -81t44.5 -66t66 -44.5t81 -16.5h150q-7 19 -5 41t12 39l96 160q14 22 36.5 35t46.5 13q12 0 25 -3t23 -10q17 -9 28.5 -25t16.5 -32q5 -20 2.5 -38.5t-12.5 -35.5l-13 -22
q15 -8 27 -18t21 -24q10 -19 12 -40t-5 -40h150q43 0 81 16.5t66.5 44.5t44.5 66t16 81q-2 67 -43 120.5t-101 74.5v0zM816 541q-22 0 -43 -5t-40 -14q-31 60 -86 98.5t-122 48.5q17 43 58 71t89 28q67 0 113.5 -46.5t46.5 -113.5q0 -17 -4.5 -33.5t-11.5 -33.5zM560 349
q-12 7 -25 3.5t-20 -13.5l-96 -160q-5 -7 -5 -16t5 -16t12 -11.5t17 -4.5h70l-67 -112q-7 -12 -3.5 -24.5t13.5 -20.5q5 -4 9.5 -5t9.5 -1q7 0 15.5 4.5t13.5 11.5l96 160q5 7 5 16t-5 16t-12 11.5t-17 4.5h-70l67 112q5 12 2 25t-15 20v0z" />
    <glyph glyph-name="uniE62C" unicode="&#xe62c;" 
d="M640 928v-32q0 -14 9 -23t23 -9t23 9t9 23v32q0 14 -9 23t-23 9t-23 -9t-9 -23zM899 790l23 23q9 9 9 22t-9 23q-10 9 -23 9t-22 -9l-23 -23q-9 -9 -9 -22t9 -23q5 -4 11.5 -6.5t11.5 -2.5t11 2.5t11 6.5v0zM992 640h-32q-14 0 -23 -9t-9 -23t9 -23t23 -9h32q14 0 23 9
t9 23t-9 23t-23 9zM445 790q5 -4 11 -6.5t11 -2.5t11.5 2.5t11.5 6.5q9 10 9 23t-9 22l-23 23q-9 9 -22 9t-23 -9q-9 -10 -9 -23t9 -22l23 -23v0zM883 531q7 19 10 38.5t3 38.5q0 47 -17.5 87.5t-47.5 71t-71 48t-88 17.5q-77 0 -136.5 -45.5t-81.5 -117.5q-62 -7 -116 -43
t-85 -92q-12 3 -24 5t-24 2q-42 0 -79.5 -16.5t-65.5 -44.5t-44 -65t-16 -79t16.5 -79.5t44.5 -66t66 -45.5t81 -17h144v192q0 14 9 23t23 9t23 -9t9 -23v-192h64v96q0 14 9 23t23 9t23 -9t9 -23v-96h64v192q0 14 9 23t23 9t23 -9t9 -23v-192h144q43 0 81 16.5t66 44.5
t44.5 66t16.5 81q0 67 -40.5 120.5t-100.5 74.5zM816 541q-22 0 -43 -5t-40 -14q-31 60 -86 98.5t-122 48.5q17 43 58 71t89 28q67 0 113.5 -46.5t46.5 -113.5q0 -17 -4.5 -33.5t-11.5 -33.5zM352 64q0 -14 9 -23t23 -9t23 9t9 23v64h-64v-64zM480 -32q0 -14 9 -23t23 -9
t23 9t9 23v160h-64v-160zM608 64q0 -14 9 -23t23 -9t23 9t9 23v64h-64v-64z" />
    <glyph glyph-name="uniE62D" unicode="&#xe62d;" 
d="M672 960q-14 0 -23 -9t-9 -23v-32q0 -14 9 -23t23 -9t23 9t9 23v32q0 14 -9 23t-23 9zM877 781q7 0 12 2.5t10 6.5l23 23q9 9 9 22t-9 23q-10 9 -23 9t-22 -9l-23 -23q-9 -9 -9 -22t9 -23q5 -4 10.5 -6.5t12.5 -2.5v0zM992 640h-32q-14 0 -23 -9t-9 -23t9 -23t23 -9h32
q14 0 23 9t9 23t-9 23t-23 9zM422 858q-9 -10 -9 -23t9 -22l23 -23q5 -4 11 -6.5t11 -2.5t11.5 2.5t11.5 6.5q9 10 9 23t-9 22l-23 23q-9 9 -22 9t-23 -9v0zM883 531q7 19 10 38.5t3 38.5q0 47 -17.5 87.5t-47.5 71t-71 48t-88 17.5q-77 0 -136.5 -45.5t-81.5 -117.5
q-62 -7 -116 -43t-85 -92q-12 3 -24 5t-24 2q-42 0 -79.5 -16.5t-65.5 -44.5t-44 -65t-16 -79q0 -43 16.5 -81t44.5 -66t66 -44.5t81 -16.5h272v32q0 14 9 23t23 9t23 -9t9 -23v-32h272q43 0 81 16.5t66 44.5t44.5 66t16.5 81q0 67 -40.5 120.5t-100.5 74.5zM416 224
q0 -14 -9 -23t-23 -9t-23 9t-9 23v32q0 14 9 23t23 9t23 -9t9 -23v-32zM672 224q0 -14 -9 -23t-23 -9t-23 9t-9 23v32q0 14 9 23t23 9t23 -9t9 -23v-32zM816 541q-22 0 -43 -5t-40 -14q-31 60 -86 98.5t-122 48.5q17 43 58 71t89 28q67 0 113.5 -46.5t46.5 -113.5
q0 -17 -4.5 -33.5t-11.5 -33.5zM512 32q-14 0 -23 -9t-9 -23v-32q0 -14 9 -23t23 -9t23 9t9 23v32q0 14 -9 23t-23 9zM384 96q-14 0 -23 -9t-9 -23v-32q0 -14 9 -23t23 -9t23 9t9 23v32q0 14 -9 23t-23 9zM640 96q-14 0 -23 -9t-9 -23v-32q0 -14 9 -23t23 -9t23 9t9 23v32
q0 14 -9 23t-23 9z" />
    <glyph glyph-name="uniE62E" unicode="&#xe62e;" 
d="M640 896v-32q0 -14 9 -23t23 -9t23 9t9 23v32q0 14 -9 23t-23 9t-23 -9t-9 -23zM877 749q7 0 12 2.5t10 6.5l23 23q9 9 9 22t-9 23q-10 9 -23 9t-22 -9l-23 -23q-9 -9 -9 -22t9 -23q5 -4 10.5 -6.5t12.5 -2.5v0zM992 608h-32q-14 0 -23 -9t-9 -23t9 -23t23 -9h32
q14 0 23 9t9 23t-9 23t-23 9zM422 826q-9 -10 -9 -23t9 -22l23 -23q5 -4 11 -6.5t11 -2.5t11.5 2.5t11.5 6.5q9 10 9 23t-9 22l-23 23q-9 9 -22 9t-23 -9v0zM883 499q7 19 10 38.5t3 38.5q0 47 -17.5 87.5t-47.5 71t-71 48t-88 17.5q-77 0 -136.5 -45.5t-81.5 -117.5
q-62 -7 -116 -43t-85 -92q-12 3 -24 5t-24 2q-42 0 -79.5 -16.5t-65.5 -44.5t-44 -65t-16 -79q0 -43 16.5 -81t44.5 -66t66 -44.5t81 -16.5h106q2 10 7 17.5t12 14.5q-19 22 -23 52.5t10 59.5q12 22 34.5 35t48.5 13q5 0 10 -0.5t9 -2.5q10 29 35 48t58 19q34 0 58.5 -19
t34.5 -48q5 0 9.5 1.5t9.5 1.5q27 0 49 -13t34 -35q17 -29 13 -59.5t-25 -52.5q7 -7 11.5 -14.5t7.5 -17.5h105q44 0 81.5 16.5t66 44.5t44.5 66t16 81q-4 67 -45.5 120.5t-101.5 74.5zM816 509q-22 0 -43 -5t-40 -14q-31 60 -86 98.5t-122 48.5q17 43 58 71t89 28
q67 0 113.5 -46.5t46.5 -113.5q0 -17 -4.5 -33.5t-11.5 -33.5zM650 208q-8 12 -20.5 15t-24.5 -2l-64 -35v70q0 14 -9 23t-23 9q-15 0 -23.5 -9t-8.5 -23v-74l-64 36q-12 7 -25 3t-20 -16t-3 -25t16 -20l64 -35l-64 -35q-12 -8 -15 -20.5t2 -24.5q5 -7 12 -11.5t17 -4.5
q5 0 8 0.5t8 2.5l64 35v-67q0 -14 8.5 -23t23.5 -9q14 0 23 9t9 23v74l64 -36q5 -2 8 -2.5t8 -0.5q7 0 15.5 4.5t13.5 11.5q7 12 3 25t-16 20l-61 32l64 35q10 7 13.5 20t-3.5 25v0z" />
    <glyph glyph-name="uniE62F" unicode="&#xe62f;" 
d="M480 928v-64q0 -14 9 -23t23 -9t23 9t9 23v64q0 14 -9 23t-23 9t-23 -9t-9 -23zM829 810l-45 -45q-10 -10 -10 -22.5t10 -22.5q5 -5 11.5 -7.5t10.5 -2.5q5 0 11.5 2.5t11.5 7.5l45 45q9 9 9 22t-9 23q-10 9 -23 9t-22 -9zM992 480h-64q-14 0 -23 -9t-9 -23t9 -23t23 -9
h64q14 0 23 9t9 23t-9 23t-23 9zM96 416q14 0 23 9t9 23t-9 23t-23 9h-64q-14 0 -23 -9t-9 -23t9 -23t23 -9h64zM150 810q-9 -10 -9 -23t9 -22l45 -45q5 -5 11.5 -7.5t11.5 -2.5q4 0 10.5 2.5t11.5 7.5q10 10 10 22.5t-10 22.5l-45 45q-9 9 -22 9t-23 -9v0zM816 349v0v0
q7 24 11.5 48.5t4.5 50.5q0 66 -25 124t-68.5 101.5t-102 69t-124.5 25.5t-124 -25t-101.5 -68.5t-69 -102t-25.5 -124.5q0 -26 4.5 -50.5t11.5 -48.5h-0.5h-2.5q-42 0 -79.5 -16.5t-65 -44.5t-44 -65t-16.5 -79q0 -43 16.5 -81t44.5 -66t66 -44.5t81 -16.5h611
q43 0 81 16.5t66.5 44.5t44.5 66t16 81q-1 42 -18 79t-45.5 65t-66.5 44.5t-81 16.5zM739 333q-2 0 -4 -1.5l-2 -1.5q-34 67 -99 108.5t-144 41.5q-68 0 -125.5 -31t-95.5 -81q-5 19 -9 38.5t-4 41.5q0 53 20 99.5t55 81.5t81.5 55t99.5 20t99.5 -20t81.5 -55t55 -81.5
t20 -99.5q0 -29 -7 -59t-22 -56v0z" />
    <glyph glyph-name="uniE630" unicode="&#xe630;" 
d="M64 256q0 -14 9 -23t23 -9h832q14 0 23 9t9 23t-9 23t-23 9h-832q-14 0 -23 -9t-9 -23zM864 128q0 14 -9 23t-23 9h-640q-14 0 -23 -9t-9 -23t9 -23t23 -9h640q14 0 23 9t9 23zM768 0q0 14 -9 23t-23 9h-448q-14 0 -23 -9t-9 -23t9 -23t23 -9h448q14 0 23 9t9 23zM96 448
h-64q-14 0 -23 -9t-9 -23t9 -23t23 -9h64q14 0 23 9t9 23t-9 23t-23 9zM195 778q-9 9 -22 9t-23 -9q-9 -10 -9 -23t9 -22l45 -45q5 -5 11.5 -7.5t11.5 -2.5q4 0 10.5 2.5t11.5 7.5q10 10 10 22.5t-10 22.5zM544 832v64q0 14 -9 23t-23 9t-23 -9t-9 -23v-64q0 -14 9 -23
t23 -9t23 9t9 23zM829 688l45 45q9 9 9 22t-9 23q-10 9 -23 9t-22 -9l-45 -45q-10 -10 -10 -22.5t10 -22.5q5 -5 11.5 -7.5t10.5 -2.5q5 0 11.5 2.5t11.5 7.5zM992 448h-64q-14 0 -23 -9t-9 -23t9 -23t23 -9h64q14 0 23 9t9 23t-9 23t-23 9zM224 416q0 -14 9 -23t23 -9h512
v0v0q14 0 23 9t9 23v3v3q-1 59 -24 110.5t-62 89.5t-91 60t-111 22q-60 0 -112.5 -22.5t-91.5 -61.5t-61.5 -91.5t-22.5 -112.5z" />
    <glyph glyph-name="uniE631" unicode="&#xe631;" 
d="M992 320h-960q-14 0 -23 -9t-9 -23t9 -23t23 -9h960q14 0 23 9t9 23t-9 23t-23 9zM896 160q0 14 -9 23t-23 9h-704q-14 0 -23 -9t-9 -23t9 -23t23 -9h704q14 0 23 9t9 23zM288 64q-14 0 -23 -9t-9 -23t9 -23t23 -9h448q14 0 23 9t9 23t-9 23t-23 9h-448zM512 896
q-100 0 -187.5 -37.5t-152.5 -102.5t-102.5 -152.5t-37.5 -187.5q0 -14 9 -23t23 -9h896v0v0q14 0 23 9t9 23v3v3q-1 99 -39.5 185t-103.5 150.5t-152 101.5t-185 37z" />
    <glyph glyph-name="uniE632" unicode="&#xe632;" 
d="M32 384h64q14 0 23 9t9 23t-9 23t-23 9h-64q-14 0 -23 -9t-9 -23t9 -23t23 -9zM150 733l45 -45q5 -5 11.5 -7.5t11.5 -2.5q4 0 10.5 2.5t11.5 7.5q10 10 10 22.5t-10 22.5l-45 45q-9 9 -22 9t-23 -9q-9 -10 -9 -23t9 -22v0zM512 928q-14 0 -23 -9t-9 -23v-64q0 -14 9 -23
t23 -9t23 9t9 23v64q0 14 -9 23t-23 9zM829 778l-45 -45q-10 -10 -10 -22.5t10 -22.5q5 -5 11.5 -7.5t10.5 -2.5q5 0 11.5 2.5t11.5 7.5l45 45q9 9 9 22t-9 23q-10 9 -23 9t-22 -9zM992 448h-64q-14 0 -23 -9t-9 -23t9 -23t23 -9h64q14 0 23 9t9 23t-9 23t-23 9zM829 54
q5 -4 11 -6.5t11 -2.5t11.5 2.5t11.5 6.5q9 10 9 23t-9 22l-45 45q-10 10 -22.5 10t-22.5 -10t-10 -22.5t10 -22.5zM800 416q0 60 -22.5 112.5t-61.5 91.5t-91.5 61.5t-112.5 22.5t-112.5 -22.5t-91.5 -61.5t-61.5 -91.5t-22.5 -112.5q0 -43 13 -84.5t35 -75.5h112
q41 0 68.5 -27.5t27.5 -68.5q0 -7 -2 -14.5l-4 -14.5q9 0 18.5 -1.5t19.5 -1.5q60 0 112.5 22.5t91.5 61.5t61.5 91.5t22.5 112.5zM32 160q0 -14 9 -23t23 -9h320q14 0 23 9t9 23t-9 23t-23 9h-320q-14 0 -23 -9t-9 -23zM576 32q0 14 -9 23t-23 9h-320q-14 0 -23 -9t-9 -23
t9 -23t23 -9h320q14 0 23 9t9 23z" />
    <glyph glyph-name="uniE633" unicode="&#xe633;" 
d="M32 416h64q14 0 23 9t9 23t-9 23t-23 9h-64q-14 0 -23 -9t-9 -23t9 -23t23 -9zM195 720q5 -5 11.5 -7.5t11.5 -2.5q4 0 10.5 2.5t11.5 7.5q10 10 10 22.5t-10 22.5l-45 45q-9 9 -22 9t-23 -9q-9 -10 -9 -23t9 -22zM512 832q14 0 23 9t9 23v64q0 14 -9 23t-23 9t-23 -9
t-9 -23v-64q0 -14 9 -23t23 -9zM806 710q5 0 11.5 2.5t11.5 7.5l45 45q9 9 9 22t-9 23q-10 9 -23 9t-22 -9l-45 -45q-10 -10 -10 -22.5t10 -22.5q5 -5 11.5 -7.5t10.5 -2.5zM992 480h-64q-14 0 -23 -9t-9 -23t9 -23t23 -9h64q14 0 23 9t9 23t-9 23t-23 9zM829 176
q-10 10 -22.5 10t-22.5 -10t-10 -22.5t10 -22.5l45 -45q5 -4 11 -6.5t11 -2.5t11.5 2.5t11.5 6.5q9 10 9 23t-9 22zM480 32v-64q0 -14 9 -23t23 -9t23 9t9 23v64q0 14 -9 23t-23 9t-23 -9t-9 -23zM173 77q5 0 11 2.5t11 6.5l45 45q10 10 10 22.5t-10 22.5t-22.5 10
t-22.5 -10l-45 -45q-9 -9 -9 -22t9 -23q5 -4 11.5 -6.5t11.5 -2.5v0zM512 160q60 0 112.5 22.5t91.5 61.5t61.5 91.5t22.5 112.5t-22.5 112.5t-61.5 91.5t-91.5 61.5t-112.5 22.5t-112.5 -22.5t-91.5 -61.5t-61.5 -91.5t-22.5 -112.5t22.5 -112.5t61.5 -91.5t91.5 -61.5
t112.5 -22.5z" />
    <glyph glyph-name="uniE634" unicode="&#xe634;" 
d="M0 608q0 -14 9 -23t23 -9h560q67 0 115 48t48 115t-48 115t-115 48q-53 0 -95 -30t-59 -78q-4 -12 2 -24.5t18 -17.5t24 1t17 18q10 29 36 48t57 19q41 0 70 -29t29 -70t-29 -70t-70 -29h-560q-14 0 -23 -9t-9 -23zM330 320h-298q-14 0 -23 -9t-9 -23t9 -23t23 -9h298
q40 0 69.5 -29t29.5 -70t-29.5 -70t-69.5 -29q-32 0 -58 18t-35 49q-5 12 -17.5 18t-24.5 1t-18 -17.5t-1 -24.5q17 -48 59 -78t95 -30q67 0 115 48t48 115t-48 115t-115 48zM861 480h-829q-14 0 -23 -9t-9 -23t9 -23t23 -9h829q41 0 70 -29t29 -70t-29 -70t-70 -29
q-31 0 -57 18t-36 49q-5 12 -17.5 18t-24.5 1t-18 -17.5t-1 -24.5q17 -48 59 -78t95 -30q67 0 115 48t48 115t-48 115t-115 48v0z" />
    <glyph glyph-name="uniE635" unicode="&#xe635;" 
d="M160 672v-64q0 -53 20 -99.5t55 -81.5t81.5 -55t99.5 -20t99.5 20t81.5 55t55 81.5t20 99.5v64q0 53 -20 99.5t-55 81.5t-81.5 55t-99.5 20t-99.5 -20t-81.5 -55t-55 -81.5t-20 -99.5zM800 416q-67 0 -121 -36.5t-81 -91.5h-9.5h-12.5h-320q-47 0 -88 -17.5t-71 -48
t-47.5 -71t-17.5 -87.5v-64q0 -14 9 -23t23 -9h736q47 0 87.5 17.5t71 48t48 71t17.5 87.5t-17.5 87.5t-47.5 71t-71 48t-88 17.5zM800 32q-67 0 -113.5 46.5t-46.5 113.5t46.5 113.5t113.5 46.5t113.5 -46.5t46.5 -113.5t-46.5 -113.5t-113.5 -46.5zM864 224h-32v32
q0 14 -9 23t-23 9t-23 -9t-9 -23v-32h-32q-14 0 -23 -9t-9 -23t9 -23t23 -9h32v-32q0 -14 9 -23t23 -9t23 9t9 23v32h32q14 0 23 9t9 23t-9 23t-23 9z" />
    <glyph glyph-name="uniE636" unicode="&#xe636;" 
d="M256 672v-64q0 -53 20 -99.5t55 -81.5t81.5 -55t99.5 -20t99.5 20t81.5 55t55 81.5t20 99.5v64q0 53 -20 99.5t-55 81.5t-81.5 55t-99.5 20t-99.5 -20t-81.5 -55t-55 -81.5t-20 -99.5zM960 128q0 -41 -27.5 -68.5t-68.5 -27.5t-68.5 27.5t-27.5 68.5v32h-32
q-41 0 -68.5 27.5t-27.5 68.5q0 10 2 17.5l4 14.5h-326q-60 0 -112.5 -22.5t-91.5 -61.5t-61.5 -91.5t-22.5 -112.5q0 -14 9 -23t23 -9h896q14 0 23 9t9 23q0 36 -9 69t-23 62v-3zM992 288h-96v96q0 14 -9 23t-23 9t-23 -9t-9 -23v-96h-96q-14 0 -23 -9t-9 -23t9 -23t23 -9
h96v-96q0 -14 9 -23t23 -9t23 9t9 23v96h96q14 0 23 9t9 23t-9 23t-23 9z" />
    <glyph glyph-name="uniE637" unicode="&#xe637;" 
d="M992 864h-128q-14 0 -23 -9t-9 -23q0 -26 -19 -45t-45 -19t-45 19t-19 45q0 14 -9 23t-23 9h-64q-14 0 -23 -9t-9 -23q0 -26 -19 -45t-45 -19t-45 19t-19 45q0 14 -9 23t-23 9h-64q-14 0 -23 -9t-9 -23q0 -26 -19 -45t-45 -19t-45 19t-19 45q0 14 -9 23t-23 9h-128
q-14 0 -23 -9t-9 -23v-768q0 -14 9 -23t23 -9h960q14 0 23 9t9 23v768q0 14 -9 23t-23 9zM224 512q0 41 27.5 68.5t68.5 27.5t68.5 -27.5t27.5 -68.5v-32q0 -41 -27.5 -68.5t-68.5 -27.5t-68.5 27.5t-27.5 68.5v32zM448 224v0v0h-256q-14 0 -23 9t-9 23q0 41 27.5 68.5
t68.5 27.5h128q38 0 66 -25.5t30 -64.5v-4v-2q0 -14 -9 -23t-23 -9zM768 288h-160q-14 0 -23 9t-9 23t9 23t23 9h160q14 0 23 -9t9 -23t-9 -23t-23 -9zM864 416h-256q-14 0 -23 9t-9 23t9 23t23 9h256q14 0 23 -9t9 -23t-9 -23t-23 -9z" />
    <glyph glyph-name="uniE638" unicode="&#xe638;" 
d="M992 864h-128q-14 0 -23 -9t-9 -23q0 -26 -19 -45t-45 -19t-45 19t-19 45q0 14 -9 23t-23 9h-64q-14 0 -23 -9t-9 -23q0 -26 -19 -45t-45 -19t-45 19t-19 45q0 14 -9 23t-23 9h-64q-14 0 -23 -9t-9 -23q0 -26 -19 -45t-45 -19t-45 19t-19 45q0 14 -9 23t-23 9h-128
q-14 0 -23 -9t-9 -23v-768q0 -14 9 -23t23 -9h960q14 0 23 9t9 23v768q0 14 -9 23t-23 9zM480 256q0 -14 -9 -23t-23 -9h-256q-14 0 -23 9t-9 23v256q0 14 9 23t23 9h256q14 0 23 -9t9 -23v-256zM768 288h-160q-14 0 -23 9t-9 23t9 23t23 9h160q14 0 23 -9t9 -23t-9 -23
t-23 -9zM864 416h-256q-14 0 -23 9t-9 23t9 23t23 9h256q14 0 23 -9t9 -23t-9 -23t-23 -9z" />
    <glyph glyph-name="uniE639" unicode="&#xe639;" 
d="M992 704h-352v96q0 53 -37.5 90.5t-90.5 37.5t-90.5 -37.5t-37.5 -90.5v-96h-352q-14 0 -23 -9t-9 -23v-672q0 -14 9 -23t23 -9h960q14 0 23 9t9 23v672q0 14 -9 23t-23 9zM480 768q0 14 9 23t23 9t23 -9t9 -23v-32q0 -14 -9 -23t-23 -9t-23 9t-9 23v32zM384 608
q0 -14 9 -23t23 -9h192q14 0 23 9t9 23v-64q0 -14 -9 -23t-23 -9h-192q-14 0 -23 9t-9 23v64zM480 128q0 -14 -9 -23t-23 -9h-256q-14 0 -23 9t-9 23v256q0 14 9 23t23 9h256q14 0 23 -9t9 -23v-256zM736 160h-160q-14 0 -23 9t-9 23t9 23t23 9h160q14 0 23 -9t9 -23t-9 -23
t-23 -9zM832 288h-256q-14 0 -23 9t-9 23t9 23t23 9h256q14 0 23 -9t9 -23t-9 -23t-23 -9z" />
    <glyph glyph-name="uniE63A" unicode="&#xe63a;" 
d="M512 704q-79 0 -135.5 -56.5t-56.5 -135.5v-96q0 -79 56.5 -135.5t135.5 -56.5t135.5 56.5t56.5 135.5v96q0 79 -56.5 135.5t-135.5 56.5zM512 960q-106 0 -199 -40.5t-162.5 -110t-110 -162.5t-40.5 -199t40.5 -199t110 -162.5t162.5 -110t199 -40.5t199 40.5t162.5 110
t110 162.5t40.5 199t-40.5 199t-110 162.5t-162.5 110t-199 40.5zM774 86q-40 36 -91.5 55t-106.5 19h-128q-55 0 -104.5 -19t-90.5 -55q-43 30 -78 69.5t-59.5 85.5t-38 98.5t-13.5 108.5q0 92 35.5 173.5t96 142.5t142.5 96.5t174 35.5t173.5 -35.5t142.5 -96t96.5 -142.5
t35.5 -174q0 -56 -13 -108.5t-37.5 -98.5t-59 -85.5t-76.5 -69.5z" />
    <glyph glyph-name="uniE63B" unicode="&#xe63b;" 
d="M486 -64h13.5h12.5q102 0 193 37.5t160 103.5t111.5 154.5t47.5 190.5q5 107 -31 202.5t-102 168.5t-157 117.5t-196 49.5q-107 5 -202.5 -31t-168.5 -102t-117.5 -157t-49.5 -196q-5 -107 31 -202.5t102 -168.5t157 -117.5t196 -49.5zM512 896h10h12q93 -5 172.5 -44.5
t137 -103t89 -147t27.5 -175.5q-5 -84 -37 -157t-85 -128q-19 60 -64.5 87.5t-98.5 46.5q-26 10 -41 31t-20 43q41 26 65.5 68t24.5 95v64q0 79 -56.5 135.5t-135.5 56.5t-135.5 -56.5t-56.5 -135.5v-64q0 -53 25 -95t68 -68q-7 -24 -21 -45.5t-40 -28.5q-50 -17 -97 -44
t-66 -87q-30 32 -53.5 69.5t-39.5 79t-23.5 86.5t-5.5 91q4 89 40 166.5t96 135.5t139.5 91t169.5 33v0z" />
    <glyph glyph-name="uniE63C" unicode="&#xe63c;" 
d="M512 256q79 0 135.5 56.5t56.5 135.5v96q0 79 -56.5 135.5t-135.5 56.5t-135.5 -56.5t-56.5 -135.5v-96q0 -79 56.5 -135.5t135.5 -56.5zM512 -64q106 0 199 40.5t162.5 110t110 162.5t40.5 199t-40.5 199t-110 162.5t-162.5 110t-199 40.5t-199 -40.5t-162.5 -110
t-110 -162.5t-40.5 -199t40.5 -199t110 -162.5t162.5 -110t199 -40.5zM512 896q92 0 173.5 -35.5t142.5 -96t96.5 -142.5t35.5 -174q0 -42 -7.5 -82.5t-22 -78t-35.5 -71.5t-47 -62q-5 28 -21.5 51.5t-42.5 37.5l-77 45q-33 -46 -84 -71t-111 -25t-111 25t-87 68l-77 -45
q-24 -14 -41.5 -37.5t-22.5 -52.5q-25 30 -45.5 64.5t-34.5 72.5t-21.5 78.5t-7.5 82.5q0 92 35.5 173.5t96 142.5t142.5 96.5t174 35.5z" />
    <glyph glyph-name="uniE63D" unicode="&#xe63d;" 
d="M64 -64h64q14 0 23 9t9 23v960q0 14 -9 23t-23 9h-64q-14 0 -23 -9t-9 -23v-960q0 -14 9 -23t23 -9zM960 576q14 0 23 9t9 23v160q0 14 -9 23t-23 9h-64v64q0 41 -29 68.5t-70 27.5h-541q-14 0 -23 -9t-9 -23v-960q0 -14 9 -23t23 -9h541q41 0 70 27.5t29 68.5v288h64
q14 0 23 9t9 23v160q0 14 -9 23t-23 9h-64v32h64zM448 576q0 41 27.5 68.5t68.5 27.5t68.5 -27.5t27.5 -68.5v-32q0 -41 -27.5 -68.5t-68.5 -27.5t-68.5 27.5t-27.5 68.5v32zM672 288v0v0h-256q-14 0 -23 9t-9 23q0 41 27.5 68.5t68.5 27.5h128q38 0 66 -25.5t30 -64.5v-4
v-2q0 -14 -9 -23t-23 -9z" />
    <glyph glyph-name="uniE63E" unicode="&#xe63e;" 
d="M416 928q-53 0 -99.5 -20t-81.5 -55t-55 -81.5t-20 -99.5v-64q0 -53 20 -99.5t55 -81.5t81.5 -55t99.5 -20t99.5 20t81.5 55t55 81.5t20 99.5v64q0 53 -20 99.5t-55 81.5t-81.5 55t-99.5 20zM800 416q-67 0 -121 -36.5t-81 -91.5h-9.5h-12.5h-320q-47 0 -88 -17.5
t-71 -48t-47.5 -71t-17.5 -87.5v-64q0 -14 9 -23t23 -9h736q47 0 87.5 17.5t71 48t48 71t17.5 87.5t-17.5 87.5t-47.5 71t-71 48t-88 17.5zM800 32q-67 0 -113.5 46.5t-46.5 113.5t46.5 113.5t113.5 46.5t113.5 -46.5t46.5 -113.5t-46.5 -113.5t-113.5 -46.5zM864 224h-128
q-14 0 -23 -9t-9 -23t9 -23t23 -9h128q14 0 23 9t9 23t-9 23t-23 9z" />
    <glyph glyph-name="uniE63F" unicode="&#xe63f;" 
d="M512 352q53 0 99.5 20t81.5 55t55 81.5t20 99.5v64q0 53 -20 99.5t-55 81.5t-81.5 55t-99.5 20t-99.5 -20t-81.5 -55t-55 -81.5t-20 -99.5v-64q0 -53 20 -99.5t55 -81.5t81.5 -55t99.5 -20zM736 160q-41 0 -68.5 27.5t-27.5 68.5q0 10 2 17.5l4 14.5h-326
q-60 0 -112.5 -22.5t-91.5 -61.5t-61.5 -91.5t-22.5 -112.5q0 -14 9 -23t23 -9h896q14 0 23 9t9 23q0 43 -13 84.5t-35 75.5h-208zM992 288h-256q-14 0 -23 -9t-9 -23t9 -23t23 -9h256q14 0 23 9t9 23t-9 23t-23 9z" />
    <glyph glyph-name="uniE640" unicode="&#xe640;" 
d="M1005 957q-3 2 -7 2.5t-6 0.5h-288q-14 0 -23 -9t-9 -23t9 -23t23 -9h211l-227 -227q-55 45 -125 72t-147 27q-86 0 -162 -32.5t-132.5 -89t-89 -132.5t-32.5 -162t32.5 -162t89 -132.5t132.5 -89t162 -32.5t162 32.5t132.5 89t89 132.5t32.5 162q0 77 -27 146.5
t-72 122.5l227 230v-211q0 -14 9 -23t23 -9t23 9t9 23v288q0 2 -0.5 6t-2.5 7q-3 5 -7 9t-9 7zM768 352q0 -73 -27.5 -137.5t-75 -112t-112 -75t-137.5 -27.5t-137.5 27.5t-112 75t-75 112t-27.5 137.5t27.5 137t75 112t112 75.5t137.5 27.5t137 -27.5t112 -75t75.5 -112
t27.5 -137.5z" />
    <glyph glyph-name="uniE641" unicode="&#xe641;" 
d="M579 717q5 9 12 14t17 5t17 -5t12 -14q14 -29 48.5 -57t82.5 -42v54q0 53 -20 99.5t-55 81.5t-81.5 55t-99.5 20t-99.5 -20t-81.5 -55t-55 -81.5t-20 -99.5v-22q29 -22 65.5 -32t62.5 -10q67 0 119 29t76 80zM256 544q0 -53 20 -99.5t55 -81.5t81.5 -55t99.5 -20t99.5 20
t81.5 55t55 81.5t20 99.5v6q-50 12 -92 37t-68 56q-36 -48 -95 -73.5t-129 -25.5q-24 0 -59 7.5t-69 24.5v-32zM64 83v-83q0 -14 9 -23t23 -9h832q14 0 23 9t9 23v83q0 36 -18 65.5t-49 46.5l-179 99q-41 -33 -92.5 -51.5t-109.5 -18.5t-109.5 18.5t-92.5 51.5l-179 -99
q-31 -17 -49 -46.5t-18 -65.5v0z" />
    <glyph glyph-name="uniE642" unicode="&#xe642;" 
d="M893 195l-179 99q-41 -33 -92.5 -51.5t-109.5 -18.5t-109.5 18.5t-92.5 51.5l-179 -99q-31 -17 -49 -46.5t-18 -65.5v-83q0 -14 9 -23t23 -9h832q14 0 23 9t9 23v83q0 36 -18 65.5t-49 46.5v0zM832 656v8v8h-640v-8v-8q0 -72 52 -124t124 -52q46 0 83 20t61 54
q24 -34 61 -54t83 -20q72 0 124 52t52 124zM512 928q-44 0 -84 -14.5t-72.5 -40.5t-56 -61t-33.5 -76h496q-12 41 -36 76t-56.5 61t-73 40.5t-84.5 14.5zM512 464q-31 -24 -68.5 -36t-75.5 -12q-24 0 -45.5 4.5t-40.5 11.5q31 -65 92 -104.5t138 -39.5t138 39.5t92 104.5
q-19 -7 -40.5 -11.5t-45.5 -4.5q-38 0 -75.5 12t-68.5 36z" />
    <glyph glyph-name="uniE643" unicode="&#xe643;" 
d="M256 -64h512q41 0 68.5 27.5t27.5 68.5v832q0 41 -27.5 68.5t-68.5 27.5h-512q-41 0 -68.5 -27.5t-27.5 -68.5v-832q0 -41 27.5 -68.5t68.5 -27.5zM512 32q-26 0 -45 19t-19 45t19 45t45 19t45 -19t19 -45t-19 -45t-45 -19zM288 800q0 14 9 23t23 9h384q14 0 23 -9t9 -23
v-448l-122 86q12 17 19 36t7 38v32q0 53 -37.5 90.5t-90.5 37.5t-90.5 -37.5t-37.5 -90.5v-32q0 -22 7 -40.5t19 -33.5l-122 -86v448z" />
    <glyph glyph-name="uniE644" unicode="&#xe644;" 
d="M832 640q53 0 90.5 37.5t37.5 90.5t-37.5 90.5t-90.5 37.5t-90.5 -37.5t-37.5 -90.5t37.5 -90.5t90.5 -37.5zM192 896q-53 0 -90.5 -37.5t-37.5 -90.5t37.5 -90.5t90.5 -37.5t90.5 37.5t37.5 90.5t-37.5 90.5t-90.5 37.5zM96 307v-211q0 -14 9 -23t23 -9h160q14 0 23 9
t9 23v90l-67 67q-15 12 -22 30t-7 37v256q0 10 2 17.5l4 14.5h-198q-14 0 -23 -9t-9 -23v-160q0 -7 2.5 -12.5t7.5 -9.5l86 -87v0zM992 608h-198l4 -14.5t2 -17.5v-256q0 -19 -7 -37t-22 -30l-67 -67v-90q0 -14 9 -23t23 -9h160q14 0 23 9t9 23v211l86 87q5 4 7.5 9.5
t2.5 12.5v160q0 14 -9 23t-23 9v0zM736 320v256q0 14 -9 23t-23 9h-384q-14 0 -23 -9t-9 -23v-256q0 -7 2.5 -12.5t7.5 -9.5l86 -87v-243q0 -14 9 -23t23 -9h192q14 0 23 9t9 23v243l86 87q5 4 7.5 9.5t2.5 12.5zM672 800q0 67 -46.5 113.5t-113.5 46.5t-113.5 -46.5
t-46.5 -113.5t46.5 -113.5t113.5 -46.5t113.5 46.5t46.5 113.5z" />
    <glyph glyph-name="uniE645" unicode="&#xe645;" 
d="M992 288v166q0 27 -13 49.5t-35 34.5l-109 60q15 20 23.5 41.5t8.5 45.5v64q-2 62 -44.5 104.5t-102.5 42.5q-41 0 -73.5 -20t-51.5 -54q36 -33 56.5 -81t20.5 -101v-96q0 -36 -9.5 -69.5t-28.5 -64.5l156 -106q5 -5 11.5 -9.5t11.5 -9.5h179v3zM800 173q0 24 -11 44.5
t-31 35.5l-217 144q31 26 49 63.5t18 83.5v96q0 79 -56.5 135.5t-135.5 56.5t-135.5 -56.5t-56.5 -135.5v-96q0 -43 18 -82t49 -65v0l-217 -144q-20 -15 -31 -35.5t-11 -44.5v-173h768v173z" />
    <glyph glyph-name="uniE646" unicode="&#xe646;" 
d="M128 544q17 0 33.5 5t30.5 14l74 -73q4 -5 9.5 -7.5t12.5 -2.5t12.5 2.5t9.5 7.5q10 9 10 22t-10 22l-73 74q9 14 14 30.5t5 33.5q0 53 -37.5 90.5t-90.5 37.5t-90.5 -37.5t-37.5 -90.5t37.5 -90.5t90.5 -37.5v0zM512 576q14 0 23 9t9 23v99q41 10 68.5 44.5t27.5 80.5
q0 53 -37.5 90.5t-90.5 37.5t-90.5 -37.5t-37.5 -90.5q0 -46 27.5 -79.5t68.5 -45.5v-99q0 -14 9 -23t23 -9zM896 800q-53 0 -90.5 -37.5t-37.5 -90.5q0 -17 5 -33.5t14 -30.5l-73 -74q-10 -9 -10 -22t10 -22q4 -5 10.5 -7.5t11.5 -2.5t11.5 2.5t10.5 7.5l74 73
q14 -9 30.5 -14t33.5 -5q53 0 90.5 37.5t37.5 90.5t-37.5 90.5t-90.5 37.5zM512 512q-79 0 -135.5 -56.5t-56.5 -135.5v-32q0 -79 56.5 -135.5t135.5 -56.5t135.5 56.5t56.5 135.5v32q0 79 -56.5 135.5t-135.5 56.5zM512 32q-65 0 -120 30.5t-91 78.5l-93 -48
q-7 -5 -11.5 -12t-4.5 -17v-96q0 -14 9 -23t23 -9h576q14 0 23 9t9 23v96q0 10 -4.5 17t-11.5 12l-93 48q-36 -48 -91 -78.5t-120 -30.5z" />
    <glyph glyph-name="uniE647" unicode="&#xe647;" 
d="M864 704v32q0 79 -56.5 135.5t-135.5 56.5t-135.5 -56.5t-56.5 -135.5v-32q0 -58 30.5 -103.5t78.5 -69.5v0l-58 -35q7 -19 10 -38.5t3 -41.5v-32q0 -43 -14 -84.5t-40 -75.5l60 -51q29 -24 43.5 -56.5t14.5 -68.5v-80h384v362q0 24 -11.5 46t-33.5 34l-192 118
q48 26 78.5 72t30.5 104v0zM67 125q-17 -15 -26 -33.5t-9 -40.5v-83h512v83q0 22 -9 40.5t-26 33.5l-119 96q41 26 65.5 69.5t24.5 93.5v32q0 79 -56.5 135.5t-135.5 56.5t-135.5 -56.5t-56.5 -135.5v-32q0 -50 24.5 -93.5t65.5 -69.5v0l-119 -96v0z" />
    <glyph glyph-name="uniE648" unicode="&#xe648;" 
d="M512 352q53 0 99.5 20t81.5 55t55 81.5t20 99.5v64q0 53 -20 99.5t-55 81.5t-81.5 55t-99.5 20t-99.5 -20t-81.5 -55t-55 -81.5t-20 -99.5v-64q0 -53 20 -99.5t55 -81.5t81.5 -55t99.5 -20zM64 -32h896q14 0 23 9t9 23q0 60 -22.5 112.5t-61.5 91.5t-91.5 61.5
t-112.5 22.5h-384q-60 0 -112.5 -22.5t-91.5 -61.5t-61.5 -91.5t-22.5 -112.5q0 -14 9 -23t23 -9z" />
    <glyph glyph-name="uniE649" unicode="&#xe649;" 
d="M512 352q53 0 99.5 20t81.5 55t55 81.5t20 99.5v64q0 53 -20 99.5t-55 81.5t-81.5 55t-99.5 20t-99.5 -20t-81.5 -55t-55 -81.5t-20 -99.5v-64q0 -53 20 -99.5t55 -81.5t81.5 -55t99.5 -20zM160 -32h704q14 0 23 9t9 23v64q0 47 -17.5 87.5t-47.5 71t-71 48t-88 17.5
h-320q-47 0 -87.5 -17.5t-71 -48t-48 -71t-17.5 -87.5v-64q0 -14 9 -23t23 -9z" />
    <glyph glyph-name="uniE64A" unicode="&#xe64a;" 
d="M512 288q53 0 99.5 20t81.5 55t55 81.5t20 99.5v128q0 53 -20 99.5t-55 81.5t-81.5 55t-99.5 20t-99.5 -20t-81.5 -55t-55 -81.5t-20 -99.5v-128q0 -53 20 -99.5t55 -81.5t81.5 -55t99.5 -20zM67 -32h893q14 0 24 10.5t8 24.5q-6 55 -28 104.5t-56.5 89.5t-80 68.5
t-97.5 41.5q-44 -38 -100 -60.5t-118 -22.5t-118 22.5t-96 60.5q-53 -13 -98.5 -41.5t-80 -68.5t-56.5 -89.5t-28 -104.5q-2 -14 8 -24.5t24 -10.5v0z" />
    <glyph glyph-name="uniE64B" unicode="&#xe64b;" 
d="M512 352q53 0 99.5 20t81.5 55t55 81.5t20 99.5v96q0 53 -20 99.5t-55 81.5t-81.5 55t-99.5 20t-99.5 -20t-81.5 -55t-55 -81.5t-20 -99.5v-96q0 -53 20 -99.5t55 -81.5t81.5 -55t99.5 -20zM64 -64h896q14 0 23 9t9 23q0 73 -20 122t-54 81.5t-78.5 52.5t-93.5 35
q-29 10 -48.5 28t-31.5 39q-34 -19 -73.5 -28.5t-80.5 -9.5t-80.5 9.5t-73.5 28.5q-12 -21 -31.5 -39t-48.5 -28q-49 -15 -93.5 -35t-78.5 -52.5t-54 -81.5t-20 -122q0 -14 9 -23t23 -9v0z" />
    <glyph glyph-name="uniE64C" unicode="&#xe64c;" 
d="M512 288q53 0 99.5 20t81.5 55t55 81.5t20 99.5v128q0 53 -20 99.5t-55 81.5t-81.5 55t-99.5 20t-99.5 -20t-81.5 -55t-55 -81.5t-20 -99.5v-128q0 -53 20 -99.5t55 -81.5t81.5 -55t99.5 -20zM96 -32h832q14 0 23 9t9 23v83q0 36 -18 65.5t-49 46.5l-179 99
q-41 -33 -92.5 -51.5t-109.5 -18.5t-109.5 18.5t-92.5 51.5l-179 -99q-31 -17 -49 -46.5t-18 -65.5v-83q0 -14 9 -23t23 -9v0z" />
    <glyph glyph-name="uniE64D" unicode="&#xe64d;" 
d="M384 211v-243q0 -14 9 -23t23 -9h192q14 0 23 9t9 23v243l86 87q5 4 7.5 9.5t2.5 12.5v224q0 14 -9 23t-23 9h-384q-14 0 -23 -9t-9 -23v-224q0 -7 2.5 -12.5t7.5 -9.5zM512 640q67 0 113.5 46.5t46.5 113.5t-46.5 113.5t-113.5 46.5t-113.5 -46.5t-46.5 -113.5
t46.5 -113.5t113.5 -46.5z" />
    <glyph glyph-name="uniE64E" unicode="&#xe64e;" 
d="M384 339v-243q0 -14 9 -23t23 -9h192q14 0 23 9t9 23v243l86 87q5 4 7.5 9.5t2.5 12.5v128q0 14 -9 23t-23 9h-384q-14 0 -23 -9t-9 -23v-128q0 -7 2.5 -12.5t7.5 -9.5zM512 640q67 0 113.5 46.5t46.5 113.5t-46.5 113.5t-113.5 46.5t-113.5 -46.5t-46.5 -113.5
t46.5 -113.5t113.5 -46.5zM512 -64q67 0 150.5 6.5t156.5 22.5t123 44t50 71q0 31 -28 53.5t-70.5 38.5t-93 26t-96.5 16v-64q110 -14 164.5 -34.5t59.5 -32.5q-4 -11 -33 -24.5t-82.5 -26t-129 -21t-171.5 -8.5t-171.5 8t-128.5 19.5t-82.5 25t-33.5 24.5q5 12 59.5 34
t164.5 36v64q-46 -4 -96.5 -13.5t-93 -25.5t-70.5 -39.5t-28 -55.5q0 -43 50 -71t123 -44t156.5 -22.5t150.5 -6.5z" />
    <glyph glyph-name="uniE64F" unicode="&#xe64f;" 
d="M512 256q79 0 135.5 56.5t56.5 135.5v96q0 79 -56.5 135.5t-135.5 56.5t-135.5 -56.5t-56.5 -135.5v-96q0 -79 56.5 -135.5t135.5 -56.5zM992 960h-960q-14 0 -23 -9t-9 -23v-960q0 -14 9 -23t23 -9h960q14 0 23 9t9 23v960q0 14 -9 23t-23 9zM960 0h-67q-6 41 -25.5 76
t-49 61t-67 40.5t-79.5 14.5h-320q-42 0 -79.5 -14.5t-67 -40.5t-49 -61t-25.5 -76h-67v896h896v-896z" />
    <glyph glyph-name="uniE650" unicode="&#xe650;" 
d="M992 960h-960q-14 0 -23 -9t-9 -23v-960q0 -14 9 -23t23 -9h960q14 0 23 9t9 23v960q0 14 -9 23t-23 9zM960 0h-96v35q-5 89 -57 120t-109 50l-23 6q-26 10 -41 31t-20 43q41 26 65.5 68t24.5 95v64q0 79 -56.5 135.5t-135.5 56.5t-135.5 -56.5t-56.5 -135.5v-64
q0 -53 25 -95t68 -68q-7 -24 -21 -45.5t-40 -28.5l-22 -6q-60 -19 -111 -50t-56 -120v-32h-99v893h896v-896v0z" />
    <glyph glyph-name="uniE651" unicode="&#xe651;" 
d="M512 256q79 0 135.5 56.5t56.5 135.5v96q0 79 -56.5 135.5t-135.5 56.5t-135.5 -56.5t-56.5 -135.5v-96q0 -79 56.5 -135.5t135.5 -56.5zM992 960h-960q-14 0 -23 -9t-9 -23v-960q0 -14 9 -23t23 -9h960q14 0 23 9t9 23v960q0 14 -9 23t-23 9zM960 0h-96v115
q0 46 -23 84.5t-63 59.5l-64 32q-36 -43 -88 -69.5t-114 -26.5t-114 26.5t-88 69.5l-64 -32q-40 -24 -63 -62.5t-23 -81.5v-115h-96v896h896v-896z" />
    <glyph glyph-name="uniE652" unicode="&#xe652;" 
d="M896 576q0 79 -30.5 149t-82.5 122t-122 82.5t-149 30.5t-149 -30.5t-122 -82.5t-82.5 -122t-30.5 -149q0 -76 27.5 -142.5t75 -118t112 -84t137.5 -39.5v-64h-96q-14 0 -23 -9t-9 -23t9 -23t23 -9h96v-96q0 -14 9 -23t23 -9t23 9t9 23v96h96q14 0 23 9t9 23t-9 23t-23 9
h-96v64q73 7 137 39.5t112 84t75.5 118t27.5 142.5zM512 256q-66 0 -124 25t-101.5 68.5t-69 102t-25.5 124.5t25 124t68.5 101.5t102 69t124.5 25.5t124 -25t101.5 -68.5t69 -102t25.5 -124.5t-25 -124t-68.5 -101.5t-102 -69t-124.5 -25.5z" />
    <glyph glyph-name="uniE653" unicode="&#xe653;" 
d="M579 717q5 9 12 14t17 5t17 -5t12 -14q14 -29 48.5 -57t82.5 -42v44q0 52 -18 98.5t-50 82.5t-76 58.5t-96 26.5q-55 4 -104.5 -15t-86.5 -54t-59 -83.5t-22 -103.5v-22q29 -22 65.5 -32t62.5 -10q67 0 119 29t76 80v0zM893 195l-3 3q24 22 40.5 50.5t26.5 61.5
q2 12 -4 23t-15 16q-65 21 -110.5 79t-53.5 122q-50 12 -91.5 37t-68.5 56q-36 -48 -95 -73.5t-129 -25.5q-24 0 -59 7.5t-69 24.5v-32q0 -67 33 -124t86 -90q29 -20 64 -31t73 -11q39 0 74 11t64 31v0l61 -36q-43 -33 -95 -51.5t-110 -18.5t-109.5 18.5t-92.5 51.5
l-179 -99q-31 -17 -49 -46.5t-18 -65.5v-83q0 -14 9 -23t23 -9h832q14 0 23 9t9 23v83q0 36 -18 65.5t-49 46.5v0z" />
    <glyph glyph-name="uniE654" unicode="&#xe654;" 
d="M579 717q5 9 12 14t17 5t17 -5t12 -14q14 -29 48.5 -57t82.5 -42v54q0 53 -20 99.5t-55 81.5t-81.5 55t-99.5 20t-99.5 -20t-81.5 -55t-55 -81.5t-20 -99.5v-22q29 -22 65.5 -32t62.5 -10q67 0 119 29t76 80zM893 195l-3 3q24 22 40.5 50.5t26.5 61.5q2 12 -4 23t-15 16
q-68 21 -112.5 79t-54.5 122q-50 12 -91.5 37t-68.5 56q-36 -48 -95 -73.5t-129 -25.5q-24 0 -59 7.5t-69 24.5v0q0 -36 -12.5 -71.5t-34.5 -66t-52.5 -54t-66.5 -35.5q-12 -5 -18 -16t-1 -23q7 -33 23.5 -61.5t43.5 -50.5v0l-3 -3q-32 -17 -50 -46.5t-18 -65.5v-83
q0 -14 9 -23t23 -9h832q15 0 23.5 9t8.5 23v83q-4 36 -23 65.5t-50 46.5v0zM512 224q-58 0 -109.5 18.5t-92.5 51.5l61 36q29 -20 64 -31t74 -11q38 0 73.5 11t63.5 31v0l61 -36q-36 -33 -86.5 -51.5t-108.5 -18.5v0z" />
    <glyph glyph-name="uniE655" unicode="&#xe655;" 
d="M442 755l54 -83h272q0 53 -20 99.5t-55 81.5t-81.5 55t-99.5 20t-99.5 -20t-81.5 -55t-55 -81.5t-20 -99.5h80l54 83q8 12 26 12t26 -12v0zM893 195l-3 3q24 22 40.5 50.5t26.5 61.5q2 12 -4 23t-15 16q-36 12 -66.5 35.5t-53 54t-35 66t-12.5 71.5v32h-288q-7 0 -14 4
t-11 9l-42 57l-38 -57q-5 -5 -12 -9t-14 -4h-96v-64q0 -67 33 -124t85 -90q29 -20 64.5 -31t73.5 -11t73.5 11t64.5 31v0l60 -36q-38 -33 -89 -51.5t-109 -18.5t-109.5 18.5t-92.5 51.5l-179 -99q-31 -17 -49 -46.5t-18 -65.5v-83q0 -14 9 -23t23 -9h832q14 0 23 9t9 23v83
q0 36 -18 65.5t-49 46.5v0z" />
    <glyph glyph-name="uniE656" unicode="&#xe656;" 
d="M442 755l54 -83h272q0 53 -20 99.5t-55 81.5t-81.5 55t-99.5 20t-99.5 -20t-81.5 -55t-55 -81.5t-20 -99.5h80l54 83q8 12 26 12t26 -12v0zM893 195l-3 3q24 22 40.5 50.5t26.5 61.5q2 12 -4 23t-15 16q-36 12 -66.5 35.5t-53 54t-35 66t-12.5 71.5v32h-288q-7 0 -14 4
t-11 9l-42 57l-38 -57q-5 -5 -12 -9t-14 -4h-96v-32q0 -36 -12.5 -71.5t-34.5 -66t-52.5 -54t-66.5 -35.5q-12 -5 -18 -16t-2 -23q8 -33 24.5 -61.5t43.5 -50.5v0l-4 -3q-31 -17 -49 -46.5t-18 -65.5v-83q0 -14 9 -23t23 -9h832q15 0 23.5 9t8.5 23v83q-2 36 -20.5 65.5
t-49.5 46.5zM512 224q-58 0 -109.5 18.5t-92.5 51.5l61 36q29 -20 64 -31t74 -11q38 0 73.5 11t63.5 31v0l61 -36q-36 -33 -86.5 -51.5t-108.5 -18.5v0z" />
    <glyph glyph-name="uniE657" unicode="&#xe657;" 
d="M1005 957q-3 2 -7 2.5t-6 0.5h-160q-14 0 -23 -9t-9 -23t9 -23t23 -9h83l-128 -128q-36 29 -82.5 46.5t-96.5 17.5q-43 0 -84.5 -13t-75.5 -35q-34 22 -75.5 35t-84.5 13q-60 0 -112.5 -22.5t-91.5 -61.5t-61.5 -91.5t-22.5 -112.5q0 -55 19.5 -104t54 -87.5t81.5 -63
t101 -30.5v-131h-64q-14 0 -23 -9t-9 -23t9 -23t23 -9h64v-64q0 -14 9 -23t23 -9t23 9t9 23v64h64q14 0 23 9t9 23t-9 23t-23 9h-64v131q36 5 67.5 17t60.5 31q34 -24 75.5 -36t84.5 -12q60 0 112.5 22.5t91.5 61.5t61.5 91.5t22.5 112.5q0 51 -16.5 97t-47.5 82l128 128
v-86q0 -14 9 -23t23 -9t23 9t9 23v160q0 2 -0.5 6t-2.5 7q-3 5 -7 9t-9 7v0zM448 387q-29 31 -46.5 71t-17.5 86t17.5 86t46.5 71q29 -31 46.5 -71t17.5 -86t-17.5 -86t-46.5 -71zM288 320q-47 0 -87.5 17.5t-71 47.5t-48 71t-17.5 88t17.5 87.5t47.5 71t71 48t88 17.5
q29 0 57 -7t52 -22q-36 -38 -56.5 -87.5t-20.5 -107.5t20.5 -107.5t56.5 -87.5q-24 -15 -52 -22t-57 -7zM608 320q-29 0 -57 7t-52 22q36 38 56.5 89t20.5 106q0 58 -20.5 107.5t-56.5 87.5q24 15 52 22t57 7q47 0 87.5 -17.5t71 -47.5t48 -71t17.5 -88t-17.5 -87.5
t-47.5 -71t-71 -48t-88 -17.5z" />
    <glyph glyph-name="uniE658" unicode="&#xe658;" 
d="M992 960h-960q-14 0 -23 -9t-9 -23v-448h237l118 237q7 17 27.5 17t30.5 -17l227 -455l99 199q5 7 12 13t17 6h256v448q0 14 -9 23t-23 9zM669 179q-5 -9 -12 -14t-17 -5t-17 5t-12 14l-227 455l-99 -199q-5 -9 -12 -14t-17 -5h-256v-448q0 -14 9 -23t23 -9h960
q14 0 23 9t9 23v448h-237l-118 -237v0z" />
    <glyph glyph-name="uniE659" unicode="&#xe659;" 
d="M230 480l122 243q7 17 28.5 17t29.5 -17l233 -467l103 205q4 7 11.5 13t16.5 6h250q-7 101 -49.5 188.5t-111.5 152.5t-159 102t-192 37t-192 -37t-158.5 -102t-110.5 -152.5t-48 -188.5h227v0zM512 -64q102 0 192 37t158.5 102t110.5 152.5t48 188.5h-227l-122 -243
q-5 -7 -12 -13t-17 -6q-9 0 -16.5 4.5t-12.5 14.5l-233 467l-103 -205q-4 -9 -11.5 -14t-16.5 -5h-247q6 -101 48 -188.5t110.5 -152.5t158.5 -102t192 -37z" />
    <glyph glyph-name="uniE65A" unicode="&#xe65a;" 
d="M416 736q-14 0 -23 -9t-9 -23v-416q0 -53 37.5 -90.5t90.5 -37.5t90.5 37.5t37.5 90.5v432q0 43 -16.5 81t-44.5 66t-66 44.5t-81 16.5t-81 -16.5t-66 -44.5t-44.5 -66t-16.5 -81v-464q0 -60 22.5 -112.5t61.5 -91.5t91.5 -61.5t112.5 -22.5t112.5 22.5t91.5 61.5
t61.5 91.5t22.5 112.5v448q0 14 -9 23t-23 9t-23 -9t-9 -23v-448q0 -47 -17.5 -87.5t-47.5 -71t-71 -48t-88 -17.5t-87.5 17.5t-71 48t-48 71t-17.5 87.5v464q0 60 42 102t102 42t102 -42t42 -102v-432q0 -26 -19 -45t-45 -19t-45 19t-19 45v416q0 14 -9 23t-23 9z" />
    <glyph glyph-name="uniE65B" unicode="&#xe65b;" 
d="M662 659q10 10 10 22.5t-10 22.5q-9 10 -22 10t-22 -10l-295 -294q-19 -20 -28.5 -43.5t-9.5 -49.5q0 -27 9.5 -50t28.5 -40q36 -36 90 -36t93 36l304 304q30 30 45 68.5t15 79t-15 79t-45 68.5q-29 28 -68 44t-80 16q-40 0 -79 -16t-68 -44l-326 -327q-41 -41 -62 -94
t-21 -111q0 -57 21 -110.5t62 -93.5q43 -44 96 -64t109 -20q55 0 108 21.5t96 62.5l317 316q10 10 10 23t-10 22q-9 10 -22 10t-23 -10l-316 -317q-33 -32 -74.5 -48t-84.5 -16t-84.5 16t-73.5 48q-31 32 -49 73.5t-18 86.5q0 46 16.5 86t50.5 71l323 330q19 21 46.5 31
t55.5 10q29 0 55 -11t48 -30q43 -43 43 -102.5t-43 -102.5l-304 -304q-19 -19 -46 -19t-44 19q-9 10 -14 21.5t-5 23.5t5 23.5t14 21.5l291 297v0z" />
    <glyph glyph-name="uniE65C" unicode="&#xe65c;" 
d="M957 147q5 7 3 17.5t-6 17.5l-19 26t-42 68.5t-42 96.5t-19 110v128q0 66 -25.5 124.5t-69 102t-101.5 68.5t-124 25t-124.5 -25.5t-102 -69.5t-68.5 -103t-25 -125v-128q0 -56 -18.5 -110t-41 -96t-41.5 -68t-21 -27q-4 -7 -6 -16t3 -19q5 -7 12 -11.5t17 -4.5h832
q10 0 17 5t12 14v0zM512 -32q46 0 79.5 27.5t45.5 68.5h-247q10 -41 43 -68.5t79 -27.5z" />
    <glyph glyph-name="uniE65D" unicode="&#xe65d;" 
d="M864 371v205q0 73 -27.5 137t-75 112t-112 75.5t-137.5 27.5t-137 -27.5t-112 -75t-75.5 -112t-27.5 -137.5v-205q-72 -38 -116 -103.5t-44 -139.5v0v0v0v0q0 -44 50.5 -74.5t127 -49.5t166.5 -27.5t168 -8.5t167.5 8.5t166 27.5t127.5 49.5t51 74.5v0v0v0v0
q0 74 -44 139.5t-116 103.5zM512 32q-108 0 -191 11t-139.5 26.5t-86.5 31.5t-31 27q0 8 19 20.5t56 25.5t91 24.5t125 19.5q12 -53 55.5 -87.5t98.5 -34.5t98 34.5t55 87.5q71 -8 125.5 -19.5t91.5 -24.5t56 -25.5t19 -20.5q1 -11 -27.5 -27t-84.5 -31.5t-139 -26.5
t-191 -11v0z" />
    <glyph glyph-name="uniE65E" unicode="&#xe65e;" 
d="M947 230q0 63 -57.5 102.5t-57.5 147.5v92v39q0 64 -26 121.5t-70 101t-102 69t-122 25.5t-121.5 -26t-102 -70t-70.5 -102t-26 -122v-37.5v-90.5q0 -108 -57.5 -149t-57.5 -101q0 -27 30.5 -51t87 -41.5t137 -28t180.5 -10.5t180 10.5t137 28t87.5 41.5t30.5 51v0z
M362 42q16 -46 56.5 -76t93.5 -30t93.5 30t56.5 76q-36 -3 -72.5 -5t-77.5 -2t-79 2t-71 5z" />
    <glyph glyph-name="uniE65F" unicode="&#xe65f;" 
d="M960 576h-320v320q0 14 -9 23t-23 9h-192q-14 0 -23 -9t-9 -23v-320h-320q-14 0 -23 -9t-9 -23v-192q0 -14 9 -23t23 -9h320v-320q0 -14 9 -23t23 -9h192q14 0 23 9t9 23v320h320q14 0 23 9t9 23v192q0 14 -9 23t-23 9z" />
    <glyph glyph-name="uniE660" unicode="&#xe660;" 
d="M960 576h-896q-14 0 -23 -9t-9 -23v-192q0 -14 9 -23t23 -9h896q14 0 23 9t9 23v192q0 14 -9 23t-23 9z" />
    <glyph glyph-name="uniE661" unicode="&#xe661;" 
d="M918 726l-128 128q-9 10 -22 10t-22 -10l-234 -233l-234 233q-9 10 -22 10t-22 -10l-128 -128q-10 -9 -10 -22t10 -22l233 -234l-233 -234q-10 -9 -10 -22t10 -22l128 -128q9 -10 22 -10t22 10l234 233l234 -233q4 -5 10.5 -7.5t11.5 -2.5t11.5 2.5t10.5 7.5l128 128
q10 9 10 22t-10 22l-233 234l233 234q10 9 10 22t-10 22v0z" />
    <glyph glyph-name="uniE662" unicode="&#xe662;" 
d="M80 3q7 -5 16 -5t16 5l304 183l304 -183q2 -2 6.5 -2.5t9.5 -0.5t8 0.5t8 2.5q7 5 11.5 12t4.5 17v163q41 6 76 25.5t61 49t40.5 67t14.5 79.5t-14.5 79.5t-40.5 67t-61 49t-76 25.5v291q0 14 -9 23t-23 9h-640q-14 0 -23 -9t-9 -23v-896q0 -10 4.5 -17t11.5 -12z
M736 576q67 0 113.5 -46.5t46.5 -113.5t-46.5 -113.5t-113.5 -46.5t-113.5 46.5t-46.5 113.5t46.5 113.5t113.5 46.5zM672 384h32v-32q0 -14 9 -23t23 -9t23 9t9 23v32h32q14 0 23 9t9 23t-9 23t-23 9h-32v32q0 14 -9 23t-23 9t-23 -9t-9 -23v-32h-32q-14 0 -23 -9t-9 -23
t9 -23t23 -9z" />
    <glyph glyph-name="uniE663" unicode="&#xe663;" 
d="M736 960h-640q-14 0 -23 -9t-9 -23v-896q0 -10 4.5 -17t11.5 -12t16 -5t16 5l304 183l304 -183q2 -2 6.5 -2.5t9.5 -0.5t8 0.5t8 2.5q7 5 11.5 12t4.5 17v163q41 6 76 25.5t61 49t40.5 67t14.5 79.5t-14.5 79.5t-40.5 67t-61 49t-76 25.5v291q0 14 -9 23t-23 9zM896 416
q0 -67 -46.5 -113.5t-113.5 -46.5t-113.5 46.5t-46.5 113.5t46.5 113.5t113.5 46.5t113.5 -46.5t46.5 -113.5zM640 416q0 -14 9 -23t23 -9h128q14 0 23 9t9 23t-9 23t-23 9h-128q-14 0 -23 -9t-9 -23z" />
    <glyph glyph-name="uniE664" unicode="&#xe664;" 
d="M992 864h-192v64q0 14 -9 23t-23 9t-23 -9t-9 -23v-64h-192v64q0 14 -9 23t-23 9t-23 -9t-9 -23v-64h-192v64q0 14 -9 23t-23 9t-23 -9t-9 -23v-64h-192q-14 0 -23 -9t-9 -23v-128h1024v128q0 14 -9 23t-23 9zM0 -32q0 -14 9 -23t23 -9h960q14 0 23 9t9 23v672h-1024
v-672z" />
    <glyph glyph-name="uniE665" unicode="&#xe665;" 
d="M992 864h-160v64q0 14 -9 23t-23 9h-96q-14 0 -23 -9t-9 -23v-64h-320v64q0 14 -9 23t-23 9h-96q-14 0 -23 -9t-9 -23v-64h-160q-14 0 -23 -9t-9 -23v-192h1024v192q0 14 -9 23t-23 9zM320 736h-96q-14 0 -23 9t-9 23t9 23t23 9h96q14 0 23 -9t9 -23t-9 -23t-23 -9z
M800 736h-96q-14 0 -23 9t-9 23t9 23t23 9h96q14 0 23 -9t9 -23t-9 -23t-23 -9zM0 -32q0 -14 9 -23t23 -9h960q14 0 23 9t9 23v608h-1024v-608z" />
    <glyph glyph-name="uniE666" unicode="&#xe666;" 
d="M992 864h-192v64q0 14 -9 23t-23 9t-23 -9t-9 -23v-64h-192v64q0 14 -9 23t-23 9t-23 -9t-9 -23v-64h-192v64q0 14 -9 23t-23 9t-23 -9t-9 -23v-64h-192q-14 0 -23 -9t-9 -23v-128h1024v128q0 14 -9 23t-23 9zM0 -32q0 -14 9 -23t23 -9h960q14 0 23 9t9 23v672h-1024
v-672zM298 310q9 10 22 10t22 -10l106 -105l234 233q9 10 22 10t22 -10q10 -9 10 -22t-10 -22l-256 -256q-4 -5 -9.5 -7.5t-12.5 -2.5t-12.5 2.5t-9.5 7.5l-128 128q-10 9 -10 22t10 22z" />
    <glyph glyph-name="uniE667" unicode="&#xe667;" 
d="M992 864h-160v64q0 14 -9 23t-23 9h-96q-14 0 -23 -9t-9 -23v-64h-320v64q0 14 -9 23t-23 9h-96q-14 0 -23 -9t-9 -23v-64h-160q-14 0 -23 -9t-9 -23v-192h1024v192q0 14 -9 23t-23 9zM320 736h-96q-14 0 -23 9t-9 23t9 23t23 9h96q14 0 23 -9t9 -23t-9 -23t-23 -9z
M800 736h-96q-14 0 -23 9t-9 23t9 23t23 9h96q14 0 23 -9t9 -23t-9 -23t-23 -9zM0 -32q0 -14 9 -23t23 -9h960q14 0 23 9t9 23v608h-1024v-608zM298 310q9 10 22 10t22 -10l106 -105l234 233q9 10 22 10t22 -10q10 -9 10 -22t-10 -22l-256 -256q-4 -5 -9.5 -7.5t-12.5 -2.5
t-12.5 2.5t-9.5 7.5l-128 128q-10 9 -10 22t10 22z" />
    <glyph glyph-name="uniE668" unicode="&#xe668;" 
d="M992 864h-192v64q0 14 -9 23t-23 9t-23 -9t-9 -23v-64h-192v64q0 14 -9 23t-23 9t-23 -9t-9 -23v-64h-192v64q0 14 -9 23t-23 9t-23 -9t-9 -23v-64h-192q-14 0 -23 -9t-9 -23v-128h1024v128q0 14 -9 23t-23 9zM0 -32q0 -14 9 -23t23 -9h960q14 0 23 9t9 23v672h-1024
v-672zM672 448q0 14 9 23t23 9h128q14 0 23 -9t9 -23v-96q0 -14 -9 -23t-23 -9h-128q-14 0 -23 9t-9 23v96zM416 448q0 14 9 23t23 9h128q14 0 23 -9t9 -23v-96q0 -14 -9 -23t-23 -9h-128q-14 0 -23 9t-9 23v96zM416 224q0 14 9 23t23 9h128q14 0 23 -9t9 -23v-96
q0 -14 -9 -23t-23 -9h-128q-14 0 -23 9t-9 23v96zM160 448q0 14 9 23t23 9h128q14 0 23 -9t9 -23v-96q0 -14 -9 -23t-23 -9h-128q-14 0 -23 9t-9 23v96zM160 224q0 14 9 23t23 9h128q14 0 23 -9t9 -23v-96q0 -14 -9 -23t-23 -9h-128q-14 0 -23 9t-9 23v96z" />
    <glyph glyph-name="uniE669" unicode="&#xe669;" 
d="M992 864h-160v64q0 14 -9 23t-23 9h-96q-14 0 -23 -9t-9 -23v-64h-320v64q0 14 -9 23t-23 9h-96q-14 0 -23 -9t-9 -23v-64h-160q-14 0 -23 -9t-9 -23v-192h1024v192q0 14 -9 23t-23 9zM320 736h-96q-14 0 -23 9t-9 23t9 23t23 9h96q14 0 23 -9t9 -23t-9 -23t-23 -9z
M800 736h-96q-14 0 -23 9t-9 23t9 23t23 9h96q14 0 23 -9t9 -23t-9 -23t-23 -9zM0 -32q0 -14 9 -23t23 -9h960q14 0 23 9t9 23v608h-1024v-608zM672 416q0 14 9 23t23 9h128q14 0 23 -9t9 -23v-96q0 -14 -9 -23t-23 -9h-128q-14 0 -23 9t-9 23v96zM416 416q0 14 9 23t23 9
h128q14 0 23 -9t9 -23v-96q0 -14 -9 -23t-23 -9h-128q-14 0 -23 9t-9 23v96zM416 192q0 14 9 23t23 9h128q14 0 23 -9t9 -23v-96q0 -14 -9 -23t-23 -9h-128q-14 0 -23 9t-9 23v96zM160 416q0 14 9 23t23 9h128q14 0 23 -9t9 -23v-96q0 -14 -9 -23t-23 -9h-128q-14 0 -23 9
t-9 23v96zM160 192q0 14 9 23t23 9h128q14 0 23 -9t9 -23v-96q0 -14 -9 -23t-23 -9h-128q-14 0 -23 9t-9 23v96z" />
    <glyph glyph-name="uniE66A" unicode="&#xe66a;" 
d="M384 96v0v0q7 0 12.5 2.5t9.5 7.5l576 608q5 4 7.5 11t2.5 14t-4 13.5t-9 9.5l-96 64q-9 4 -19 4t-19 -8l-461 -364l-205 147q-9 7 -20.5 5.5t-20.5 -8.5l-96 -96q-10 -10 -10 -23t10 -22l320 -352q2 -7 8.5 -10t13.5 -3z" />
    <glyph glyph-name="uniE66B" unicode="&#xe66b;" 
d="M480 -32q92 0 173.5 35.5t142.5 96t96.5 142.5t35.5 174q0 46 -9 89t-26 84q-5 12 -17.5 16.5t-24.5 -0.5t-17.5 -17.5t1.5 -24.5q15 -36 22 -72.5t7 -74.5q0 -79 -30.5 -149t-82.5 -122t-122 -82.5t-149 -30.5t-149 30.5t-122 82.5t-82.5 122t-30.5 149t30.5 149
t82.5 122t122 82.5t149 30.5q55 0 107 -14.5t98 -43.5q12 -7 24.5 -4.5t20.5 14.5q7 12 4.5 25t-14.5 20q-55 33 -115 50t-125 17q-92 0 -174 -35.5t-142.5 -96t-96 -142.5t-35.5 -174t35.5 -174t96 -142.5t142.5 -96t174 -35.5v0zM342 566q-9 10 -22 10t-22 -10
q-10 -9 -10 -22t10 -22l160 -160q4 -5 10.5 -7.5t11.5 -2.5t11.5 2.5t10.5 7.5l480 480q10 9 10 22t-10 22q-9 10 -22 10t-22 -10l-458 -457l-138 137v0z" />
    <glyph glyph-name="uniE66C" unicode="&#xe66c;" 
d="M512 960q-106 0 -199 -40.5t-162.5 -110t-110 -162.5t-40.5 -199t40.5 -199t110 -162.5t162.5 -110t199 -40.5t199 40.5t162.5 110t110 162.5t40.5 199t-40.5 199t-110 162.5t-162.5 110t-199 40.5zM758 586l-320 -320q-4 -5 -9.5 -7.5t-12.5 -2.5t-12.5 2.5t-9.5 7.5
l-128 128q-10 9 -10 22t10 22q9 10 22 10t22 -10l106 -105l298 297q9 10 22 10t22 -10q10 -9 10 -22t-10 -22v0z" />
    <glyph glyph-name="uniE66D" unicode="&#xe66d;" 
d="M330 74q4 -5 10.5 -7.5t11.5 -2.5h1.5h1.5q7 0 14 4.5t12 11.5q93 146 197.5 257.5t192.5 186.5t146 113t59 38q10 5 14 16t-1 23l-32 96q-3 7 -7.5 11.5t-11.5 7.5q-8 2 -14.5 2t-11.5 -2q-106 -54 -198.5 -115.5t-166.5 -117.5t-125.5 -102l-75.5 -68l-170 115
q-10 7 -21 5.5t-21 -8.5l-96 -96q-9 -10 -9 -23t9 -22l292 -323v0z" />
    <glyph glyph-name="uniE66E" unicode="&#xe66e;" 
d="M362 74q4 -5 10.5 -7.5t11.5 -2.5t11.5 2.5t10.5 7.5l576 576q10 9 10 22t-10 22l-128 128q-9 10 -22 10t-22 -10l-426 -425l-170 169q-9 10 -22 10t-22 -10l-128 -128q-10 -9 -10 -22t10 -22z" />
    <glyph glyph-name="uniE66F" unicode="&#xe66f;" 
d="M394 266q4 -5 10.5 -7.5t11.5 -2.5t11.5 2.5t10.5 7.5l320 320q10 9 10 22t-10 22q-9 10 -22 10t-22 -10l-298 -297l-106 105q-9 10 -22 10t-22 -10q-10 -9 -10 -22t10 -22l128 -128v0z" />
    <glyph glyph-name="uniE670" unicode="&#xe670;" 
d="M992 960h-960q-14 0 -23 -9t-9 -23v-960q0 -14 9 -23t23 -9h960q14 0 23 9t9 23v960q0 14 -9 23t-23 9zM758 586l-320 -320q-4 -5 -9.5 -7.5t-12.5 -2.5t-12.5 2.5t-9.5 7.5l-128 128q-10 9 -10 22t10 22q9 10 22 10t22 -10l106 -105l298 297q9 10 22 10t22 -10
q10 -9 10 -22t-10 -22v0z" />
    <glyph glyph-name="uniE671" unicode="&#xe671;" 
d="M342 566q-9 10 -22 10t-22 -10q-10 -9 -10 -22t10 -22l160 -160q4 -5 10.5 -7.5t11.5 -2.5t11.5 2.5t10.5 7.5l480 480q10 9 10 22t-10 22q-9 10 -22 10t-22 -10l-458 -457l-138 137v0zM64 -32h832q14 0 23 9t9 23v512q0 14 -9 23t-23 9t-23 -9t-9 -23v-480h-768v768h544
q14 0 23 9t9 23t-9 23t-23 9h-576q-14 0 -23 -9t-9 -23v-832q0 -14 9 -23t23 -9z" />
    <glyph glyph-name="uniE672" unicode="&#xe672;" 
d="M362 138q4 -5 10.5 -7.5t11.5 -2.5t11.5 2.5t10.5 7.5l576 576q10 9 10 22t-10 22q-9 10 -22 10t-22 -10l-554 -553l-298 297q-9 10 -22 10t-22 -10q-10 -9 -10 -22t10 -22l320 -320v0z" />
    <glyph glyph-name="uniE673" unicode="&#xe673;" 
d="M512 960q-106 0 -199 -40.5t-162.5 -110t-110 -162.5t-40.5 -199t40.5 -199t110 -162.5t162.5 -110t199 -40.5t199 40.5t162.5 110t110 162.5t40.5 199t-40.5 199t-110 162.5t-162.5 110t-199 40.5zM736 416h-192v-192q0 -14 -9 -23t-23 -9t-23 9t-9 23v192h-192
q-14 0 -23 9t-9 23t9 23t23 9h192v192q0 14 9 23t23 9t23 -9t9 -23v-192h192q14 0 23 -9t9 -23t-9 -23t-23 -9z" />
    <glyph glyph-name="uniE674" unicode="&#xe674;" 
d="M512 960q-106 0 -199 -40.5t-162.5 -110t-110 -162.5t-40.5 -199t40.5 -199t110 -162.5t162.5 -110t199 -40.5t199 40.5t162.5 110t110 162.5t40.5 199t-40.5 199t-110 162.5t-162.5 110t-199 40.5zM800 416q0 -14 -9 -23t-23 -9h-192v-192q0 -14 -9 -23t-23 -9h-64
q-14 0 -23 9t-9 23v192h-192q-14 0 -23 9t-9 23v64q0 14 9 23t23 9h192v192q0 14 9 23t23 9h64q14 0 23 -9t9 -23v-192h192q14 0 23 -9t9 -23v-64z" />
    <glyph glyph-name="uniE675" unicode="&#xe675;" 
d="M512 960q-106 0 -199 -40.5t-162.5 -110t-110 -162.5t-40.5 -199t40.5 -199t110 -162.5t162.5 -110t199 -40.5t199 40.5t162.5 110t110 162.5t40.5 199t-40.5 199t-110 162.5t-162.5 110t-199 40.5zM739 314q10 -10 10 -23t-10 -22l-45 -45q-9 -10 -22 -10t-22 10
l-138 134l-134 -134q-10 -10 -23 -10t-22 10l-45 45q-10 9 -10 22t10 23l134 134l-134 134q-10 10 -10 23t10 22l45 45q9 10 22 10t23 -10l134 -134l134 134q10 10 23 10t22 -10l45 -45q10 -9 10 -22t-10 -23l-134 -134z" />
    <glyph glyph-name="uniE676" unicode="&#xe676;" 
d="M512 960q-106 0 -199 -40.5t-162.5 -110t-110 -162.5t-40.5 -199t40.5 -199t110 -162.5t162.5 -110t199 -40.5t199 40.5t162.5 110t110 162.5t40.5 199t-40.5 199t-110 162.5t-162.5 110t-199 40.5zM736 416h-448q-14 0 -23 9t-9 23t9 23t23 9h448q14 0 23 -9t9 -23
t-9 -23t-23 -9z" />
    <glyph glyph-name="uniE677" unicode="&#xe677;" 
d="M512 960q-106 0 -199 -40.5t-162.5 -110t-110 -162.5t-40.5 -199t40.5 -199t110 -162.5t162.5 -110t199 -40.5t199 40.5t162.5 110t110 162.5t40.5 199t-40.5 199t-110 162.5t-162.5 110t-199 40.5zM726 278q10 -9 10 -22t-10 -22q-4 -5 -9.5 -7.5t-12.5 -2.5t-12.5 2.5
t-9.5 7.5l-170 169l-170 -169q-4 -5 -9.5 -7.5t-12.5 -2.5t-12.5 2.5t-9.5 7.5q-10 9 -10 22t10 22l169 170l-169 170q-10 9 -10 22t10 22q9 10 22 10t22 -10l170 -169l170 169q9 10 22 10t22 -10q10 -9 10 -22t-10 -22l-169 -170l169 -170v0z" />
    <glyph glyph-name="uniE678" unicode="&#xe678;" 
d="M512 960q-106 0 -199 -40.5t-162.5 -110t-110 -162.5t-40.5 -199t40.5 -199t110 -162.5t162.5 -110t199 -40.5t199 40.5t162.5 110t110 162.5t40.5 199t-40.5 199t-110 162.5t-162.5 110t-199 40.5zM243 563q-12 -26 -17 -56t-5 -59q0 -14 -9 -23t-23 -9q-15 0 -23.5 9
t-8.5 23q0 36 7 71.5t22 69.5q4 12 16.5 16.5t24.5 -0.5q10 -5 15.5 -17.5t0.5 -24.5zM512 320q-53 0 -90.5 37.5t-37.5 90.5q0 17 5 33.5t14 30.5l-157 157q-9 9 -9 22t9 23q10 9 23 9t22 -9l157 -157q14 9 30.5 14t33.5 5q53 0 90.5 -37.5t37.5 -90.5t-37.5 -90.5
t-90.5 -37.5zM838 416q-14 0 -23 9t-9 23q0 61 -23 115t-62.5 93.5t-93.5 62.5t-115 23q-31 0 -60 -5t-55 -17q-12 -5 -24.5 -0.5t-17.5 16.5t-0.5 24.5t16.5 17.5q34 14 69.5 21t71.5 7q74 0 139.5 -28t114 -76.5t76.5 -114t28 -139.5q0 -14 -10 -23t-22 -9z" />
    <glyph glyph-name="uniE679" unicode="&#xe679;" 
d="M512 -64q106 0 199 40.5t162.5 110t110 162.5t40.5 199t-40.5 199t-110 162.5t-162.5 110t-199 40.5t-199 -40.5t-162.5 -110t-110 -162.5t-40.5 -199t40.5 -199t110 -162.5t162.5 -110t199 -40.5zM896 480q14 0 23 -9t9 -23t-9 -23t-23 -9h-96q-14 0 -23 9t-9 23t9 23
t23 9h96zM694 675l68 67q9 10 22 10t22 -10q10 -9 10 -22t-10 -22l-67 -68q-5 -4 -11 -6.5t-11 -2.5t-11.5 2.5t-11.5 6.5q-9 8 -9 22t9 23zM480 832q0 14 9 23t23 9t23 -9t9 -23v-96q0 -14 -9 -23t-23 -9t-23 9t-9 23v96zM234 726q9 10 22 10t22 -10l170 -169q14 9 30.5 14
t33.5 5q53 0 90.5 -37.5t37.5 -90.5t-37.5 -90.5t-90.5 -37.5t-90.5 37.5t-37.5 90.5q0 17 5 33.5t14 30.5l-169 170q-10 9 -10 22t10 22v0zM96 448q0 14 9 23t23 9h96q14 0 23 -9t9 -23t-9 -23t-23 -9h-96q-14 0 -23 9t-9 23z" />
    <glyph glyph-name="uniE67A" unicode="&#xe67a;" 
d="M512 736q-106 0 -199 -40.5t-162.5 -110t-110 -162.5t-40.5 -199q0 -14 9 -23t23 -9h451l-189 269q-7 12 -5 24.5t12 20.5q12 7 24.5 5t20.5 -12l214 -307h432q14 0 23 9t9 23q0 106 -40.5 199t-110 162.5t-162.5 110t-199 40.5z" />
    <glyph glyph-name="uniE67B" unicode="&#xe67b;" 
d="M512 960q-106 0 -199 -40.5t-162.5 -110t-110 -162.5t-40.5 -199t40.5 -199t110 -162.5t162.5 -110t199 -40.5t199 40.5t162.5 110t110 162.5t40.5 199t-40.5 199t-110 162.5t-162.5 110t-199 40.5zM896 352q0 -14 -9 -23t-23 -9h-704q-14 0 -23 9t-9 23t9 23t23 9h294
l-192 304q-7 10 -4.5 22t14.5 20q10 7 22 4.5t20 -14.5l214 -336h336q14 0 23 -9t9 -23z" />
    <glyph glyph-name="uniE67C" unicode="&#xe67c;" 
d="M512 640q80 0 160 9.5t144 29.5t104 50t40 71t-40 71t-103.5 50t-144 29.5t-160.5 9.5t-160 -9.5t-144 -29.5t-104 -50t-40 -71t40 -71t103.5 -50t144 -29.5t160.5 -9.5zM512 288q80 0 160 9.5t144 29.5t104 50t40 71v230q-35 -27 -85 -46.5t-109 -32t-124 -18t-130 -5.5
t-130 5.5t-124 18t-109 32t-85 46.5v-230q0 -41 40 -71t103.5 -50t144 -29.5t160.5 -9.5zM512 -64q80 0 160 9.5t144 29.5t104 50t40 71v230q-35 -27 -85 -46.5t-109 -32t-124 -18t-130 -5.5t-130 5.5t-124 18t-109 32t-85 46.5v-230q0 -41 40 -71t103.5 -50t144 -29.5
t160.5 -9.5z" />
    <glyph glyph-name="uniE67D" unicode="&#xe67d;" 
d="M512 -64q71 0 139.5 26t123 75.5t88 121t33.5 161.5q0 88 -54 190t-120.5 191t-124 150t-63.5 67q-9 10 -22 10t-22 -10q-6 -6 -63.5 -67t-124 -150t-120.5 -191t-54 -190q0 -90 33.5 -161t87.5 -120.5t123 -76t140 -26.5v0zM384 352q14 0 23 -9t9 -23q0 -67 42 -81.5
t54 -14.5t22 -10t10 -22t-9 -22t-23 -10q-34 0 -97 31t-63 129q0 14 9 23t23 9z" />
    <glyph glyph-name="uniE67E" unicode="&#xe67e;" 
d="M758 918q-9 10 -22 10t-22 -10l-640 -640q-5 -4 -7.5 -9.5t-2.5 -12.5v-224q0 -14 9 -23t23 -9h224q7 0 12.5 2.5t9.5 7.5l640 640q10 9 10 22t-10 22l-224 224v0z" />
    <glyph glyph-name="uniE67F" unicode="&#xe67f;" 
d="M320 0q7 0 12.5 2.5t9.5 7.5l490 489l-269 269l-489 -490q-5 -4 -7.5 -9.5t-2.5 -12.5v-224q0 -14 9 -23t23 -9h224v0zM758 918q-9 10 -22 10t-22 -10l-106 -105l269 -269l105 106q10 9 10 22t-10 22l-224 224v0z" />
    <glyph glyph-name="uniE680" unicode="&#xe680;" 
d="M160 96h192q7 0 12.5 2.5t9.5 7.5l576 576q10 9 10 22t-10 22l-192 192q-9 10 -22 10t-22 -10l-576 -576q-5 -4 -7.5 -9.5t-2.5 -12.5v-192q0 -14 9 -23t23 -9v0zM160 -64h704q14 0 23 9t9 23t-9 23t-23 9h-704q-14 0 -23 -9t-9 -23t9 -23t23 -9z" />
    <glyph glyph-name="uniE681" unicode="&#xe681;" 
d="M160 -64h704q14 0 23 9t9 23t-9 23t-23 9h-704q-14 0 -23 -9t-9 -23t9 -23t23 -9zM950 726l-192 192q-9 10 -22 10t-22 -10l-74 -73l237 -237l73 74q10 9 10 22t-10 22v0zM160 96h192q7 0 12.5 2.5t9.5 7.5l458 457l-237 237l-457 -458q-5 -4 -7.5 -9.5t-2.5 -12.5v-192
q0 -14 9 -23t23 -9v0z" />
    <glyph glyph-name="uniE682" unicode="&#xe682;" 
d="M320 403v-115q0 -14 9 -23t23 -9h115q7 0 12.5 2.5t10.5 7.5l448 448q9 9 9 22t-9 22l-116 116q-9 9 -22 9t-22 -9l-448 -448q-5 -5 -7.5 -10.5t-2.5 -12.5v0zM32 -64h800q14 0 23 9t9 23v384q0 14 -9 23t-23 9t-23 -9t-9 -23v-352h-736v736h352q14 0 23 9t9 23t-9 23
t-23 9h-384q-14 0 -23 -9t-9 -23v-800q0 -14 9 -23t23 -9z" />
    <glyph glyph-name="uniE683" unicode="&#xe683;" 
d="M832 -64q14 0 23 9t9 23v384q0 14 -9 23t-23 9t-23 -9t-9 -23v-352h-736v736h352q14 0 23 9t9 23t-9 23t-23 9h-384q-14 0 -23 -9t-9 -23v-800q0 -14 9 -23t23 -9h800zM330 426q-5 -5 -7.5 -10.5t-2.5 -12.5v-115q0 -14 9 -23t23 -9h115q7 0 12.5 2.5t10.5 7.5l352 352
l-160 160l-352 -352v0zM938 714q9 9 9 22t-9 22l-116 116q-9 9 -22 9t-22 -9l-52 -52l160 -160l52 52v0z" />
    <glyph glyph-name="uniE684" unicode="&#xe684;" 
d="M864 -32v512q0 14 -9 23t-23 9t-23 -9t-9 -23v-480h-736v736h480q14 0 23 9t9 23t-9 23t-23 9h-512q-14 0 -23 -9t-9 -23v-800q0 -14 9 -23t23 -9h800q14 0 23 9t9 23zM906 886l-512 -512q-10 -9 -10 -22t10 -22q4 -5 10.5 -7.5t11.5 -2.5t11.5 2.5t10.5 7.5l512 512
q10 9 10 22t-10 22q-9 10 -22 10t-22 -10z" />
    <glyph glyph-name="uniE685" unicode="&#xe685;" 
d="M906 886l-512 -512q-10 -9 -10 -22t10 -22q4 -5 10.5 -7.5t11.5 -2.5t11.5 2.5t10.5 7.5l512 512q10 9 10 22t-10 22q-9 10 -22 10t-22 -10zM0 384q0 -92 35.5 -173.5t96 -142.5t142.5 -96.5t174 -35.5t173.5 35.5t142.5 96t96.5 142.5t35.5 174q0 46 -9 89t-26 84
q-5 12 -17.5 16.5t-24.5 -0.5t-17.5 -17.5t1.5 -24.5q15 -36 22 -72.5t7 -74.5q0 -79 -30.5 -149t-82.5 -122t-122 -82.5t-149 -30.5t-149 30.5t-122 82.5t-82.5 122t-30.5 149t30.5 149t82.5 122t122 82.5t149 30.5q38 0 76 -7t71 -22q12 -5 24.5 -0.5t17.5 16.5t0.5 24.5
t-16.5 17.5q-41 17 -84 26t-89 9q-92 0 -174 -35.5t-142.5 -96t-96 -142.5t-35.5 -174v0z" />
    <glyph glyph-name="uniE686" unicode="&#xe686;" 
d="M557 394q-10 -5 -21.5 -7.5t-23.5 -2.5t-23.5 3t-21.5 10l-467 246v-1.5v-1.5v-544q0 -14 9 -23t23 -9h960q14 0 23 9t9 23v544v1.5v1.5zM992 832h-960q-14 0 -23 -9t-9 -23v-64q0 -10 4.5 -17t11.5 -12l480 -256q5 -2 8 -2.5t8 -0.5t8 0.5t8 2.5l480 256q7 5 11.5 12
t4.5 17v64q0 14 -9 23t-23 9z" />
    <glyph glyph-name="uniE687" unicode="&#xe687;" 
d="M992 832h-960q-14 0 -23 -9t-9 -23v-704q0 -14 9 -23t23 -9h960q14 0 23 9t9 23v704q0 14 -9 23t-23 9zM915 678l-384 -256q-5 -2 -9.5 -4t-9.5 -2t-9.5 2t-9.5 4l-384 256q-10 8 -12 20.5t5 24.5q8 10 20.5 12t24.5 -5l365 -244l365 244q12 7 24.5 4.5t20.5 -14.5
q7 -10 5 -22t-12 -20v0z" />
    <glyph glyph-name="uniE688" unicode="&#xe688;" 
d="M992 832h-960q-14 0 -23 -9t-9 -23v-704q0 -14 9 -23t23 -9h960q14 0 23 9t9 23v704q0 14 -9 23t-23 9zM314 397l-128 -160q-5 -7 -12 -10t-14 -3q-5 0 -9.5 2t-9.5 4q-10 8 -12 22t5 23l128 160q8 10 22 12t23 -5q12 -10 13 -23t-6 -22zM883 230q-5 -2 -9.5 -4t-9.5 -2
q-7 0 -14 3t-12 10l-128 160q-7 9 -6 23t13 22q9 7 23 6t22 -13l128 -160q7 -9 6 -22t-13 -23v0zM883 646l-352 -288q-5 -2 -9.5 -4t-9.5 -2t-9.5 2t-9.5 4l-352 288q-10 10 -11.5 23t8.5 22q9 10 22 11.5t22 -8.5l330 -268l333 272q9 7 23 6.5t22 -10.5q7 -12 6 -25
t-13 -23v0z" />
    <glyph glyph-name="uniE689" unicode="&#xe689;" 
d="M512 128q96 0 180.5 45t148.5 100.5t102.5 103l42.5 52.5q4 7 4 18t-4 20l-42 52.5t-101.5 103t-148.5 100.5t-182 45t-182 -45t-148.5 -100.5t-101.5 -103l-42 -52.5q-4 -7 -4 -18t4 -20l42 -52.5t101.5 -103t148.5 -100.5t182 -45zM512 640q79 0 135.5 -56.5
t56.5 -135.5t-56.5 -135.5t-135.5 -56.5t-135.5 56.5t-56.5 135.5t56.5 135.5t135.5 56.5z" />
    <glyph glyph-name="uniE68A" unicode="&#xe68a;" 
d="M512 160q96 0 180.5 40t148.5 89.5t102.5 92t42.5 47.5q7 9 7 20t-7 18q-4 4 -40 43.5t-96 87t-140 88.5t-172 47h-13.5h-12.5h-12.5h-13.5q-92 -6 -172 -47t-140 -88.5t-96 -87t-40 -43.5q-7 -9 -7 -20t7 -18q4 -5 42.5 -47.5t102.5 -92t148.5 -89.5t180.5 -40zM512 672
q67 0 113.5 -46.5t46.5 -113.5t-46.5 -113.5t-113.5 -46.5t-113.5 46.5t-46.5 113.5t46.5 113.5t113.5 46.5zM512 416q14 0 23 9t9 23t-9 23t-23 9t-23 9t-9 23t-9 23t-23 9t-23 -9t-9 -23q0 -41 27.5 -68.5t68.5 -27.5z" />
    <glyph glyph-name="uniE68B" unicode="&#xe68b;" 
d="M512 256q-12 0 -25 2t-23 4l-102 -102q36 -14 74 -23t76 -9q96 0 180.5 45t148.5 100.5t102.5 103l42.5 52.5q4 7 4 18t-4 20q-3 5 -45 57t-109 110l-134 -135l4 -24t2 -24q0 -41 -15 -76.5t-41 -62t-61 -41.5t-75 -15zM38 467q-4 -7 -4 -18t4 -20q3 -5 45 -57t109 -110
l134 135l-4 24t-2 24q0 79 56.5 135.5t135.5 56.5q12 0 25 -2t23 -5l102 106q-36 14 -74 23t-76 9q-97 0 -182 -45t-148.5 -100.5t-101.5 -103l-42 -52.5v0zM874 854l-768 -768q-10 -9 -10 -22t10 -22q4 -5 9.5 -7.5t12.5 -2.5t12.5 2.5t9.5 7.5l768 768q10 9 10 22t-10 22
q-9 10 -22 10t-22 -10v0z" />
    <glyph glyph-name="uniE68C" unicode="&#xe68c;" 
d="M218 262l-112 -112q-10 -9 -10 -22t10 -22q4 -5 9.5 -7.5t12.5 -2.5t12.5 2.5t9.5 7.5l125 124q53 -28 112.5 -49t124.5 -21q96 0 180.5 40t148.5 89.5t102.5 92t42.5 47.5q7 9 7 20t-7 18q-3 3 -22.5 25.5t-53.5 54t-80.5 67.5t-103.5 64l132 132q9 9 9 22t-9 22
q-10 10 -23 10t-22 -10l-147 -147q-29 10 -60.5 18.5t-64.5 10.5h-13h-13h-12.5h-12.5q-93 -6 -173 -47t-140 -88.5t-96 -87t-39 -43.5q-8 -9 -8 -20t8 -18q2 -7 49 -60.5t127 -109.5v0zM672 512q0 -67 -46.5 -113.5t-113.5 -46.5q-24 0 -47 7t-43 19l221 220q15 -16 22 -39
t7 -47zM512 672q24 0 47 -7t43 -19l-221 -220q-15 16 -22 39t-7 47q0 67 46.5 113.5t113.5 46.5v0z" />
    <glyph glyph-name="uniE68D" unicode="&#xe68d;" 
d="M512 -64q71 0 139.5 26t123 75.5t88 121t33.5 161.5q0 88 -54 190t-120.5 191t-124 150t-63.5 67q-9 10 -22 10t-22 -10q-6 -6 -63.5 -67t-124 -150t-120.5 -191t-54 -190q0 -90 33.5 -161t87.5 -120.5t123 -76t140 -26.5v0zM486 573q5 7 12 10t14 3t14 -3t12 -10
l36.5 -53t43.5 -67.5t37 -71t17 -61.5q0 -98 -63 -129t-97 -31t-97 31t-63 129q1 26 17 61.5t37 71t43.5 67.5z" />
    <glyph glyph-name="uniE68E" unicode="&#xe68e;" 
d="M640 -32h224q14 0 23 9t9 23v493l42 -39q9 -9 23 -7.5t21 11.5q10 9 8.5 23t-11.5 21l-448 384q-2 5 -8 7.5t-11 2.5t-11.5 -2t-10.5 -4l-448 -384q-10 -10 -11.5 -23t7.5 -22q5 -7 12 -10t14 -3q5 0 11.5 2t10.5 4l42 39v-493q0 -14 9 -23t23 -9h224q14 0 23 9t9 23v224
h192v-224q0 -14 9 -23t23 -9zM576 384h-128q-14 0 -23 9t-9 23v96q0 14 9 23t23 9h128q14 0 23 -9t9 -23v-96q0 -14 -9 -23t-23 -9z" />
    <glyph glyph-name="uniE68F" unicode="&#xe68f;" 
d="M640 -32h192q14 0 23 9t9 23v355q-2 3 -4 3.5t-2 3.5l-346 307l-346 -307q-2 -3 -3 -3.5t-3 -3.5v-355q0 -14 9 -23t23 -9h192q14 0 23 9t9 23v192h192v-192q0 -14 9 -23t23 -9zM576 320h-128q-14 0 -23 9t-9 23v96q0 14 9 23t23 9h128q14 0 23 -9t9 -23v-96
q0 -14 -9 -23t-23 -9zM922 400q7 0 12 2.5t10 7.5l48 51q5 5 7.5 11t2.5 11q0 7 -2.5 12.5t-7.5 10.5l-458 412q-9 8 -21.5 8t-19.5 -8l-173 -153v99q0 14 -9 23t-23 9h-64q-14 0 -23 -9t-9 -23v-214l-157 -144q-5 -5 -7 -10.5t-2 -12.5t2 -12t7 -10l48 -51
q10 -10 22.5 -10.5t22.5 6.5l384 349l387 -345q5 -5 10 -7.5t13 -2.5v0z" />
    <glyph glyph-name="uniE690" unicode="&#xe690;" 
d="M672 -64h256q14 0 23 9t9 23v608q0 7 -3 14t-10 12l-416 320q-9 7 -20 7t-18 -7l-416 -320q-7 -5 -10 -12t-3 -14v-608q0 -14 9 -23t23 -9h256q14 0 23 9t9 23v288h256v-288q0 -14 9 -23t23 -9z" />
    <glyph glyph-name="uniE691" unicode="&#xe691;" 
d="M640 0h160q14 0 23 9t9 23v384h96q10 0 18 5t11 14q5 10 3 19t-10 16l-416 416q-9 10 -22 10t-22 -10l-416 -416q-8 -7 -10 -16t3 -19q3 -9 11 -14t18 -5h96v-384q0 -14 9 -23t23 -9h160q14 0 23 9t9 23v224h192v-224q0 -14 9 -23t23 -9z" />
    <glyph glyph-name="uniE692" unicode="&#xe692;" 
d="M42 22q-10 -9 -10 -22t10 -22q4 -5 9.5 -7.5t12.5 -2.5t12.5 2.5t9.5 7.5l135 134q26 -12 75 -27t114 -15q43 0 83.5 8.5t79 25t73.5 41t68 57.5q78 78 130.5 193t85 223t47 188t15.5 87q0 7 -2.5 14t-7.5 15q-4 2 -11.5 4t-16.5 2q-8 -1 -88.5 -17.5t-189.5 -50
t-223 -85.5t-187 -125q-56 -56 -85 -113t-39.5 -111t-7 -102.5t12.5 -86.5l160 96q12 7 20.5 -4.5t-1.5 -21.5l-284 -285v0z" />
    <glyph glyph-name="uniE693" unicode="&#xe693;" 
d="M954 928q-8 -1 -88.5 -17.5t-189.5 -50t-223 -85.5t-187 -125q-56 -56 -85 -113t-39.5 -111t-7 -102.5t12.5 -86.5l157 96q12 7 20.5 -4.5t-1.5 -21.5l-285 -285q-9 -9 -9 -22t9 -22q8 -5 13.5 -7.5t12.5 -2.5t12.5 2.5t9.5 7.5l135 134q26 -12 75 -27t114 -15
q74 0 141 24t124 72q10 8 19.5 17l19.5 19q7 7 9 16t-3 19l-74 166l125 -70q5 -3 12 -4.5t14 1.5q7 2 12 6.5t7 9.5l14.5 29t14.5 31q35 78 62 162.5t46.5 155.5t30 118t11.5 51q3 7 0.5 15.5t-9.5 13.5q-8 4 -15.5 5t-16.5 1v0z" />
    <glyph glyph-name="uniE694" unicode="&#xe694;" 
d="M928 -64q14 0 23 9t9 23v352q0 14 -9 23t-23 9t-23 -9t-9 -23v-320h-832v832h320q14 0 23 9t9 23t-9 23t-23 9h-352q-14 0 -23 -9t-9 -23v-896q0 -14 9 -23t23 -9h896zM960 928q-5 0 -52 -3t-114.5 -19.5t-143.5 -50.5t-138 -97q-74 -74 -94 -151t-18 -137l102 58
q12 7 20.5 -4.5t-0.5 -21.5l-224 -224q-10 -9 -10 -22t10 -22q4 -5 9.5 -7.5t12.5 -2.5t12.5 2.5t9.5 7.5l112 112q15 -5 40 -9t56 -4q53 0 126.5 21.5t142.5 93.5q64 62 99 138t51.5 143.5t19.5 114.5t3 52q0 7 -2.5 12.5t-7.5 9.5q-4 5 -9.5 7.5t-12.5 2.5z" />
    <glyph glyph-name="uniE695" unicode="&#xe695;" 
d="M512 896q67 0 113.5 -46.5t46.5 -113.5q0 -14 9 -23t23 -9t23 9t9 23q0 47 -17.5 87.5t-47.5 71t-71 48t-88 17.5t-87.5 -17.5t-71 -47.5t-48 -71t-17.5 -88v-176q-58 -48 -93 -119t-35 -153q0 -73 27.5 -137.5t75 -112t112 -75t137.5 -27.5t137 27.5t112 75t75.5 112
t27.5 137.5t-27.5 137t-75 112t-112 75.5t-137.5 27.5q-43 0 -83.5 -9.5t-76.5 -28.5v134q0 67 46.5 113.5t113.5 46.5zM512 480q53 0 90.5 -37.5t37.5 -90.5q0 -46 -27.5 -79.5t-68.5 -45.5v-67q0 -14 -9 -23t-23 -9t-23 9t-9 23v67q-41 10 -68.5 44.5t-27.5 80.5
q0 53 37.5 90.5t90.5 37.5z" />
    <glyph glyph-name="uniE696" unicode="&#xe696;" 
d="M512 960q-47 0 -87.5 -17.5t-71 -47.5t-48 -71t-17.5 -88v-176q-58 -48 -93 -119t-35 -153q0 -73 27.5 -137.5t75 -112t112 -75t137.5 -27.5t137 27.5t112 75t75.5 112t27.5 137.5q0 82 -35 153t-93 119v176q0 47 -17.5 87.5t-47.5 71t-71 48t-88 17.5zM544 227v-67
q0 -14 -9 -23t-23 -9t-23 9t-9 23v67q-41 10 -68.5 44.5t-27.5 80.5q0 53 37.5 90.5t90.5 37.5t90.5 -37.5t37.5 -90.5q0 -46 -27.5 -79.5t-68.5 -45.5zM672 602q-36 19 -76.5 28.5t-83.5 9.5t-83.5 -9.5t-76.5 -28.5v134q0 67 46.5 113.5t113.5 46.5t113.5 -46.5
t46.5 -113.5v-134z" />
    <glyph glyph-name="uniE697" unicode="&#xe697;" 
d="M512 896q67 0 113.5 -46.5t46.5 -113.5q0 -14 9 -23t23 -9t23 9t9 23q0 47 -17.5 87.5t-47.5 71t-71 48t-88 17.5t-87.5 -17.5t-71 -47.5t-48 -71t-17.5 -88v-96h-128q-14 0 -23 -9t-9 -23v-640q0 -14 9 -23t23 -9h704q14 0 23 9t9 23v640q0 14 -9 23t-23 9h-512v96
q0 67 46.5 113.5t113.5 46.5zM512 480q53 0 90.5 -37.5t37.5 -90.5q0 -46 -27.5 -79.5t-68.5 -45.5v-67q0 -14 -9 -23t-23 -9t-23 9t-9 23v67q-41 10 -68.5 44.5t-27.5 80.5q0 53 37.5 90.5t90.5 37.5z" />
    <glyph glyph-name="uniE698" unicode="&#xe698;" 
d="M512 960q-47 0 -87.5 -17.5t-71 -47.5t-48 -71t-17.5 -88v-96h-128q-14 0 -23 -9t-9 -23v-640q0 -14 9 -23t23 -9h704q14 0 23 9t9 23v640q0 14 -9 23t-23 9h-128v96q0 47 -17.5 87.5t-47.5 71t-71 48t-88 17.5zM544 227v-67q0 -14 -9 -23t-23 -9t-23 9t-9 23v67
q-41 10 -68.5 44.5t-27.5 80.5q0 53 37.5 90.5t90.5 37.5t90.5 -37.5t37.5 -90.5q0 -46 -27.5 -79.5t-68.5 -45.5zM672 640h-320v96q0 67 46.5 113.5t113.5 46.5t113.5 -46.5t46.5 -113.5v-96z" />
    <glyph glyph-name="uniE699" unicode="&#xe699;" 
d="M496 -61q7 -2 12.5 -2.5t13.5 -0.5q16 0 32.5 5t31.5 14q19 12 32.5 32t18.5 42q5 24 0.5 46t-16.5 43l-71 106h-275l144 -234q15 -19 35 -32.5t42 -18.5v0zM976 922q-7 4 -14.5 4.5t-17.5 -1.5l-400 -189h-352q-14 0 -23 -9t-9 -23v-35q-55 -12 -91.5 -55.5
t-36.5 -101.5t36.5 -101.5t91.5 -55.5v-35q0 -14 9 -23t23 -9h352l403 -189q3 -2 7 -2.5t6 -0.5q5 0 9.5 2t6.5 4q7 5 11.5 12t4.5 14v768q0 7 -4.5 15t-11.5 11z" />
    <glyph glyph-name="uniE69A" unicode="&#xe69a;" 
d="M816 960q-46 0 -91 -13.5t-87 -38t-79 -60.5t-66 -80h-365q-53 0 -90.5 -62t-37.5 -146t37.5 -146t90.5 -62h51l199 -342q16 -29 43.5 -43.5t58.5 -14.5q14 0 30 4.5t31 11.5q43 24 55.5 72t-14.5 91l-128 221h39q27 -44 63.5 -79.5t78.5 -60.5t88 -38.5t93 -13.5
q43 0 81 31t66 85t44.5 127t16.5 157t-16.5 157t-44.5 127t-66 85t-81 31zM816 224q-36 0 -71 47t-54 126q53 17 89 61t36 102t-36 105.5t-89 64.5q22 76 56.5 121t68.5 45q25 0 50.5 -24.5t46.5 -69t34 -106.5t13 -136t-13 -136t-33.5 -106.5t-46.5 -69t-51 -24.5z" />
    <glyph glyph-name="uniE69B" unicode="&#xe69b;" 
d="M67 269v-1.5v-1.5v-3.5v-3.5l-32 -256q0 -7 2.5 -14t7.5 -11q2 -5 7 -7.5t12 -2.5h1.5h1.5l256 32h3.5h3.5h1.5h1.5q2 0 4.5 2t4.5 4l628 628q28 28 28 68t-28 66l-135 134q-26 27 -67 27t-67 -27l-627 -624q-3 -2 -5 -4.5t-2 -4.5v0zM320 77l-67 67l435 435l67 -67
l-435 -435v0zM672 787l179 -179l-51 -51l-179 179zM576 691l67 -67l-435 -435l-67 67z" />
    <glyph glyph-name="uniE69C" unicode="&#xe69c;" 
d="M128 928v-448q0 -14 9 -23t23 -9t23 9t9 23v448q0 14 -9 23t-23 9t-23 -9t-9 -23zM544 832v96q0 14 -9 23t-23 9t-23 -9t-9 -23v-96q0 -14 9 -23t23 -9t23 9t9 23zM128 67v-99q0 -14 9 -23t23 -9t23 9t9 23v99q55 12 91.5 55.5t36.5 101.5q0 67 -46.5 113.5t-113.5 46.5
t-113.5 -46.5t-46.5 -113.5q0 -58 36.5 -101.5t91.5 -55.5zM832 928v-448q0 -14 9 -23t23 -9t23 9t9 23v448q0 14 -9 23t-23 9t-23 -9t-9 -23zM864 384q-67 0 -113.5 -46.5t-46.5 -113.5q0 -58 36.5 -101.5t91.5 -55.5v-99q0 -14 9 -23t23 -9t23 9t9 23v99q55 12 91.5 55.5
t36.5 101.5q0 67 -46.5 113.5t-113.5 46.5zM512 736q-67 0 -113.5 -46.5t-46.5 -113.5q0 -58 36.5 -101.5t91.5 -55.5v-451q0 -14 9 -23t23 -9t23 9t9 23v451q55 12 91.5 55.5t36.5 101.5q0 67 -46.5 113.5t-113.5 46.5z" />
    <glyph glyph-name="uniE69D" unicode="&#xe69d;" 
d="M992 832h-448q-14 0 -23 -9t-9 -23t9 -23t23 -9h448q14 0 23 9t9 23t-9 23t-23 9zM0 800q0 -14 9 -23t23 -9h99q12 -55 55.5 -91.5t101.5 -36.5q67 0 113.5 46.5t46.5 113.5t-46.5 113.5t-113.5 46.5q-58 0 -101.5 -36.5t-55.5 -91.5h-99q-14 0 -23 -9t-9 -23v0zM992 480
h-96q-14 0 -23 -9t-9 -23t9 -23t23 -9h96q14 0 23 9t9 23t-9 23t-23 9zM32 416h451q12 -55 55.5 -91.5t101.5 -36.5q67 0 113.5 46.5t46.5 113.5t-46.5 113.5t-113.5 46.5q-58 0 -101.5 -36.5t-55.5 -91.5h-451q-14 0 -23 -9t-9 -23t9 -23t23 -9zM992 128h-448q-14 0 -23 -9
t-9 -23t9 -23t23 -9h448q14 0 23 9t9 23t-9 23t-23 9zM32 64h99q12 -55 55.5 -91.5t101.5 -36.5q67 0 113.5 46.5t46.5 113.5t-46.5 113.5t-113.5 46.5q-58 0 -101.5 -36.5t-55.5 -91.5h-99q-14 0 -23 -9t-9 -23t9 -23t23 -9v0z" />
    <glyph glyph-name="uniE69E" unicode="&#xe69e;" 
d="M992 960h-960q-14 0 -23 -9t-9 -23v-960q0 -14 9 -23t23 -9h960q14 0 23 9t9 23v960q0 14 -9 23t-23 9zM736 800q0 14 9 23t23 9t23 -9t9 -23v-352q0 -14 -9 -23t-23 -9t-23 9t-9 23v352zM480 800q0 14 9 23t23 9t23 -9t9 -23v-96q0 -14 -9 -23t-23 -9t-23 9t-9 23v96z
M224 800q0 14 9 23t23 9t23 -9t9 -23v-352q0 -14 -9 -23t-23 -9t-23 9t-9 23v352zM288 166v-70q0 -14 -9 -23t-23 -9t-23 9t-9 23v70q-29 10 -46.5 34.5t-17.5 55.5q0 41 27.5 68.5t68.5 27.5t68.5 -27.5t27.5 -68.5q0 -31 -17.5 -55.5t-46.5 -34.5zM544 422v-326
q0 -14 -9 -23t-23 -9t-23 9t-9 23v326q-29 10 -46.5 34.5t-17.5 55.5q0 41 27.5 68.5t68.5 27.5t68.5 -27.5t27.5 -68.5q0 -31 -17.5 -55.5t-46.5 -34.5zM800 166v-70q0 -14 -9 -23t-23 -9t-23 9t-9 23v70q-29 10 -46.5 34.5t-17.5 55.5q0 41 27.5 68.5t68.5 27.5
t68.5 -27.5t27.5 -68.5q0 -31 -17.5 -55.5t-46.5 -34.5z" />
    <glyph glyph-name="uniE69F" unicode="&#xe69f;" 
d="M992 960h-960q-14 0 -23 -9t-9 -23v-960q0 -14 9 -23t23 -9h960q14 0 23 9t9 23v960q0 14 -9 23t-23 9zM160 736h70q10 29 34.5 46.5t55.5 17.5q41 0 68.5 -27.5t27.5 -68.5t-27.5 -68.5t-68.5 -27.5q-31 0 -55.5 17.5t-34.5 46.5h-70q-14 0 -23 9t-9 23t9 23t23 9z
M160 480h326q10 29 34.5 46.5t55.5 17.5q41 0 68.5 -27.5t27.5 -68.5t-27.5 -68.5t-68.5 -27.5q-31 0 -55.5 17.5t-34.5 46.5h-326q-14 0 -23 9t-9 23t9 23t23 9zM320 96q-31 0 -55.5 17.5t-34.5 46.5h-70q-14 0 -23 9t-9 23t9 23t23 9h70q10 29 34.5 46.5t55.5 17.5
q41 0 68.5 -27.5t27.5 -68.5t-27.5 -68.5t-68.5 -27.5zM864 160h-352q-14 0 -23 9t-9 23t9 23t23 9h352q14 0 23 -9t9 -23t-9 -23t-23 -9zM864 416h-96q-14 0 -23 9t-9 23t9 23t23 9h96q14 0 23 -9t9 -23t-9 -23t-23 -9zM864 672h-352q-14 0 -23 9t-9 23t9 23t23 9h352
q14 0 23 -9t9 -23t-9 -23t-23 -9z" />
    <glyph glyph-name="uniE6A0" unicode="&#xe6a0;" 
d="M992 960h-960q-14 0 -23 -9t-9 -23v-960q0 -14 9 -23t23 -9h960q14 0 23 9t9 23v960q0 14 -9 23t-23 9zM736 800q0 14 9 23t23 9t23 -9t9 -23v-384q0 -14 -9 -23t-23 -9t-23 9t-9 23v384zM480 800q0 14 9 23t23 9t23 -9t9 -23v-96q0 -14 -9 -23t-23 -9t-23 9t-9 23v96z
M224 800q0 14 9 23t23 9t23 -9t9 -23v-384q0 -14 -9 -23t-23 -9t-23 9t-9 23v384zM384 192q0 -14 -9 -23t-23 -9h-64v-64q0 -14 -9 -23t-23 -9t-23 9t-9 23v64h-64q-14 0 -23 9t-9 23v96q0 14 9 23t23 9h192q14 0 23 -9t9 -23v-96zM608 448h-64v-352q0 -14 -9 -23t-23 -9
t-23 9t-9 23v352h-64q-14 0 -23 9t-9 23v96q0 14 9 23t23 9h192q14 0 23 -9t9 -23v-96q0 -14 -9 -23t-23 -9zM896 192q0 -14 -9 -23t-23 -9h-64v-64q0 -14 -9 -23t-23 -9t-23 9t-9 23v64h-64q-14 0 -23 9t-9 23v96q0 14 9 23t23 9h192q14 0 23 -9t9 -23v-96z" />
    <glyph glyph-name="uniE6A1" unicode="&#xe6a1;" 
d="M992 960h-960q-14 0 -23 -9t-9 -23v-960q0 -14 9 -23t23 -9h960q14 0 23 9t9 23v960q0 14 -9 23t-23 9zM160 736h64v64q0 14 9 23t23 9h96q14 0 23 -9t9 -23v-192q0 -14 -9 -23t-23 -9h-96q-14 0 -23 9t-9 23v64h-64q-14 0 -23 9t-9 23t9 23t23 9zM160 480h352v64
q0 14 9 23t23 9h96q14 0 23 -9t9 -23v-192q0 -14 -9 -23t-23 -9h-96q-14 0 -23 9t-9 23v64h-352q-14 0 -23 9t-9 23t9 23t23 9zM384 96q0 -14 -9 -23t-23 -9h-96q-14 0 -23 9t-9 23v64h-64q-14 0 -23 9t-9 23t9 23t23 9h64v64q0 14 9 23t23 9h96q14 0 23 -9t9 -23v-192z
M864 160h-384q-14 0 -23 9t-9 23t9 23t23 9h384q14 0 23 -9t9 -23t-9 -23t-23 -9zM864 416h-96q-14 0 -23 9t-9 23t9 23t23 9h96q14 0 23 -9t9 -23t-9 -23t-23 -9zM864 672h-384q-14 0 -23 9t-9 23t9 23t23 9h384q14 0 23 -9t9 -23t-9 -23t-23 -9z" />
    <glyph glyph-name="uniE6A2" unicode="&#xe6a2;" 
d="M128 928v-448q0 -14 9 -23t23 -9t23 9t9 23v448q0 14 -9 23t-23 9t-23 -9t-9 -23zM32 160h96v-192q0 -14 9 -23t23 -9t23 9t9 23v192h96q14 0 23 9t9 23v160q0 14 -9 23t-23 9h-256q-14 0 -23 -9t-9 -23v-160q0 -14 9 -23t23 -9zM832 928v-448q0 -14 9 -23t23 -9t23 9
t9 23v448q0 14 -9 23t-23 9t-23 -9t-9 -23zM992 384h-256q-14 0 -23 -9t-9 -23v-160q0 -14 9 -23t23 -9h96v-192q0 -14 9 -23t23 -9t23 9t9 23v192h96q14 0 23 9t9 23v160q0 14 -9 23t-23 9zM544 832v96q0 14 -9 23t-23 9t-23 -9t-9 -23v-96q0 -14 9 -23t23 -9t23 9t9 23z
M512 -64q14 0 23 9t9 23v544h96q14 0 23 9t9 23v160q0 14 -9 23t-23 9h-256q-14 0 -23 -9t-9 -23v-160q0 -14 9 -23t23 -9h96v-544q0 -14 9 -23t23 -9z" />
    <glyph glyph-name="uniE6A3" unicode="&#xe6a3;" 
d="M992 832h-448q-14 0 -23 -9t-9 -23t9 -23t23 -9h448q14 0 23 9t9 23t-9 23t-23 9zM32 768h192v-96q0 -14 9 -23t23 -9h160q14 0 23 9t9 23v256q0 14 -9 23t-23 9h-160q-14 0 -23 -9t-9 -23v-96h-192q-14 0 -23 -9t-9 -23t9 -23t23 -9zM992 128h-448q-14 0 -23 -9t-9 -23
t9 -23t23 -9h448q14 0 23 9t9 23t-9 23t-23 9zM32 64h192v-96q0 -14 9 -23t23 -9h160q14 0 23 9t9 23v256q0 14 -9 23t-23 9h-160q-14 0 -23 -9t-9 -23v-96h-192q-14 0 -23 -9t-9 -23t9 -23t23 -9zM992 480h-96q-14 0 -23 -9t-9 -23t9 -23t23 -9h96q14 0 23 9t9 23t-9 23
t-23 9zM32 416h544v-96q0 -14 9 -23t23 -9h160q14 0 23 9t9 23v256q0 14 -9 23t-23 9h-160q-14 0 -23 -9t-9 -23v-96h-544q-14 0 -23 -9t-9 -23t9 -23t23 -9z" />
    <glyph glyph-name="uniE6A4" unicode="&#xe6a4;" 
d="M288 384v-301q0 -21 20 -29t34 7l157 169l282 -208q14 -9 30 -3t21 23l160 864q2 19 -11.5 30.5t-30.5 4.5l-896 -320q-19 -7 -21.5 -26t12.5 -29l163 -121l266 141q12 7 20 -4.5t-1 -21.5l-205 -176v0z" />
    </font>
</defs>
</svg>
