<svg width="804" height="246" viewBox="0 0 804 246" fill="none" xmlns="http://www.w3.org/2000/svg">
<rect width="200" height="55" rx="10" fill="#F5F5F5"/>
<path d="M66.7842 22V12.0469H70.0381C71.1182 12.0469 71.9294 12.2702 72.4717 12.7168C73.0186 13.1634 73.292 13.8242 73.292 14.6992C73.292 15.1641 73.1598 15.5765 72.8955 15.9365C72.6312 16.292 72.2712 16.5677 71.8154 16.7637C72.3532 16.9141 72.777 17.2012 73.0869 17.625C73.4014 18.0443 73.5586 18.5456 73.5586 19.1289C73.5586 20.0221 73.2692 20.724 72.6904 21.2344C72.1117 21.7448 71.2936 22 70.2363 22H66.7842ZM68.0967 17.3447V20.9268H70.2637C70.8743 20.9268 71.3551 20.7695 71.7061 20.4551C72.0615 20.1361 72.2393 19.6986 72.2393 19.1426C72.2393 17.944 71.5876 17.3447 70.2842 17.3447H68.0967ZM68.0967 16.292H70.0791C70.6533 16.292 71.1113 16.1484 71.4531 15.8613C71.7995 15.5742 71.9727 15.1846 71.9727 14.6924C71.9727 14.1455 71.8132 13.749 71.4941 13.5029C71.1751 13.2523 70.6898 13.127 70.0381 13.127H68.0967V16.292ZM77.9404 18.2881H74.6045V17.2559H77.9404V18.2881ZM86.2529 13.127H83.0537V22H81.748V13.127H78.5557V12.0469H86.2529V13.127ZM94.7158 13.127H91.5166V22H90.2109V13.127H87.0186V12.0469H94.7158V13.127ZM103.842 22H102.522V17.3994H97.5049V22H96.1924V12.0469H97.5049V16.3262H102.522V12.0469H103.842V22ZM106.228 22.8545H105.141L109.297 12.0469H110.377L106.228 22.8545ZM117.855 17.7549C117.855 19.236 117.603 20.3366 117.097 21.0566C116.591 21.7767 115.8 22.1367 114.725 22.1367C113.663 22.1367 112.877 21.7858 112.366 21.084C111.856 20.3776 111.591 19.3249 111.573 17.9258V16.2373C111.573 14.7744 111.826 13.6875 112.332 12.9766C112.838 12.2656 113.631 11.9102 114.711 11.9102C115.782 11.9102 116.57 12.2542 117.076 12.9424C117.582 13.626 117.842 14.6833 117.855 16.1143V17.7549ZM116.591 16.0254C116.591 14.9544 116.44 14.1751 116.14 13.6875C115.839 13.1953 115.363 12.9492 114.711 12.9492C114.064 12.9492 113.592 13.193 113.296 13.6807C113 14.1683 112.847 14.918 112.838 15.9297V17.9531C112.838 19.0286 112.993 19.8239 113.303 20.3389C113.617 20.8493 114.091 21.1045 114.725 21.1045C115.349 21.1045 115.812 20.863 116.112 20.3799C116.418 19.8968 116.577 19.1357 116.591 18.0967V16.0254ZM121.314 16.4082H122.265C122.862 16.3991 123.331 16.2419 123.673 15.9365C124.015 15.6312 124.186 15.2188 124.186 14.6992C124.186 13.5326 123.604 12.9492 122.442 12.9492C121.896 12.9492 121.458 13.1064 121.13 13.4209C120.806 13.7308 120.645 14.1432 120.645 14.6582H119.38C119.38 13.8698 119.667 13.2158 120.241 12.6963C120.82 12.1722 121.554 11.9102 122.442 11.9102C123.381 11.9102 124.117 12.1585 124.65 12.6553C125.184 13.152 125.45 13.8424 125.45 14.7266C125.45 15.1595 125.309 15.5788 125.026 15.9844C124.748 16.39 124.368 16.693 123.885 16.8936C124.432 17.0667 124.853 17.3538 125.149 17.7549C125.45 18.1559 125.601 18.6458 125.601 19.2246C125.601 20.1178 125.309 20.8265 124.726 21.3506C124.142 21.8747 123.383 22.1367 122.449 22.1367C121.515 22.1367 120.754 21.8838 120.166 21.3779C119.583 20.8721 119.291 20.2044 119.291 19.375H120.562C120.562 19.8991 120.733 20.3184 121.075 20.6328C121.417 20.9473 121.875 21.1045 122.449 21.1045C123.06 21.1045 123.527 20.945 123.851 20.626C124.174 20.307 124.336 19.849 124.336 19.252C124.336 18.6732 124.158 18.2288 123.803 17.9189C123.447 17.609 122.935 17.4495 122.265 17.4404H121.314V16.4082ZM132.676 18.6572H134.057V19.6895H132.676V22H131.404V19.6895H126.872V18.9443L131.329 12.0469H132.676V18.6572ZM128.308 18.6572H131.404V13.7764L131.254 14.0498L128.308 18.6572ZM24.0801 40.2881H20.7441V39.2559H24.0801V40.2881ZM27.9492 40.2881H24.6133V39.2559H27.9492V40.2881ZM33.6641 39.5566L29.1455 37.7861V36.4873L34.9834 39.0713V40.0693L29.1455 42.6602V41.3477L33.6641 39.5566ZM40.1719 44V34.0469H43.4258C44.5059 34.0469 45.3171 34.2702 45.8594 34.7168C46.4062 35.1634 46.6797 35.8242 46.6797 36.6992C46.6797 37.1641 46.5475 37.5765 46.2832 37.9365C46.0189 38.292 45.6589 38.5677 45.2031 38.7637C45.7409 38.9141 46.1647 39.2012 46.4746 39.625C46.7891 40.0443 46.9463 40.5456 46.9463 41.1289C46.9463 42.0221 46.6569 42.724 46.0781 43.2344C45.4993 43.7448 44.6813 44 43.624 44H40.1719ZM41.4844 39.3447V42.9268H43.6514C44.262 42.9268 44.7428 42.7695 45.0938 42.4551C45.4492 42.1361 45.627 41.6986 45.627 41.1426C45.627 39.944 44.9753 39.3447 43.6719 39.3447H41.4844ZM41.4844 38.292H43.4668C44.041 38.292 44.499 38.1484 44.8408 37.8613C45.1872 37.5742 45.3604 37.1846 45.3604 36.6924C45.3604 36.1455 45.2008 35.749 44.8818 35.5029C44.5628 35.2523 44.0775 35.127 43.4258 35.127H41.4844V38.292ZM51.7656 44.1367C50.763 44.1367 49.9473 43.8086 49.3184 43.1523C48.6895 42.4915 48.375 41.6097 48.375 40.5068V40.2744C48.375 39.5407 48.514 38.8867 48.792 38.3125C49.0745 37.7337 49.4665 37.2826 49.9678 36.959C50.4736 36.6309 51.0205 36.4668 51.6084 36.4668C52.57 36.4668 53.3174 36.7835 53.8506 37.417C54.3838 38.0505 54.6504 38.9574 54.6504 40.1377V40.6641H49.6396C49.6579 41.3932 49.8698 41.9834 50.2754 42.4346C50.6855 42.8812 51.2051 43.1045 51.834 43.1045C52.2806 43.1045 52.6589 43.0133 52.9688 42.8311C53.2786 42.6488 53.5498 42.4072 53.7822 42.1064L54.5547 42.708C53.9349 43.6605 53.0052 44.1367 51.7656 44.1367ZM51.6084 37.5059C51.098 37.5059 50.6696 37.6927 50.3232 38.0664C49.9769 38.4355 49.7627 38.9551 49.6807 39.625H53.3857V39.5293C53.3493 38.8867 53.1761 38.39 52.8662 38.0391C52.5563 37.6836 52.137 37.5059 51.6084 37.5059ZM54.1035 35.6191H52.9414L51.5947 34.3477L50.248 35.6191H49.0928L50.9521 33.8281H52.2373L54.1035 35.6191ZM53.5361 34.6758L53.5293 33.7803C53.8255 33.762 54.0397 33.7233 54.1719 33.6641C54.3086 33.6048 54.377 33.5 54.377 33.3496C54.377 33.0443 54.0557 32.8916 53.4131 32.8916L53.4473 32.2627C54.0306 32.2627 54.4749 32.363 54.7803 32.5635C55.0856 32.764 55.2383 33.0306 55.2383 33.3633C55.2383 33.6322 55.154 33.8418 54.9854 33.9922C54.8167 34.1426 54.5957 34.2337 54.3223 34.2656L54.3154 34.6758H53.5361ZM61.3086 34.8125V36.6035H62.6895V37.5811H61.3086V42.168C61.3086 42.4642 61.3701 42.6875 61.4932 42.8379C61.6162 42.9837 61.8258 43.0566 62.1221 43.0566C62.2679 43.0566 62.4684 43.0293 62.7236 42.9746V44C62.391 44.0911 62.0674 44.1367 61.7529 44.1367C61.1878 44.1367 60.7617 43.9658 60.4746 43.624C60.1875 43.2822 60.0439 42.7969 60.0439 42.168V37.5811H58.6973V36.6035H60.0439V34.8125H61.3086ZM65.4375 37.499C65.998 36.8109 66.7272 36.4668 67.625 36.4668C69.1882 36.4668 69.9766 37.3486 69.9902 39.1123V44H68.7256V39.1055C68.721 38.5723 68.598 38.1781 68.3564 37.9229C68.1195 37.6676 67.748 37.54 67.2422 37.54C66.832 37.54 66.472 37.6494 66.1621 37.8682C65.8522 38.0869 65.6107 38.374 65.4375 38.7295V44H64.1729V33.5H65.4375V37.499ZM76.4502 43.2686C75.958 43.8473 75.2357 44.1367 74.2832 44.1367C73.4948 44.1367 72.8932 43.9089 72.4785 43.4531C72.0684 42.9928 71.861 42.3138 71.8564 41.416V36.6035H73.1211V41.3818C73.1211 42.5029 73.5768 43.0635 74.4883 43.0635C75.4544 43.0635 76.097 42.7035 76.416 41.9834V36.6035H77.6807V44H76.4775L76.4502 43.2686ZM79.2734 40.2334C79.2734 39.5088 79.4147 38.8571 79.6973 38.2783C79.9844 37.6995 80.3809 37.2529 80.8867 36.9385C81.3971 36.624 81.9782 36.4668 82.6299 36.4668C83.637 36.4668 84.4505 36.8154 85.0703 37.5127C85.6947 38.21 86.0068 39.1374 86.0068 40.2949V40.3838C86.0068 41.1038 85.8678 41.751 85.5898 42.3252C85.3164 42.8949 84.9222 43.3392 84.4072 43.6582C83.8968 43.9772 83.3089 44.1367 82.6436 44.1367C81.641 44.1367 80.8275 43.7881 80.2031 43.0908C79.5833 42.3936 79.2734 41.4707 79.2734 40.3223V40.2334ZM80.5449 40.3838C80.5449 41.2041 80.734 41.8626 81.1123 42.3594C81.4951 42.8561 82.0055 43.1045 82.6436 43.1045C83.2861 43.1045 83.7965 42.8538 84.1748 42.3525C84.5531 41.8467 84.7422 41.1403 84.7422 40.2334C84.7422 39.4222 84.5485 38.766 84.1611 38.2646C83.7783 37.7588 83.2679 37.5059 82.6299 37.5059C82.0055 37.5059 81.502 37.7542 81.1191 38.251C80.7363 38.7477 80.5449 39.4587 80.5449 40.3838ZM84.6533 35.373V35.4414H83.6074L82.582 34.2793L81.5635 35.4414H80.5176V35.3594L82.1992 33.5H82.9648L84.6533 35.373ZM81.8574 45.6748C81.8574 45.4697 81.9189 45.2965 82.042 45.1553C82.1696 45.014 82.3564 44.9434 82.6025 44.9434C82.8486 44.9434 83.0355 45.014 83.1631 45.1553C83.2907 45.2965 83.3545 45.4697 83.3545 45.6748C83.3545 45.8799 83.2907 46.0508 83.1631 46.1875C83.0355 46.3242 82.8486 46.3926 82.6025 46.3926C82.3564 46.3926 82.1696 46.3242 82.042 46.1875C81.9189 46.0508 81.8574 45.8799 81.8574 45.6748ZM90.5596 43.1045C91.0107 43.1045 91.4049 42.9678 91.7422 42.6943C92.0794 42.4209 92.2663 42.0791 92.3027 41.6689H93.499C93.4762 42.0928 93.3304 42.4961 93.0615 42.8789C92.7926 43.2617 92.4326 43.5671 91.9814 43.7949C91.5348 44.0228 91.0609 44.1367 90.5596 44.1367C89.5524 44.1367 88.7503 43.8018 88.1533 43.1318C87.5609 42.4574 87.2646 41.5368 87.2646 40.3701V40.1582C87.2646 39.4382 87.3968 38.7979 87.6611 38.2373C87.9255 37.6768 88.3037 37.2415 88.7959 36.9316C89.2926 36.6217 89.8783 36.4668 90.5527 36.4668C91.3822 36.4668 92.0703 36.7152 92.6172 37.2119C93.1686 37.7087 93.4626 38.3535 93.499 39.1465H92.3027C92.2663 38.668 92.084 38.276 91.7559 37.9707C91.4323 37.6608 91.0312 37.5059 90.5527 37.5059C89.9102 37.5059 89.4111 37.7383 89.0557 38.2031C88.7048 38.6634 88.5293 39.3311 88.5293 40.2061V40.4453C88.5293 41.2975 88.7048 41.9538 89.0557 42.4141C89.4066 42.8743 89.9079 43.1045 90.5596 43.1045ZM100.109 34.8125V36.6035H101.49V37.5811H100.109V42.168C100.109 42.4642 100.171 42.6875 100.294 42.8379C100.417 42.9837 100.627 43.0566 100.923 43.0566C101.069 43.0566 101.269 43.0293 101.524 42.9746V44C101.192 44.0911 100.868 44.1367 100.554 44.1367C99.9886 44.1367 99.5625 43.9658 99.2754 43.624C98.9883 43.2822 98.8447 42.7969 98.8447 42.168V37.5811H97.498V36.6035H98.8447V34.8125H100.109ZM107.54 43.2686C107.048 43.8473 106.326 44.1367 105.373 44.1367C104.585 44.1367 103.983 43.9089 103.568 43.4531C103.158 42.9928 102.951 42.3138 102.946 41.416V36.6035H104.211V41.3818C104.211 42.5029 104.667 43.0635 105.578 43.0635C106.544 43.0635 107.187 42.7035 107.506 41.9834V36.6035H108.771V44H107.567L107.54 43.2686ZM113.118 42.1475L114.841 36.6035H116.194L113.221 45.1416C112.76 46.3721 112.029 46.9873 111.026 46.9873L110.787 46.9668L110.315 46.8779V45.8525L110.657 45.8799C111.086 45.8799 111.418 45.7933 111.655 45.6201C111.897 45.4469 112.095 45.1302 112.25 44.6699L112.53 43.918L109.892 36.6035H111.272L113.118 42.1475ZM120.303 44.1367C119.3 44.1367 118.484 43.8086 117.855 43.1523C117.227 42.4915 116.912 41.6097 116.912 40.5068V40.2744C116.912 39.5407 117.051 38.8867 117.329 38.3125C117.612 37.7337 118.004 37.2826 118.505 36.959C119.011 36.6309 119.558 36.4668 120.146 36.4668C121.107 36.4668 121.854 36.7835 122.388 37.417C122.921 38.0505 123.188 38.9574 123.188 40.1377V40.6641H118.177C118.195 41.3932 118.407 41.9834 118.812 42.4346C119.223 42.8812 119.742 43.1045 120.371 43.1045C120.818 43.1045 121.196 43.0133 121.506 42.8311C121.816 42.6488 122.087 42.4072 122.319 42.1064L123.092 42.708C122.472 43.6605 121.542 44.1367 120.303 44.1367ZM120.146 37.5059C119.635 37.5059 119.207 37.6927 118.86 38.0664C118.514 38.4355 118.3 38.9551 118.218 39.625H121.923V39.5293C121.886 38.8867 121.713 38.39 121.403 38.0391C121.093 37.6836 120.674 37.5059 120.146 37.5059ZM119.626 33.7119H120.665L122.647 35.5098H121.301L120.146 34.4229L118.983 35.5098H117.63L119.626 33.7119ZM123.112 32.5293H124.479L123.105 34.2998H122.142L123.112 32.5293ZM125.854 36.6035L125.895 37.5332C126.46 36.8223 127.198 36.4668 128.109 36.4668C129.673 36.4668 130.461 37.3486 130.475 39.1123V44H129.21V39.1055C129.205 38.5723 129.082 38.1781 128.841 37.9229C128.604 37.6676 128.232 37.54 127.727 37.54C127.316 37.54 126.956 37.6494 126.646 37.8682C126.337 38.0869 126.095 38.374 125.922 38.7295V44H124.657V36.6035H125.854ZM137.919 40.5752L137.126 41.4023V44H135.861V33.5H137.126V39.8506L137.803 39.0371L140.106 36.6035H141.645L138.767 39.6934L141.979 44H140.496L137.919 40.5752ZM144.215 37.499C144.775 36.8109 145.505 36.4668 146.402 36.4668C147.965 36.4668 148.754 37.3486 148.768 39.1123V44H147.503V39.1055C147.498 38.5723 147.375 38.1781 147.134 37.9229C146.897 37.6676 146.525 37.54 146.02 37.54C145.609 37.54 145.249 37.6494 144.939 37.8682C144.63 38.0869 144.388 38.374 144.215 38.7295V44H142.95V33.5H144.215V37.499ZM155.228 44C155.155 43.8542 155.095 43.5944 155.05 43.2207C154.462 43.8314 153.76 44.1367 152.944 44.1367C152.215 44.1367 151.616 43.9316 151.146 43.5215C150.682 43.1068 150.449 42.5827 150.449 41.9492C150.449 41.179 150.741 40.582 151.324 40.1582C151.912 39.7298 152.737 39.5156 153.799 39.5156H155.029V38.9346C155.029 38.4925 154.897 38.1416 154.633 37.8818C154.368 37.6175 153.979 37.4854 153.464 37.4854C153.013 37.4854 152.634 37.5993 152.329 37.8271C152.024 38.055 151.871 38.3307 151.871 38.6543H150.6C150.6 38.2852 150.729 37.9297 150.989 37.5879C151.254 37.2415 151.609 36.9681 152.056 36.7676C152.507 36.5671 153.001 36.4668 153.539 36.4668C154.391 36.4668 155.059 36.681 155.542 37.1094C156.025 37.5332 156.276 38.1188 156.294 38.8662V42.2705C156.294 42.9495 156.381 43.4896 156.554 43.8906V44H155.228ZM153.129 43.0361C153.525 43.0361 153.901 42.9336 154.257 42.7285C154.612 42.5234 154.87 42.2568 155.029 41.9287V40.4111H154.038C152.489 40.4111 151.714 40.8646 151.714 41.7715C151.714 42.168 151.846 42.4779 152.11 42.7012C152.375 42.9245 152.714 43.0361 153.129 43.0361ZM154.298 33.5H155.829L153.997 35.5098H152.979L154.298 33.5ZM161.243 43.1045C161.694 43.1045 162.089 42.9678 162.426 42.6943C162.763 42.4209 162.95 42.0791 162.986 41.6689H164.183C164.16 42.0928 164.014 42.4961 163.745 42.8789C163.476 43.2617 163.116 43.5671 162.665 43.7949C162.218 44.0228 161.744 44.1367 161.243 44.1367C160.236 44.1367 159.434 43.8018 158.837 43.1318C158.244 42.4574 157.948 41.5368 157.948 40.3701V40.1582C157.948 39.4382 158.08 38.7979 158.345 38.2373C158.609 37.6768 158.987 37.2415 159.479 36.9316C159.976 36.6217 160.562 36.4668 161.236 36.4668C162.066 36.4668 162.754 36.7152 163.301 37.2119C163.852 37.7087 164.146 38.3535 164.183 39.1465H162.986C162.95 38.668 162.768 38.276 162.439 37.9707C162.116 37.6608 161.715 37.5059 161.236 37.5059C160.594 37.5059 160.095 37.7383 159.739 38.2031C159.388 38.6634 159.213 39.3311 159.213 40.2061V40.4453C159.213 41.2975 159.388 41.9538 159.739 42.4141C160.09 42.8743 160.591 43.1045 161.243 43.1045ZM166.452 39.5977L170.731 41.3271V42.667L165.14 40.0762V39.0781L170.731 36.4941V37.834L166.452 39.5977ZM175.359 40.2881H172.023V39.2559H175.359V40.2881ZM179.229 40.2881H175.893V39.2559H179.229V40.2881Z" fill="black"/>
<rect x="212" y="35" width="290" height="55" rx="10" fill="#F5F5F5"/>
<path d="M347.122 57C347.049 56.8587 346.985 56.6286 346.931 56.3096C346.402 56.861 345.755 57.1367 344.989 57.1367C344.246 57.1367 343.64 56.9248 343.171 56.501C342.701 56.0771 342.467 55.5531 342.467 54.9287C342.467 54.1403 342.758 53.5365 343.342 53.1172C343.93 52.6934 344.768 52.4814 345.857 52.4814H346.876V51.9961C346.876 51.6133 346.769 51.3079 346.555 51.0801C346.34 50.8477 346.015 50.7314 345.577 50.7314C345.199 50.7314 344.889 50.8271 344.647 51.0186C344.406 51.2054 344.285 51.4447 344.285 51.7363H342.624C342.624 51.3307 342.758 50.9525 343.027 50.6016C343.296 50.2461 343.661 49.9681 344.121 49.7676C344.586 49.5671 345.103 49.4668 345.673 49.4668C346.539 49.4668 347.229 49.6855 347.744 50.123C348.259 50.556 348.523 51.1667 348.537 51.9551V55.291C348.537 55.9564 348.631 56.4873 348.817 56.8838V57H347.122ZM345.297 55.8037C345.625 55.8037 345.933 55.724 346.22 55.5645C346.511 55.4049 346.73 55.1908 346.876 54.9219V53.5273H345.98C345.365 53.5273 344.903 53.6344 344.593 53.8486C344.283 54.0628 344.128 54.3659 344.128 54.7578C344.128 55.0768 344.233 55.332 344.442 55.5234C344.657 55.7103 344.941 55.8037 345.297 55.8037ZM354.696 57C354.623 56.8587 354.56 56.6286 354.505 56.3096C353.976 56.861 353.329 57.1367 352.563 57.1367C351.821 57.1367 351.215 56.9248 350.745 56.501C350.276 56.0771 350.041 55.5531 350.041 54.9287C350.041 54.1403 350.333 53.5365 350.916 53.1172C351.504 52.6934 352.342 52.4814 353.432 52.4814H354.45V51.9961C354.45 51.6133 354.343 51.3079 354.129 51.0801C353.915 50.8477 353.589 50.7314 353.151 50.7314C352.773 50.7314 352.463 50.8271 352.222 51.0186C351.98 51.2054 351.859 51.4447 351.859 51.7363H350.198C350.198 51.3307 350.333 50.9525 350.602 50.6016C350.87 50.2461 351.235 49.9681 351.695 49.7676C352.16 49.5671 352.677 49.4668 353.247 49.4668C354.113 49.4668 354.803 49.6855 355.318 50.123C355.833 50.556 356.098 51.1667 356.111 51.9551V55.291C356.111 55.9564 356.205 56.4873 356.392 56.8838V57H354.696ZM352.871 55.8037C353.199 55.8037 353.507 55.724 353.794 55.5645C354.086 55.4049 354.304 55.1908 354.45 54.9219V53.5273H353.555C352.939 53.5273 352.477 53.6344 352.167 53.8486C351.857 54.0628 351.702 54.3659 351.702 54.7578C351.702 55.0768 351.807 55.332 352.017 55.5234C352.231 55.7103 352.516 55.8037 352.871 55.8037ZM362.271 57C362.198 56.8587 362.134 56.6286 362.079 56.3096C361.55 56.861 360.903 57.1367 360.138 57.1367C359.395 57.1367 358.789 56.9248 358.319 56.501C357.85 56.0771 357.615 55.5531 357.615 54.9287C357.615 54.1403 357.907 53.5365 358.49 53.1172C359.078 52.6934 359.917 52.4814 361.006 52.4814H362.024V51.9961C362.024 51.6133 361.917 51.3079 361.703 51.0801C361.489 50.8477 361.163 50.7314 360.726 50.7314C360.347 50.7314 360.037 50.8271 359.796 51.0186C359.554 51.2054 359.434 51.4447 359.434 51.7363H357.772C357.772 51.3307 357.907 50.9525 358.176 50.6016C358.445 50.2461 358.809 49.9681 359.27 49.7676C359.734 49.5671 360.252 49.4668 360.821 49.4668C361.687 49.4668 362.378 49.6855 362.893 50.123C363.408 50.556 363.672 51.1667 363.686 51.9551V55.291C363.686 55.9564 363.779 56.4873 363.966 56.8838V57H362.271ZM360.445 55.8037C360.773 55.8037 361.081 55.724 361.368 55.5645C361.66 55.4049 361.879 55.1908 362.024 54.9219V53.5273H361.129C360.514 53.5273 360.051 53.6344 359.741 53.8486C359.431 54.0628 359.276 54.3659 359.276 54.7578C359.276 55.0768 359.381 55.332 359.591 55.5234C359.805 55.7103 360.09 55.8037 360.445 55.8037ZM369.845 57C369.772 56.8587 369.708 56.6286 369.653 56.3096C369.125 56.861 368.478 57.1367 367.712 57.1367C366.969 57.1367 366.363 56.9248 365.894 56.501C365.424 56.0771 365.189 55.5531 365.189 54.9287C365.189 54.1403 365.481 53.5365 366.064 53.1172C366.652 52.6934 367.491 52.4814 368.58 52.4814H369.599V51.9961C369.599 51.6133 369.492 51.3079 369.277 51.0801C369.063 50.8477 368.737 50.7314 368.3 50.7314C367.922 50.7314 367.612 50.8271 367.37 51.0186C367.129 51.2054 367.008 51.4447 367.008 51.7363H365.347C365.347 51.3307 365.481 50.9525 365.75 50.6016C366.019 50.2461 366.383 49.9681 366.844 49.7676C367.309 49.5671 367.826 49.4668 368.396 49.4668C369.261 49.4668 369.952 49.6855 370.467 50.123C370.982 50.556 371.246 51.1667 371.26 51.9551V55.291C371.26 55.9564 371.353 56.4873 371.54 56.8838V57H369.845ZM368.02 55.8037C368.348 55.8037 368.655 55.724 368.942 55.5645C369.234 55.4049 369.453 55.1908 369.599 54.9219V53.5273H368.703C368.088 53.5273 367.625 53.6344 367.315 53.8486C367.006 54.0628 366.851 54.3659 366.851 54.7578C366.851 55.0768 366.955 55.332 367.165 55.5234C367.379 55.7103 367.664 55.8037 368.02 55.8037ZM236.182 74.3721L234.965 75.6367V79H233.652V69.0469H234.965V73.9688L239.388 69.0469H240.974L237.057 73.4424L241.281 79H239.709L236.182 74.3721ZM243.496 72.499C244.057 71.8109 244.786 71.4668 245.684 71.4668C247.247 71.4668 248.035 72.3486 248.049 74.1123V79H246.784V74.1055C246.78 73.5723 246.657 73.1781 246.415 72.9229C246.178 72.6676 245.807 72.54 245.301 72.54C244.891 72.54 244.531 72.6494 244.221 72.8682C243.911 73.0869 243.669 73.374 243.496 73.7295V79H242.231V68.5H243.496V72.499ZM254.509 78.2686C254.017 78.8473 253.294 79.1367 252.342 79.1367C251.553 79.1367 250.952 78.9089 250.537 78.4531C250.127 77.9928 249.92 77.3138 249.915 76.416V71.6035H251.18V76.3818C251.18 77.5029 251.635 78.0635 252.547 78.0635C253.513 78.0635 254.156 77.7035 254.475 76.9834V71.6035H255.739V79H254.536L254.509 78.2686ZM262.404 72.499C262.965 71.8109 263.694 71.4668 264.592 71.4668C266.155 71.4668 266.943 72.3486 266.957 74.1123V79H265.692V74.1055C265.688 73.5723 265.565 73.1781 265.323 72.9229C265.086 72.6676 264.715 72.54 264.209 72.54C263.799 72.54 263.439 72.6494 263.129 72.8682C262.819 73.0869 262.577 73.374 262.404 73.7295V79H261.14V68.5H262.404V72.499ZM273.417 79C273.344 78.8542 273.285 78.5944 273.239 78.2207C272.651 78.8314 271.95 79.1367 271.134 79.1367C270.405 79.1367 269.805 78.9316 269.336 78.5215C268.871 78.1068 268.639 77.5827 268.639 76.9492C268.639 76.179 268.93 75.582 269.514 75.1582C270.102 74.7298 270.926 74.5156 271.988 74.5156H273.219V73.9346C273.219 73.4925 273.087 73.1416 272.822 72.8818C272.558 72.6175 272.168 72.4854 271.653 72.4854C271.202 72.4854 270.824 72.5993 270.519 72.8271C270.213 73.055 270.061 73.3307 270.061 73.6543H268.789C268.789 73.2852 268.919 72.9297 269.179 72.5879C269.443 72.2415 269.799 71.9681 270.245 71.7676C270.696 71.5671 271.191 71.4668 271.729 71.4668C272.581 71.4668 273.248 71.681 273.731 72.1094C274.215 72.5332 274.465 73.1188 274.483 73.8662V77.2705C274.483 77.9495 274.57 78.4896 274.743 78.8906V79H273.417ZM271.318 78.0361C271.715 78.0361 272.091 77.9336 272.446 77.7285C272.802 77.5234 273.059 77.2568 273.219 76.9287V75.4111H272.228C270.678 75.4111 269.903 75.8646 269.903 76.7715C269.903 77.168 270.035 77.4779 270.3 77.7012C270.564 77.9245 270.904 78.0361 271.318 78.0361ZM272.59 70.5098H271.503L269.739 68.5H271.264L272.59 70.5098ZM277.662 71.6035L277.703 72.5332C278.268 71.8223 279.007 71.4668 279.918 71.4668C281.481 71.4668 282.27 72.3486 282.283 74.1123V79H281.019V74.1055C281.014 73.5723 280.891 73.1781 280.649 72.9229C280.412 72.6676 280.041 72.54 279.535 72.54C279.125 72.54 278.765 72.6494 278.455 72.8682C278.145 73.0869 277.904 73.374 277.73 73.7295V79H276.466V71.6035H277.662ZM285.455 72.499C286.016 71.8109 286.745 71.4668 287.643 71.4668C289.206 71.4668 289.994 72.3486 290.008 74.1123V79H288.743V74.1055C288.739 73.5723 288.616 73.1781 288.374 72.9229C288.137 72.6676 287.766 72.54 287.26 72.54C286.85 72.54 286.49 72.6494 286.18 72.8682C285.87 73.0869 285.628 73.374 285.455 73.7295V79H284.19V68.5H285.455V72.499ZM298.341 78.1045C298.792 78.1045 299.186 77.9678 299.523 77.6943C299.861 77.4209 300.048 77.0791 300.084 76.6689H301.28C301.257 77.0928 301.112 77.4961 300.843 77.8789C300.574 78.2617 300.214 78.5671 299.763 78.7949C299.316 79.0228 298.842 79.1367 298.341 79.1367C297.334 79.1367 296.532 78.8018 295.935 78.1318C295.342 77.4574 295.046 76.5368 295.046 75.3701V75.1582C295.046 74.4382 295.178 73.7979 295.442 73.2373C295.707 72.6768 296.085 72.2415 296.577 71.9316C297.074 71.6217 297.66 71.4668 298.334 71.4668C299.163 71.4668 299.852 71.7152 300.398 72.2119C300.95 72.7087 301.244 73.3535 301.28 74.1465H300.084C300.048 73.668 299.865 73.276 299.537 72.9707C299.214 72.6608 298.812 72.5059 298.334 72.5059C297.691 72.5059 297.192 72.7383 296.837 73.2031C296.486 73.6634 296.311 74.3311 296.311 75.2061V75.4453C296.311 76.2975 296.486 76.9538 296.837 77.4141C297.188 77.8743 297.689 78.1045 298.341 78.1045ZM303.967 72.499C304.527 71.8109 305.257 71.4668 306.154 71.4668C307.717 71.4668 308.506 72.3486 308.52 74.1123V79H307.255V74.1055C307.25 73.5723 307.127 73.1781 306.886 72.9229C306.649 72.6676 306.277 72.54 305.771 72.54C305.361 72.54 305.001 72.6494 304.691 72.8682C304.382 73.0869 304.14 73.374 303.967 73.7295V79H302.702V68.5H303.967V72.499ZM311.787 79H310.516V71.6035H311.787V79ZM311.801 68.5068H313.332L311.5 70.5166H310.481L311.801 68.5068ZM315.068 71.6035L315.109 72.5332C315.674 71.8223 316.413 71.4668 317.324 71.4668C318.887 71.4668 319.676 72.3486 319.689 74.1123V79H318.425V74.1055C318.42 73.5723 318.297 73.1781 318.056 72.9229C317.819 72.6676 317.447 72.54 316.941 72.54C316.531 72.54 316.171 72.6494 315.861 72.8682C315.551 73.0869 315.31 73.374 315.137 73.7295V79H313.872V71.6035H315.068ZM322.861 72.499C323.422 71.8109 324.151 71.4668 325.049 71.4668C326.612 71.4668 327.4 72.3486 327.414 74.1123V79H326.149V74.1055C326.145 73.5723 326.022 73.1781 325.78 72.9229C325.543 72.6676 325.172 72.54 324.666 72.54C324.256 72.54 323.896 72.6494 323.586 72.8682C323.276 73.0869 323.035 73.374 322.861 73.7295V79H321.597V68.5H322.861V72.499ZM339.172 79H332.65V78.0908L336.096 74.2627C336.606 73.6839 336.957 73.2145 337.148 72.8545C337.344 72.4899 337.442 72.1139 337.442 71.7266C337.442 71.207 337.285 70.7809 336.971 70.4482C336.656 70.1156 336.237 69.9492 335.713 69.9492C335.084 69.9492 334.594 70.1292 334.243 70.4893C333.897 70.8447 333.724 71.3415 333.724 71.9795H332.459C332.459 71.0635 332.753 70.3229 333.341 69.7578C333.933 69.1927 334.724 68.9102 335.713 68.9102C336.638 68.9102 337.369 69.154 337.907 69.6416C338.445 70.1247 338.714 70.7695 338.714 71.5762C338.714 72.556 338.09 73.7227 336.841 75.0762L334.175 77.9678H339.172V79ZM340.601 80.9824L339.883 80.4902C340.311 79.8932 340.535 79.278 340.553 78.6445V77.5029H341.79V78.4941C341.79 78.9544 341.676 79.4147 341.448 79.875C341.225 80.3353 340.942 80.7044 340.601 80.9824ZM354.382 75.8418C354.259 76.8945 353.869 77.708 353.213 78.2822C352.561 78.8519 351.693 79.1367 350.608 79.1367C349.433 79.1367 348.489 78.7152 347.778 77.8721C347.072 77.029 346.719 75.901 346.719 74.4883V73.5312C346.719 72.6061 346.883 71.7926 347.211 71.0908C347.544 70.389 348.013 69.8512 348.619 69.4775C349.225 69.0993 349.927 68.9102 350.725 68.9102C351.782 68.9102 352.63 69.2064 353.268 69.7988C353.906 70.3867 354.277 71.2025 354.382 72.2461H353.062C352.949 71.4531 352.7 70.8789 352.317 70.5234C351.939 70.168 351.408 69.9902 350.725 69.9902C349.886 69.9902 349.228 70.3001 348.749 70.9199C348.275 71.5397 348.038 72.4215 348.038 73.5654V74.5293C348.038 75.6094 348.264 76.4684 348.715 77.1064C349.166 77.7445 349.797 78.0635 350.608 78.0635C351.338 78.0635 351.896 77.8994 352.283 77.5713C352.675 77.2386 352.935 76.6621 353.062 75.8418H354.382ZM357.246 72.499C357.807 71.8109 358.536 71.4668 359.434 71.4668C360.997 71.4668 361.785 72.3486 361.799 74.1123V79H360.534V74.1055C360.53 73.5723 360.407 73.1781 360.165 72.9229C359.928 72.6676 359.557 72.54 359.051 72.54C358.641 72.54 358.281 72.6494 357.971 72.8682C357.661 73.0869 357.419 73.374 357.246 73.7295V79H355.981V68.5H357.246V72.499ZM363.357 75.2334C363.357 74.5088 363.496 73.8594 363.774 73.2852C364.057 72.7064 364.453 72.2598 364.964 71.9453C365.479 71.6263 366.062 71.4668 366.714 71.4668C367.657 71.4668 368.439 71.7812 369.059 72.4102C369.382 72.3737 369.617 72.2415 369.763 72.0137C369.909 71.7858 369.981 71.3802 369.981 70.7969H371.007C371.007 72.123 370.535 72.9023 369.592 73.1348C369.924 73.7637 370.091 74.4632 370.091 75.2334V75.3838C370.091 76.1038 369.95 76.7533 369.667 77.332C369.384 77.9108 368.988 78.3574 368.478 78.6719C367.967 78.9818 367.384 79.1367 366.728 79.1367C365.716 79.1367 364.9 78.7881 364.28 78.0908C363.665 77.389 363.357 76.4661 363.357 75.3223V75.2334ZM364.622 75.3838C364.622 76.2041 364.811 76.8626 365.189 77.3594C365.572 77.8561 366.085 78.1045 366.728 78.1045C367.361 78.1045 367.867 77.8561 368.245 77.3594C368.628 76.8581 368.819 76.1859 368.819 75.3428V75.2334C368.819 74.4085 368.626 73.7477 368.238 73.251C367.855 72.7542 367.347 72.5059 366.714 72.5059C366.085 72.5059 365.579 72.7542 365.196 73.251C364.813 73.7477 364.622 74.4587 364.622 75.3838ZM365.928 80.7363C365.928 80.5312 365.989 80.3581 366.112 80.2168C366.24 80.0755 366.427 80.0049 366.673 80.0049C366.919 80.0049 367.106 80.0755 367.233 80.2168C367.361 80.3581 367.425 80.5312 367.425 80.7363C367.425 80.9414 367.361 81.1123 367.233 81.249C367.106 81.3857 366.919 81.4541 366.673 81.4541C366.427 81.4541 366.24 81.3857 366.112 81.249C365.989 81.1123 365.928 80.9414 365.928 80.7363ZM382.683 75.8418C382.56 76.8945 382.17 77.708 381.514 78.2822C380.862 78.8519 379.994 79.1367 378.909 79.1367C377.733 79.1367 376.79 78.7152 376.079 77.8721C375.373 77.029 375.02 75.901 375.02 74.4883V73.5312C375.02 72.6061 375.184 71.7926 375.512 71.0908C375.844 70.389 376.314 69.8512 376.92 69.4775C377.526 69.0993 378.228 68.9102 379.025 68.9102C380.083 68.9102 380.93 69.2064 381.568 69.7988C382.206 70.3867 382.578 71.2025 382.683 72.2461H381.363C381.249 71.4531 381.001 70.8789 380.618 70.5234C380.24 70.168 379.709 69.9902 379.025 69.9902C378.187 69.9902 377.528 70.3001 377.05 70.9199C376.576 71.5397 376.339 72.4215 376.339 73.5654V74.5293C376.339 75.6094 376.564 76.4684 377.016 77.1064C377.467 77.7445 378.098 78.0635 378.909 78.0635C379.638 78.0635 380.197 77.8994 380.584 77.5713C380.976 77.2386 381.236 76.6621 381.363 75.8418H382.683ZM385.547 72.499C386.107 71.8109 386.837 71.4668 387.734 71.4668C389.298 71.4668 390.086 72.3486 390.1 74.1123V79H388.835V74.1055C388.83 73.5723 388.707 73.1781 388.466 72.9229C388.229 72.6676 387.857 72.54 387.352 72.54C386.941 72.54 386.581 72.6494 386.271 72.8682C385.962 73.0869 385.72 73.374 385.547 73.7295V79H384.282V68.5H385.547V72.499ZM396.56 79C396.487 78.8542 396.427 78.5944 396.382 78.2207C395.794 78.8314 395.092 79.1367 394.276 79.1367C393.547 79.1367 392.948 78.9316 392.479 78.5215C392.014 78.1068 391.781 77.5827 391.781 76.9492C391.781 76.179 392.073 75.582 392.656 75.1582C393.244 74.7298 394.069 74.5156 395.131 74.5156H396.361V73.9346C396.361 73.4925 396.229 73.1416 395.965 72.8818C395.701 72.6175 395.311 72.4854 394.796 72.4854C394.345 72.4854 393.966 72.5993 393.661 72.8271C393.356 73.055 393.203 73.3307 393.203 73.6543H391.932C391.932 73.2852 392.062 72.9297 392.321 72.5879C392.586 72.2415 392.941 71.9681 393.388 71.7676C393.839 71.5671 394.333 71.4668 394.871 71.4668C395.723 71.4668 396.391 71.681 396.874 72.1094C397.357 72.5332 397.608 73.1188 397.626 73.8662V77.2705C397.626 77.9495 397.713 78.4896 397.886 78.8906V79H396.56ZM394.461 78.0361C394.857 78.0361 395.233 77.9336 395.589 77.7285C395.944 77.5234 396.202 77.2568 396.361 76.9287V75.4111H395.37C393.821 75.4111 393.046 75.8646 393.046 76.7715C393.046 77.168 393.178 77.4779 393.442 77.7012C393.707 77.9245 394.046 78.0361 394.461 78.0361ZM395.732 70.5098H394.646L392.882 68.5H394.406L395.732 70.5098ZM400.805 71.6035L400.846 72.5332C401.411 71.8223 402.149 71.4668 403.061 71.4668C404.624 71.4668 405.412 72.3486 405.426 74.1123V79H404.161V74.1055C404.157 73.5723 404.034 73.1781 403.792 72.9229C403.555 72.6676 403.184 72.54 402.678 72.54C402.268 72.54 401.908 72.6494 401.598 72.8682C401.288 73.0869 401.046 73.374 400.873 73.7295V79H399.608V71.6035H400.805ZM407.032 75.2402C407.032 74.0872 407.299 73.1712 407.832 72.4922C408.365 71.8086 409.072 71.4668 409.951 71.4668C410.854 71.4668 411.558 71.7858 412.063 72.4238L412.125 71.6035H413.28V78.8223C413.28 79.7793 412.995 80.5335 412.426 81.085C411.861 81.6364 411.1 81.9121 410.143 81.9121C409.609 81.9121 409.088 81.7982 408.577 81.5703C408.067 81.3424 407.677 81.0303 407.408 80.6338L408.064 79.875C408.607 80.5449 409.27 80.8799 410.054 80.8799C410.669 80.8799 411.147 80.7067 411.489 80.3604C411.836 80.014 412.009 79.5264 412.009 78.8975V78.2617C411.503 78.8451 410.812 79.1367 409.938 79.1367C409.072 79.1367 408.37 78.7881 407.832 78.0908C407.299 77.3936 407.032 76.4434 407.032 75.2402ZM408.304 75.3838C408.304 76.2178 408.475 76.874 408.816 77.3525C409.158 77.8265 409.637 78.0635 410.252 78.0635C411.049 78.0635 411.635 77.7012 412.009 76.9766V73.5996C411.621 72.8932 411.04 72.54 410.266 72.54C409.65 72.54 409.17 72.7793 408.823 73.2578C408.477 73.7363 408.304 74.445 408.304 75.3838ZM415.153 80.9824L414.436 80.4902C414.864 79.8932 415.087 79.278 415.105 78.6445V77.5029H416.343V78.4941C416.343 78.9544 416.229 79.4147 416.001 79.875C415.778 80.3353 415.495 80.7044 415.153 80.9824ZM429.263 79H427.943L422.933 71.3301V79H421.613V69.0469H422.933L427.957 76.751V69.0469H429.263V79ZM431.061 75.2334C431.061 74.5088 431.202 73.8571 431.484 73.2783C431.771 72.6995 432.168 72.2529 432.674 71.9385C433.184 71.624 433.765 71.4668 434.417 71.4668C435.424 71.4668 436.238 71.8154 436.857 72.5127C437.482 73.21 437.794 74.1374 437.794 75.2949V75.3838C437.794 76.1038 437.655 76.751 437.377 77.3252C437.104 77.8949 436.709 78.3392 436.194 78.6582C435.684 78.9772 435.096 79.1367 434.431 79.1367C433.428 79.1367 432.615 78.7881 431.99 78.0908C431.37 77.3936 431.061 76.4707 431.061 75.3223V75.2334ZM432.332 75.3838C432.332 76.2041 432.521 76.8626 432.899 77.3594C433.282 77.8561 433.793 78.1045 434.431 78.1045C435.073 78.1045 435.584 77.8538 435.962 77.3525C436.34 76.8467 436.529 76.1403 436.529 75.2334C436.529 74.4222 436.336 73.766 435.948 73.2646C435.565 72.7588 435.055 72.5059 434.417 72.5059C433.793 72.5059 433.289 72.7542 432.906 73.251C432.523 73.7477 432.332 74.4587 432.332 75.3838ZM436.44 70.373V70.4414H435.395L434.369 69.2793L433.351 70.4414H432.305V70.3594L433.986 68.5H434.752L436.44 70.373ZM440.576 71.6035L440.617 72.5332C441.182 71.8223 441.921 71.4668 442.832 71.4668C444.395 71.4668 445.184 72.3486 445.197 74.1123V79H443.933V74.1055C443.928 73.5723 443.805 73.1781 443.563 72.9229C443.326 72.6676 442.955 72.54 442.449 72.54C442.039 72.54 441.679 72.6494 441.369 72.8682C441.059 73.0869 440.818 73.374 440.645 73.7295V79H439.38V71.6035H440.576ZM446.804 75.2402C446.804 74.0872 447.07 73.1712 447.604 72.4922C448.137 71.8086 448.843 71.4668 449.723 71.4668C450.625 71.4668 451.329 71.7858 451.835 72.4238L451.896 71.6035H453.052V78.8223C453.052 79.7793 452.767 80.5335 452.197 81.085C451.632 81.6364 450.871 81.9121 449.914 81.9121C449.381 81.9121 448.859 81.7982 448.349 81.5703C447.838 81.3424 447.449 81.0303 447.18 80.6338L447.836 79.875C448.378 80.5449 449.041 80.8799 449.825 80.8799C450.44 80.8799 450.919 80.7067 451.261 80.3604C451.607 80.014 451.78 79.5264 451.78 78.8975V78.2617C451.274 78.8451 450.584 79.1367 449.709 79.1367C448.843 79.1367 448.141 78.7881 447.604 78.0908C447.07 77.3936 446.804 76.4434 446.804 75.2402ZM448.075 75.3838C448.075 76.2178 448.246 76.874 448.588 77.3525C448.93 77.8265 449.408 78.0635 450.023 78.0635C450.821 78.0635 451.407 77.7012 451.78 76.9766V73.5996C451.393 72.8932 450.812 72.54 450.037 72.54C449.422 72.54 448.941 72.7793 448.595 73.2578C448.248 73.7363 448.075 74.445 448.075 75.3838ZM465.985 77.6943C465.648 78.1774 465.176 78.5397 464.57 78.7812C463.969 79.0182 463.267 79.1367 462.465 79.1367C461.654 79.1367 460.934 78.9476 460.305 78.5693C459.676 78.1865 459.188 77.6442 458.842 76.9424C458.5 76.2406 458.325 75.4271 458.315 74.502V73.6338C458.315 72.1344 458.664 70.9723 459.361 70.1475C460.063 69.3226 461.048 68.9102 462.314 68.9102C463.354 68.9102 464.19 69.1768 464.823 69.71C465.457 70.2386 465.844 70.9906 465.985 71.9658H464.673C464.427 70.6488 463.643 69.9902 462.321 69.9902C461.442 69.9902 460.774 70.3001 460.318 70.9199C459.867 71.5352 459.639 72.4284 459.635 73.5996V74.4131C459.635 75.5296 459.89 76.4183 460.4 77.0791C460.911 77.7354 461.601 78.0635 462.472 78.0635C462.964 78.0635 463.395 78.0088 463.764 77.8994C464.133 77.79 464.438 77.6055 464.68 77.3457V75.1104H462.376V74.0439H465.985V77.6943ZM469.355 79H468.091V71.6035H469.355V79ZM467.988 69.6416C467.988 69.4365 468.05 69.2633 468.173 69.1221C468.3 68.9808 468.487 68.9102 468.733 68.9102C468.979 68.9102 469.166 68.9808 469.294 69.1221C469.422 69.2633 469.485 69.4365 469.485 69.6416C469.485 69.8467 469.422 70.0176 469.294 70.1543C469.166 70.291 468.979 70.3594 468.733 70.3594C468.487 70.3594 468.3 70.291 468.173 70.1543C468.05 70.0176 467.988 69.8467 467.988 69.6416ZM471.413 78.3369C471.413 78.1182 471.477 77.9359 471.604 77.79C471.737 77.6442 471.933 77.5713 472.192 77.5713C472.452 77.5713 472.648 77.6442 472.78 77.79C472.917 77.9359 472.985 78.1182 472.985 78.3369C472.985 78.5465 472.917 78.722 472.78 78.8633C472.648 79.0046 472.452 79.0752 472.192 79.0752C471.933 79.0752 471.737 79.0046 471.604 78.8633C471.477 78.722 471.413 78.5465 471.413 78.3369ZM475.104 78.3369C475.104 78.1182 475.168 77.9359 475.296 77.79C475.428 77.6442 475.624 77.5713 475.884 77.5713C476.144 77.5713 476.34 77.6442 476.472 77.79C476.608 77.9359 476.677 78.1182 476.677 78.3369C476.677 78.5465 476.608 78.722 476.472 78.8633C476.34 79.0046 476.144 79.0752 475.884 79.0752C475.624 79.0752 475.428 79.0046 475.296 78.8633C475.168 78.722 475.104 78.5465 475.104 78.3369ZM478.796 78.3369C478.796 78.1182 478.86 77.9359 478.987 77.79C479.119 77.6442 479.315 77.5713 479.575 77.5713C479.835 77.5713 480.031 77.6442 480.163 77.79C480.3 77.9359 480.368 78.1182 480.368 78.3369C480.368 78.5465 480.3 78.722 480.163 78.8633C480.031 79.0046 479.835 79.0752 479.575 79.0752C479.315 79.0752 479.119 79.0046 478.987 78.8633C478.86 78.722 478.796 78.5465 478.796 78.3369Z" fill="black"/>
<rect x="514" y="35" width="290" height="55" rx="10" fill="#F5F5F5"/>
<path d="M648.139 57V47.0469H651.55C652.675 47.0469 653.532 47.2725 654.12 47.7236C654.708 48.1748 655.002 48.847 655.002 49.7402C655.002 50.196 654.879 50.6061 654.633 50.9707C654.387 51.3353 654.027 51.6178 653.553 51.8184C654.09 51.9642 654.505 52.2399 654.797 52.6455C655.093 53.0465 655.241 53.5296 655.241 54.0947C655.241 55.029 654.94 55.7467 654.339 56.248C653.742 56.7493 652.885 57 651.769 57H648.139ZM649.868 52.5088V55.6191H651.789C652.331 55.6191 652.755 55.4847 653.061 55.2158C653.366 54.9469 653.519 54.5732 653.519 54.0947C653.519 53.0602 652.99 52.5316 651.933 52.5088H649.868ZM649.868 51.2373H651.563C652.101 51.2373 652.521 51.1165 652.821 50.875C653.127 50.6289 653.279 50.2826 653.279 49.8359C653.279 49.3438 653.138 48.9883 652.855 48.7695C652.577 48.5508 652.142 48.4414 651.55 48.4414H649.868V51.2373ZM663.191 52.8096C663.191 54.2406 662.923 55.3206 662.385 56.0498C661.852 56.7744 661.038 57.1367 659.944 57.1367C658.869 57.1367 658.058 56.7835 657.511 56.0771C656.968 55.3662 656.69 54.3158 656.677 52.9258V51.2031C656.677 49.7721 656.943 48.6989 657.477 47.9834C658.014 47.2679 658.832 46.9102 659.931 46.9102C661.02 46.9102 661.831 47.2588 662.364 47.9561C662.902 48.6533 663.178 49.6969 663.191 51.0869V52.8096ZM661.53 50.9502C661.53 50.016 661.403 49.3324 661.147 48.8994C660.892 48.4619 660.487 48.2432 659.931 48.2432C659.388 48.2432 658.99 48.4505 658.734 48.8652C658.479 49.2754 658.345 49.918 658.331 50.793V53.0488C658.331 53.9785 658.461 54.6712 658.721 55.127C658.98 55.5827 659.388 55.8105 659.944 55.8105C660.478 55.8105 660.872 55.6009 661.127 55.1816C661.382 54.7578 661.517 54.097 661.53 53.1992V50.9502ZM665.105 52.0645L665.646 47.0469H670.991V48.4824H667.026L666.753 50.8613C667.213 50.597 667.733 50.4648 668.312 50.4648C669.259 50.4648 669.995 50.7679 670.52 51.374C671.048 51.9801 671.312 52.7959 671.312 53.8213C671.312 54.833 671.021 55.6396 670.438 56.2412C669.854 56.8382 669.054 57.1367 668.038 57.1367C667.127 57.1367 666.37 56.8792 665.769 56.3643C665.172 55.8447 664.848 55.1611 664.798 54.3135H666.404C666.468 54.7965 666.641 55.168 666.924 55.4277C667.206 55.6829 667.576 55.8105 668.031 55.8105C668.542 55.8105 668.938 55.6283 669.221 55.2637C669.508 54.8991 669.651 54.4023 669.651 53.7734C669.651 53.1673 669.494 52.6888 669.18 52.3379C668.865 51.9824 668.432 51.8047 667.881 51.8047C667.58 51.8047 667.325 51.8457 667.115 51.9277C666.906 52.0052 666.678 52.1602 666.432 52.3926L665.105 52.0645ZM538.155 74.3721L536.938 75.6367V79H535.626V69.0469H536.938V73.9688L541.361 69.0469H542.947L539.03 73.4424L543.255 79H541.683L538.155 74.3721ZM545.47 72.499C546.03 71.8109 546.759 71.4668 547.657 71.4668C549.22 71.4668 550.009 72.3486 550.022 74.1123V79H548.758V74.1055C548.753 73.5723 548.63 73.1781 548.389 72.9229C548.152 72.6676 547.78 72.54 547.274 72.54C546.864 72.54 546.504 72.6494 546.194 72.8682C545.884 73.0869 545.643 73.374 545.47 73.7295V79H544.205V68.5H545.47V72.499ZM551.581 75.2334C551.581 74.5088 551.722 73.8571 552.005 73.2783C552.292 72.6995 552.688 72.2529 553.194 71.9385C553.705 71.624 554.286 71.4668 554.938 71.4668C555.945 71.4668 556.758 71.8154 557.378 72.5127C558.002 73.21 558.314 74.1374 558.314 75.2949V75.3838C558.314 76.1038 558.175 76.751 557.897 77.3252C557.624 77.8949 557.23 78.3392 556.715 78.6582C556.204 78.9772 555.617 79.1367 554.951 79.1367C553.949 79.1367 553.135 78.7881 552.511 78.0908C551.891 77.3936 551.581 76.4707 551.581 75.3223V75.2334ZM552.853 75.3838C552.853 76.2041 553.042 76.8626 553.42 77.3594C553.803 77.8561 554.313 78.1045 554.951 78.1045C555.594 78.1045 556.104 77.8538 556.482 77.3525C556.861 76.8467 557.05 76.1403 557.05 75.2334C557.05 74.4222 556.856 73.766 556.469 73.2646C556.086 72.7588 555.576 72.5059 554.938 72.5059C554.313 72.5059 553.81 72.7542 553.427 73.251C553.044 73.7477 552.853 74.4587 552.853 75.3838ZM564.638 72.499C565.198 71.8109 565.927 71.4668 566.825 71.4668C568.388 71.4668 569.177 72.3486 569.19 74.1123V79H567.926V74.1055C567.921 73.5723 567.798 73.1781 567.557 72.9229C567.32 72.6676 566.948 72.54 566.442 72.54C566.032 72.54 565.672 72.6494 565.362 72.8682C565.052 73.0869 564.811 73.374 564.638 73.7295V79H563.373V68.5H564.638V72.499ZM575.65 79C575.577 78.8542 575.518 78.5944 575.473 78.2207C574.885 78.8314 574.183 79.1367 573.367 79.1367C572.638 79.1367 572.039 78.9316 571.569 78.5215C571.104 78.1068 570.872 77.5827 570.872 76.9492C570.872 76.179 571.164 75.582 571.747 75.1582C572.335 74.7298 573.16 74.5156 574.222 74.5156H575.452V73.9346C575.452 73.4925 575.32 73.1416 575.056 72.8818C574.791 72.6175 574.402 72.4854 573.887 72.4854C573.436 72.4854 573.057 72.5993 572.752 72.8271C572.447 73.055 572.294 73.3307 572.294 73.6543H571.022C571.022 73.2852 571.152 72.9297 571.412 72.5879C571.676 72.2415 572.032 71.9681 572.479 71.7676C572.93 71.5671 573.424 71.4668 573.962 71.4668C574.814 71.4668 575.482 71.681 575.965 72.1094C576.448 72.5332 576.699 73.1188 576.717 73.8662V77.2705C576.717 77.9495 576.803 78.4896 576.977 78.8906V79H575.65ZM573.552 78.0361C573.948 78.0361 574.324 77.9336 574.68 77.7285C575.035 77.5234 575.293 77.2568 575.452 76.9287V75.4111H574.461C572.911 75.4111 572.137 75.8646 572.137 76.7715C572.137 77.168 572.269 77.4779 572.533 77.7012C572.798 77.9245 573.137 78.0361 573.552 78.0361ZM574.823 70.5098H573.736L571.973 68.5H573.497L574.823 70.5098ZM579.896 71.6035L579.937 72.5332C580.502 71.8223 581.24 71.4668 582.151 71.4668C583.715 71.4668 584.503 72.3486 584.517 74.1123V79H583.252V74.1055C583.247 73.5723 583.124 73.1781 582.883 72.9229C582.646 72.6676 582.274 72.54 581.769 72.54C581.358 72.54 580.998 72.6494 580.688 72.8682C580.379 73.0869 580.137 73.374 579.964 73.7295V79H578.699V71.6035H579.896ZM586.123 75.2402C586.123 74.0872 586.39 73.1712 586.923 72.4922C587.456 71.8086 588.162 71.4668 589.042 71.4668C589.944 71.4668 590.648 71.7858 591.154 72.4238L591.216 71.6035H592.371V78.8223C592.371 79.7793 592.086 80.5335 591.517 81.085C590.951 81.6364 590.19 81.9121 589.233 81.9121C588.7 81.9121 588.178 81.7982 587.668 81.5703C587.158 81.3424 586.768 81.0303 586.499 80.6338L587.155 79.875C587.698 80.5449 588.361 80.8799 589.145 80.8799C589.76 80.8799 590.238 80.7067 590.58 80.3604C590.926 80.014 591.1 79.5264 591.1 78.8975V78.2617C590.594 78.8451 589.903 79.1367 589.028 79.1367C588.162 79.1367 587.461 78.7881 586.923 78.0908C586.39 77.3936 586.123 76.4434 586.123 75.2402ZM587.395 75.3838C587.395 76.2178 587.565 76.874 587.907 77.3525C588.249 77.8265 588.728 78.0635 589.343 78.0635C590.14 78.0635 590.726 77.7012 591.1 76.9766V73.5996C590.712 72.8932 590.131 72.54 589.356 72.54C588.741 72.54 588.26 72.7793 587.914 73.2578C587.568 73.7363 587.395 74.445 587.395 75.3838ZM605.605 79H604.286L599.275 71.3301V79H597.956V69.0469H599.275L604.3 76.751V69.0469H605.605V79ZM607.403 75.2334C607.403 74.5088 607.545 73.8571 607.827 73.2783C608.114 72.6995 608.511 72.2529 609.017 71.9385C609.527 71.624 610.108 71.4668 610.76 71.4668C611.767 71.4668 612.58 71.8154 613.2 72.5127C613.825 73.21 614.137 74.1374 614.137 75.2949V75.3838C614.137 76.1038 613.998 76.751 613.72 77.3252C613.446 77.8949 613.052 78.3392 612.537 78.6582C612.027 78.9772 611.439 79.1367 610.773 79.1367C609.771 79.1367 608.957 78.7881 608.333 78.0908C607.713 77.3936 607.403 76.4707 607.403 75.3223V75.2334ZM608.675 75.3838C608.675 76.2041 608.864 76.8626 609.242 77.3594C609.625 77.8561 610.135 78.1045 610.773 78.1045C611.416 78.1045 611.926 77.8538 612.305 77.3525C612.683 76.8467 612.872 76.1403 612.872 75.2334C612.872 74.4222 612.678 73.766 612.291 73.2646C611.908 72.7588 611.398 72.5059 610.76 72.5059C610.135 72.5059 609.632 72.7542 609.249 73.251C608.866 73.7477 608.675 74.4587 608.675 75.3838ZM612.783 70.373V70.4414H611.737L610.712 69.2793L609.693 70.4414H608.647V70.3594L610.329 68.5H611.095L612.783 70.373ZM609.987 80.6748C609.987 80.4697 610.049 80.2965 610.172 80.1553C610.299 80.014 610.486 79.9434 610.732 79.9434C610.979 79.9434 611.165 80.014 611.293 80.1553C611.421 80.2965 611.484 80.4697 611.484 80.6748C611.484 80.8799 611.421 81.0508 611.293 81.1875C611.165 81.3242 610.979 81.3926 610.732 81.3926C610.486 81.3926 610.299 81.3242 610.172 81.1875C610.049 81.0508 609.987 80.8799 609.987 80.6748ZM617.097 79H615.832V71.6035H617.097V79ZM615.729 69.6416C615.729 69.4365 615.791 69.2633 615.914 69.1221C616.042 68.9808 616.229 68.9102 616.475 68.9102C616.721 68.9102 616.908 68.9808 617.035 69.1221C617.163 69.2633 617.227 69.4365 617.227 69.6416C617.227 69.8467 617.163 70.0176 617.035 70.1543C616.908 70.291 616.721 70.3594 616.475 70.3594C616.229 70.3594 616.042 70.291 615.914 70.1543C615.791 70.0176 615.729 69.8467 615.729 69.6416ZM622.798 79V69.0469H626.052C627.132 69.0469 627.943 69.2702 628.485 69.7168C629.032 70.1634 629.306 70.8242 629.306 71.6992C629.306 72.1641 629.174 72.5765 628.909 72.9365C628.645 73.292 628.285 73.5677 627.829 73.7637C628.367 73.9141 628.791 74.2012 629.101 74.625C629.415 75.0443 629.572 75.5456 629.572 76.1289C629.572 77.0221 629.283 77.724 628.704 78.2344C628.125 78.7448 627.307 79 626.25 79H622.798ZM624.11 74.3447V77.9268H626.277C626.888 77.9268 627.369 77.7695 627.72 77.4551C628.075 77.1361 628.253 76.6986 628.253 76.1426C628.253 74.944 627.601 74.3447 626.298 74.3447H624.11ZM624.11 73.292H626.093C626.667 73.292 627.125 73.1484 627.467 72.8613C627.813 72.5742 627.986 72.1846 627.986 71.6924C627.986 71.1455 627.827 70.749 627.508 70.5029C627.189 70.2523 626.703 70.127 626.052 70.127H624.11V73.292ZM635.889 79C635.816 78.8542 635.757 78.5944 635.711 78.2207C635.123 78.8314 634.421 79.1367 633.605 79.1367C632.876 79.1367 632.277 78.9316 631.808 78.5215C631.343 78.1068 631.11 77.5827 631.11 76.9492C631.11 76.179 631.402 75.582 631.985 75.1582C632.573 74.7298 633.398 74.5156 634.46 74.5156H635.69V73.9346C635.69 73.4925 635.558 73.1416 635.294 72.8818C635.03 72.6175 634.64 72.4854 634.125 72.4854C633.674 72.4854 633.296 72.5993 632.99 72.8271C632.685 73.055 632.532 73.3307 632.532 73.6543H631.261C631.261 73.2852 631.391 72.9297 631.65 72.5879C631.915 72.2415 632.27 71.9681 632.717 71.7676C633.168 71.5671 633.662 71.4668 634.2 71.4668C635.052 71.4668 635.72 71.681 636.203 72.1094C636.686 72.5332 636.937 73.1188 636.955 73.8662V77.2705C636.955 77.9495 637.042 78.4896 637.215 78.8906V79H635.889ZM633.79 78.0361C634.187 78.0361 634.562 77.9336 634.918 77.7285C635.273 77.5234 635.531 77.2568 635.69 76.9287V75.4111H634.699C633.15 75.4111 632.375 75.8646 632.375 76.7715C632.375 77.168 632.507 77.4779 632.771 77.7012C633.036 77.9245 633.375 78.0361 633.79 78.0361ZM635.062 70.5098H633.975L632.211 68.5H633.735L635.062 70.5098ZM640.312 79H639.047V71.6035H640.312V79ZM638.944 69.6416C638.944 69.4365 639.006 69.2633 639.129 69.1221C639.257 68.9808 639.443 68.9102 639.689 68.9102C639.936 68.9102 640.122 68.9808 640.25 69.1221C640.378 69.2633 640.441 69.4365 640.441 69.6416C640.441 69.8467 640.378 70.0176 640.25 70.1543C640.122 70.291 639.936 70.3594 639.689 70.3594C639.443 70.3594 639.257 70.291 639.129 70.1543C639.006 70.0176 638.944 69.8467 638.944 69.6416ZM642.301 80.9824L641.583 80.4902C642.011 79.8932 642.235 79.278 642.253 78.6445V77.5029H643.49V78.4941C643.49 78.9544 643.376 79.4147 643.148 79.875C642.925 80.3353 642.643 80.7044 642.301 80.9824ZM651.693 74.5635C650.568 74.2399 649.747 73.8434 649.232 73.374C648.722 72.9001 648.467 72.3167 648.467 71.624C648.467 70.8402 648.779 70.193 649.403 69.6826C650.032 69.1676 650.848 68.9102 651.851 68.9102C652.534 68.9102 653.143 69.0423 653.676 69.3066C654.214 69.571 654.628 69.9355 654.92 70.4004C655.216 70.8652 655.364 71.3734 655.364 71.9248H654.045C654.045 71.3232 653.854 70.8516 653.471 70.5098C653.088 70.1634 652.548 69.9902 651.851 69.9902C651.203 69.9902 650.698 70.1338 650.333 70.4209C649.973 70.7035 649.793 71.0977 649.793 71.6035C649.793 72.0091 649.964 72.3532 650.306 72.6357C650.652 72.9137 651.238 73.1689 652.062 73.4014C652.892 73.6338 653.539 73.8913 654.004 74.1738C654.473 74.4518 654.82 74.7777 655.043 75.1514C655.271 75.5251 655.385 75.9648 655.385 76.4707C655.385 77.2773 655.07 77.9245 654.441 78.4121C653.812 78.8952 652.972 79.1367 651.919 79.1367C651.235 79.1367 650.597 79.0068 650.005 78.7471C649.412 78.4827 648.954 78.1227 648.631 77.667C648.312 77.2113 648.152 76.694 648.152 76.1152H649.472C649.472 76.7168 649.693 77.193 650.135 77.5439C650.581 77.8903 651.176 78.0635 651.919 78.0635C652.612 78.0635 653.143 77.9222 653.512 77.6396C653.881 77.3571 654.065 76.972 654.065 76.4844C654.065 75.9967 653.895 75.6208 653.553 75.3564C653.211 75.0876 652.591 74.8232 651.693 74.5635ZM661.441 79C661.368 78.8542 661.309 78.5944 661.264 78.2207C660.676 78.8314 659.974 79.1367 659.158 79.1367C658.429 79.1367 657.83 78.9316 657.36 78.5215C656.896 78.1068 656.663 77.5827 656.663 76.9492C656.663 76.179 656.955 75.582 657.538 75.1582C658.126 74.7298 658.951 74.5156 660.013 74.5156H661.243V73.9346C661.243 73.4925 661.111 73.1416 660.847 72.8818C660.582 72.6175 660.193 72.4854 659.678 72.4854C659.227 72.4854 658.848 72.5993 658.543 72.8271C658.238 73.055 658.085 73.3307 658.085 73.6543H656.813C656.813 73.2852 656.943 72.9297 657.203 72.5879C657.467 72.2415 657.823 71.9681 658.27 71.7676C658.721 71.5671 659.215 71.4668 659.753 71.4668C660.605 71.4668 661.273 71.681 661.756 72.1094C662.239 72.5332 662.49 73.1188 662.508 73.8662V77.2705C662.508 77.9495 662.594 78.4896 662.768 78.8906V79H661.441ZM659.343 78.0361C659.739 78.0361 660.115 77.9336 660.471 77.7285C660.826 77.5234 661.084 77.2568 661.243 76.9287V75.4111H660.252C658.702 75.4111 657.928 75.8646 657.928 76.7715C657.928 77.168 658.06 77.4779 658.324 77.7012C658.589 77.9245 658.928 78.0361 659.343 78.0361ZM661.961 70.373V70.4414H660.915L659.89 69.2793L658.871 70.4414H657.825V70.3594L659.507 68.5H660.272L661.961 70.373ZM665.687 71.6035L665.728 72.5332C666.293 71.8223 667.031 71.4668 667.942 71.4668C669.506 71.4668 670.294 72.3486 670.308 74.1123V79H669.043V74.1055C669.038 73.5723 668.915 73.1781 668.674 72.9229C668.437 72.6676 668.065 72.54 667.56 72.54C667.149 72.54 666.789 72.6494 666.479 72.8682C666.17 73.0869 665.928 73.374 665.755 73.7295V79H664.49V71.6035H665.687ZM675.886 79V69.0469H679.14C680.22 69.0469 681.031 69.2702 681.573 69.7168C682.12 70.1634 682.394 70.8242 682.394 71.6992C682.394 72.1641 682.261 72.5765 681.997 72.9365C681.733 73.292 681.373 73.5677 680.917 73.7637C681.455 73.9141 681.879 74.2012 682.188 74.625C682.503 75.0443 682.66 75.5456 682.66 76.1289C682.66 77.0221 682.371 77.724 681.792 78.2344C681.213 78.7448 680.395 79 679.338 79H675.886ZM677.198 74.3447V77.9268H679.365C679.976 77.9268 680.457 77.7695 680.808 77.4551C681.163 77.1361 681.341 76.6986 681.341 76.1426C681.341 74.944 680.689 74.3447 679.386 74.3447H677.198ZM677.198 73.292H679.181C679.755 73.292 680.213 73.1484 680.555 72.8613C680.901 72.5742 681.074 72.1846 681.074 71.6924C681.074 71.1455 680.915 70.749 680.596 70.5029C680.277 70.2523 679.791 70.127 679.14 70.127H677.198V73.292ZM688.977 79C688.904 78.8542 688.844 78.5944 688.799 78.2207C688.211 78.8314 687.509 79.1367 686.693 79.1367C685.964 79.1367 685.365 78.9316 684.896 78.5215C684.431 78.1068 684.198 77.5827 684.198 76.9492C684.198 76.179 684.49 75.582 685.073 75.1582C685.661 74.7298 686.486 74.5156 687.548 74.5156H688.778V73.9346C688.778 73.4925 688.646 73.1416 688.382 72.8818C688.118 72.6175 687.728 72.4854 687.213 72.4854C686.762 72.4854 686.383 72.5993 686.078 72.8271C685.773 73.055 685.62 73.3307 685.62 73.6543H684.349C684.349 73.2852 684.479 72.9297 684.738 72.5879C685.003 72.2415 685.358 71.9681 685.805 71.7676C686.256 71.5671 686.75 71.4668 687.288 71.4668C688.14 71.4668 688.808 71.681 689.291 72.1094C689.774 72.5332 690.025 73.1188 690.043 73.8662V77.2705C690.043 77.9495 690.13 78.4896 690.303 78.8906V79H688.977ZM686.878 78.0361C687.274 78.0361 687.65 77.9336 688.006 77.7285C688.361 77.5234 688.619 77.2568 688.778 76.9287V75.4111H687.787C686.238 75.4111 685.463 75.8646 685.463 76.7715C685.463 77.168 685.595 77.4779 685.859 77.7012C686.124 77.9245 686.463 78.0361 686.878 78.0361ZM694.336 77.1475L696.059 71.6035H697.412L694.438 80.1416C693.978 81.3721 693.247 81.9873 692.244 81.9873L692.005 81.9668L691.533 81.8779V80.8525L691.875 80.8799C692.303 80.8799 692.636 80.7933 692.873 80.6201C693.115 80.4469 693.313 80.1302 693.468 79.6699L693.748 78.918L691.109 71.6035H692.49L694.336 77.1475ZM709.819 74.3447C709.819 75.3063 709.667 76.1357 709.361 76.833C709.056 77.5257 708.628 78.068 708.076 78.46L709.854 79.8545L708.958 80.6816L706.859 79.0137C706.531 79.0957 706.185 79.1367 705.82 79.1367C705.036 79.1367 704.341 78.9453 703.735 78.5625C703.129 78.1751 702.658 77.626 702.32 76.915C701.988 76.1995 701.817 75.3724 701.808 74.4336V73.7158C701.808 72.7588 701.974 71.9134 702.307 71.1797C702.639 70.446 703.109 69.8854 703.715 69.498C704.326 69.1061 705.023 68.9102 705.807 68.9102C706.609 68.9102 707.313 69.1038 707.919 69.4912C708.53 69.8786 708.999 70.4368 709.327 71.166C709.655 71.8906 709.819 72.7383 709.819 73.709V74.3447ZM708.507 73.7021C708.507 72.5309 708.272 71.6286 707.803 70.9951C707.338 70.3571 706.673 70.0381 705.807 70.0381C704.982 70.0381 704.33 70.3548 703.852 70.9883C703.378 71.6172 703.134 72.4922 703.12 73.6133V74.3447C703.12 75.484 703.357 76.3818 703.831 77.0381C704.31 77.6943 704.973 78.0225 705.82 78.0225C706.668 78.0225 707.324 77.7148 707.789 77.0996C708.254 76.4798 708.493 75.5934 708.507 74.4404V73.7021ZM716.211 78.2686C715.719 78.8473 714.996 79.1367 714.044 79.1367C713.256 79.1367 712.654 78.9089 712.239 78.4531C711.829 77.9928 711.622 77.3138 711.617 76.416V71.6035H712.882V76.3818C712.882 77.5029 713.338 78.0635 714.249 78.0635C715.215 78.0635 715.858 77.7035 716.177 76.9834V71.6035H717.441V79H716.238L716.211 78.2686ZM719.034 75.2334C719.034 74.5088 719.175 73.8571 719.458 73.2783C719.745 72.6995 720.142 72.2529 720.647 71.9385C721.158 71.624 721.739 71.4668 722.391 71.4668C723.398 71.4668 724.211 71.8154 724.831 72.5127C725.455 73.21 725.768 74.1374 725.768 75.2949V75.3838C725.768 76.1038 725.629 76.751 725.351 77.3252C725.077 77.8949 724.683 78.3392 724.168 78.6582C723.658 78.9772 723.07 79.1367 722.404 79.1367C721.402 79.1367 720.588 78.7881 719.964 78.0908C719.344 77.3936 719.034 76.4707 719.034 75.3223V75.2334ZM720.306 75.3838C720.306 76.2041 720.495 76.8626 720.873 77.3594C721.256 77.8561 721.766 78.1045 722.404 78.1045C723.047 78.1045 723.557 77.8538 723.936 77.3525C724.314 76.8467 724.503 76.1403 724.503 75.2334C724.503 74.4222 724.309 73.766 723.922 73.2646C723.539 72.7588 723.029 72.5059 722.391 72.5059C721.766 72.5059 721.263 72.7542 720.88 73.251C720.497 73.7477 720.306 74.4587 720.306 75.3838ZM721.83 68.7119H722.869L724.852 70.5098H723.505L722.35 69.4229L721.188 70.5098H719.834L721.83 68.7119ZM725.316 67.5293H726.684L725.31 69.2998H724.346L725.316 67.5293ZM730.32 78.1045C730.771 78.1045 731.166 77.9678 731.503 77.6943C731.84 77.4209 732.027 77.0791 732.063 76.6689H733.26C733.237 77.0928 733.091 77.4961 732.822 77.8789C732.553 78.2617 732.193 78.5671 731.742 78.7949C731.296 79.0228 730.822 79.1367 730.32 79.1367C729.313 79.1367 728.511 78.8018 727.914 78.1318C727.322 77.4574 727.025 76.5368 727.025 75.3701V75.1582C727.025 74.4382 727.158 73.7979 727.422 73.2373C727.686 72.6768 728.064 72.2415 728.557 71.9316C729.053 71.6217 729.639 71.4668 730.313 71.4668C731.143 71.4668 731.831 71.7152 732.378 72.2119C732.929 72.7087 733.223 73.3535 733.26 74.1465H732.063C732.027 73.668 731.845 73.276 731.517 72.9707C731.193 72.6608 730.792 72.5059 730.313 72.5059C729.671 72.5059 729.172 72.7383 728.816 73.2031C728.465 73.6634 728.29 74.3311 728.29 75.2061V75.4453C728.29 76.2975 728.465 76.9538 728.816 77.4141C729.167 77.8743 729.669 78.1045 730.32 78.1045ZM744.956 70.127H741.757V79H740.451V70.127H737.259V69.0469H744.956V70.127ZM748.62 79.1367C747.618 79.1367 746.802 78.8086 746.173 78.1523C745.544 77.4915 745.229 76.6097 745.229 75.5068V75.2744C745.229 74.5407 745.368 73.8867 745.646 73.3125C745.929 72.7337 746.321 72.2826 746.822 71.959C747.328 71.6309 747.875 71.4668 748.463 71.4668C749.424 71.4668 750.172 71.7835 750.705 72.417C751.238 73.0505 751.505 73.9574 751.505 75.1377V75.6641H746.494C746.512 76.3932 746.724 76.9834 747.13 77.4346C747.54 77.8812 748.06 78.1045 748.688 78.1045C749.135 78.1045 749.513 78.0133 749.823 77.8311C750.133 77.6488 750.404 77.4072 750.637 77.1064L751.409 77.708C750.789 78.6605 749.86 79.1367 748.62 79.1367ZM748.463 72.5059C747.952 72.5059 747.524 72.6927 747.178 73.0664C746.831 73.4355 746.617 73.9551 746.535 74.625H750.24V74.5293C750.204 73.8867 750.031 73.39 749.721 73.0391C749.411 72.6836 748.992 72.5059 748.463 72.5059ZM747.943 68.7119H748.982L750.965 70.5098H749.618L748.463 69.4229L747.301 70.5098H745.947L747.943 68.7119ZM751.43 67.5293H752.797L751.423 69.2998H750.459L751.43 67.5293ZM764.295 79H762.976L757.965 71.3301V79H756.646V69.0469H757.965L762.989 76.751V69.0469H764.295V79ZM766.093 75.2334C766.093 74.5088 766.234 73.8571 766.517 73.2783C766.804 72.6995 767.2 72.2529 767.706 71.9385C768.216 71.624 768.798 71.4668 769.449 71.4668C770.456 71.4668 771.27 71.8154 771.89 72.5127C772.514 73.21 772.826 74.1374 772.826 75.2949V75.3838C772.826 76.1038 772.687 76.751 772.409 77.3252C772.136 77.8949 771.742 78.3392 771.227 78.6582C770.716 78.9772 770.128 79.1367 769.463 79.1367C768.46 79.1367 767.647 78.7881 767.022 78.0908C766.403 77.3936 766.093 76.4707 766.093 75.3223V75.2334ZM767.364 75.3838C767.364 76.2041 767.553 76.8626 767.932 77.3594C768.314 77.8561 768.825 78.1045 769.463 78.1045C770.105 78.1045 770.616 77.8538 770.994 77.3525C771.372 76.8467 771.562 76.1403 771.562 75.2334C771.562 74.4222 771.368 73.766 770.98 73.2646C770.598 72.7588 770.087 72.5059 769.449 72.5059C768.825 72.5059 768.321 72.7542 767.938 73.251C767.556 73.7477 767.364 74.4587 767.364 75.3838ZM771.473 70.373V70.4414H770.427L769.401 69.2793L768.383 70.4414H767.337V70.3594L769.019 68.5H769.784L771.473 70.373ZM768.677 80.6748C768.677 80.4697 768.738 80.2965 768.861 80.1553C768.989 80.014 769.176 79.9434 769.422 79.9434C769.668 79.9434 769.855 80.014 769.982 80.1553C770.11 80.2965 770.174 80.4697 770.174 80.6748C770.174 80.8799 770.11 81.0508 769.982 81.1875C769.855 81.3242 769.668 81.3926 769.422 81.3926C769.176 81.3926 768.989 81.3242 768.861 81.1875C768.738 81.0508 768.677 80.8799 768.677 80.6748ZM774.439 78.3369C774.439 78.1182 774.503 77.9359 774.631 77.79C774.763 77.6442 774.959 77.5713 775.219 77.5713C775.479 77.5713 775.674 77.6442 775.807 77.79C775.943 77.9359 776.012 78.1182 776.012 78.3369C776.012 78.5465 775.943 78.722 775.807 78.8633C775.674 79.0046 775.479 79.0752 775.219 79.0752C774.959 79.0752 774.763 79.0046 774.631 78.8633C774.503 78.722 774.439 78.5465 774.439 78.3369ZM778.131 78.3369C778.131 78.1182 778.195 77.9359 778.322 77.79C778.454 77.6442 778.65 77.5713 778.91 77.5713C779.17 77.5713 779.366 77.6442 779.498 77.79C779.635 77.9359 779.703 78.1182 779.703 78.3369C779.703 78.5465 779.635 78.722 779.498 78.8633C779.366 79.0046 779.17 79.0752 778.91 79.0752C778.65 79.0752 778.454 79.0046 778.322 78.8633C778.195 78.722 778.131 78.5465 778.131 78.3369ZM781.822 78.3369C781.822 78.1182 781.886 77.9359 782.014 77.79C782.146 77.6442 782.342 77.5713 782.602 77.5713C782.861 77.5713 783.057 77.6442 783.189 77.79C783.326 77.9359 783.395 78.1182 783.395 78.3369C783.395 78.5465 783.326 78.722 783.189 78.8633C783.057 79.0046 782.861 79.0752 782.602 79.0752C782.342 79.0752 782.146 79.0046 782.014 78.8633C781.886 78.722 781.822 78.5465 781.822 78.3369Z" fill="black"/>
<rect x="514" y="133" width="290" height="55" rx="10" fill="#F5F5F5"/>
<path d="M647.639 155V145.047H651.05C652.175 145.047 653.032 145.272 653.62 145.724C654.208 146.175 654.502 146.847 654.502 147.74C654.502 148.196 654.379 148.606 654.133 148.971C653.887 149.335 653.527 149.618 653.053 149.818C653.59 149.964 654.005 150.24 654.297 150.646C654.593 151.047 654.741 151.53 654.741 152.095C654.741 153.029 654.44 153.747 653.839 154.248C653.242 154.749 652.385 155 651.269 155H647.639ZM649.368 150.509V153.619H651.289C651.831 153.619 652.255 153.485 652.561 153.216C652.866 152.947 653.019 152.573 653.019 152.095C653.019 151.06 652.49 150.532 651.433 150.509H649.368ZM649.368 149.237H651.063C651.601 149.237 652.021 149.117 652.321 148.875C652.627 148.629 652.779 148.283 652.779 147.836C652.779 147.344 652.638 146.988 652.355 146.77C652.077 146.551 651.642 146.441 651.05 146.441H649.368V149.237ZM662.691 150.81C662.691 152.241 662.423 153.321 661.885 154.05C661.352 154.774 660.538 155.137 659.444 155.137C658.369 155.137 657.558 154.784 657.011 154.077C656.468 153.366 656.19 152.316 656.177 150.926V149.203C656.177 147.772 656.443 146.699 656.977 145.983C657.514 145.268 658.332 144.91 659.431 144.91C660.52 144.91 661.331 145.259 661.864 145.956C662.402 146.653 662.678 147.697 662.691 149.087V150.81ZM661.03 148.95C661.03 148.016 660.903 147.332 660.647 146.899C660.392 146.462 659.987 146.243 659.431 146.243C658.888 146.243 658.49 146.451 658.234 146.865C657.979 147.275 657.845 147.918 657.831 148.793V151.049C657.831 151.979 657.961 152.671 658.221 153.127C658.48 153.583 658.888 153.811 659.444 153.811C659.978 153.811 660.372 153.601 660.627 153.182C660.882 152.758 661.017 152.097 661.03 151.199V148.95ZM666.082 149.265H667.094C667.604 149.26 668.007 149.128 668.304 148.868C668.604 148.608 668.755 148.232 668.755 147.74C668.755 147.266 668.63 146.899 668.379 146.64C668.133 146.375 667.755 146.243 667.244 146.243C666.798 146.243 666.431 146.373 666.144 146.633C665.856 146.888 665.713 147.223 665.713 147.638H664.052C664.052 147.127 664.186 146.662 664.455 146.243C664.729 145.824 665.107 145.498 665.59 145.266C666.077 145.029 666.622 144.91 667.224 144.91C668.217 144.91 668.996 145.161 669.562 145.662C670.131 146.159 670.416 146.852 670.416 147.74C670.416 148.187 670.272 148.608 669.985 149.005C669.703 149.397 669.336 149.693 668.885 149.894C669.432 150.08 669.846 150.374 670.129 150.775C670.416 151.176 670.56 151.655 670.56 152.211C670.56 153.104 670.252 153.815 669.637 154.344C669.026 154.872 668.222 155.137 667.224 155.137C666.267 155.137 665.483 154.882 664.872 154.371C664.261 153.861 663.956 153.182 663.956 152.334H665.617C665.617 152.771 665.763 153.127 666.055 153.4C666.351 153.674 666.747 153.811 667.244 153.811C667.759 153.811 668.165 153.674 668.461 153.4C668.757 153.127 668.905 152.73 668.905 152.211C668.905 151.687 668.75 151.284 668.44 151.001C668.131 150.718 667.67 150.577 667.06 150.577H666.082V149.265ZM538.182 172.372L536.965 173.637V177H535.652V167.047H536.965V171.969L541.388 167.047H542.974L539.057 171.442L543.281 177H541.709L538.182 172.372ZM545.496 170.499C546.057 169.811 546.786 169.467 547.684 169.467C549.247 169.467 550.035 170.349 550.049 172.112V177H548.784V172.105C548.78 171.572 548.657 171.178 548.415 170.923C548.178 170.668 547.807 170.54 547.301 170.54C546.891 170.54 546.531 170.649 546.221 170.868C545.911 171.087 545.669 171.374 545.496 171.729V177H544.231V166.5H545.496V170.499ZM556.509 176.269C556.017 176.847 555.294 177.137 554.342 177.137C553.553 177.137 552.952 176.909 552.537 176.453C552.127 175.993 551.92 175.314 551.915 174.416V169.604H553.18V174.382C553.18 175.503 553.635 176.063 554.547 176.063C555.513 176.063 556.156 175.703 556.475 174.983V169.604H557.739V177H556.536L556.509 176.269ZM564.404 170.499C564.965 169.811 565.694 169.467 566.592 169.467C568.155 169.467 568.943 170.349 568.957 172.112V177H567.692V172.105C567.688 171.572 567.565 171.178 567.323 170.923C567.086 170.668 566.715 170.54 566.209 170.54C565.799 170.54 565.439 170.649 565.129 170.868C564.819 171.087 564.577 171.374 564.404 171.729V177H563.14V166.5H564.404V170.499ZM575.417 177C575.344 176.854 575.285 176.594 575.239 176.221C574.651 176.831 573.95 177.137 573.134 177.137C572.405 177.137 571.805 176.932 571.336 176.521C570.871 176.107 570.639 175.583 570.639 174.949C570.639 174.179 570.93 173.582 571.514 173.158C572.102 172.73 572.926 172.516 573.988 172.516H575.219V171.935C575.219 171.493 575.087 171.142 574.822 170.882C574.558 170.618 574.168 170.485 573.653 170.485C573.202 170.485 572.824 170.599 572.519 170.827C572.213 171.055 572.061 171.331 572.061 171.654H570.789C570.789 171.285 570.919 170.93 571.179 170.588C571.443 170.242 571.799 169.968 572.245 169.768C572.696 169.567 573.191 169.467 573.729 169.467C574.581 169.467 575.248 169.681 575.731 170.109C576.215 170.533 576.465 171.119 576.483 171.866V175.271C576.483 175.95 576.57 176.49 576.743 176.891V177H575.417ZM573.318 176.036C573.715 176.036 574.091 175.934 574.446 175.729C574.802 175.523 575.059 175.257 575.219 174.929V173.411H574.228C572.678 173.411 571.903 173.865 571.903 174.771C571.903 175.168 572.035 175.478 572.3 175.701C572.564 175.924 572.904 176.036 573.318 176.036ZM574.59 168.51H573.503L571.739 166.5H573.264L574.59 168.51ZM579.662 169.604L579.703 170.533C580.268 169.822 581.007 169.467 581.918 169.467C583.481 169.467 584.27 170.349 584.283 172.112V177H583.019V172.105C583.014 171.572 582.891 171.178 582.649 170.923C582.412 170.668 582.041 170.54 581.535 170.54C581.125 170.54 580.765 170.649 580.455 170.868C580.145 171.087 579.904 171.374 579.73 171.729V177H578.466V169.604H579.662ZM587.455 170.499C588.016 169.811 588.745 169.467 589.643 169.467C591.206 169.467 591.994 170.349 592.008 172.112V177H590.743V172.105C590.739 171.572 590.616 171.178 590.374 170.923C590.137 170.668 589.766 170.54 589.26 170.54C588.85 170.54 588.49 170.649 588.18 170.868C587.87 171.087 587.628 171.374 587.455 171.729V177H586.19V166.5H587.455V170.499ZM600.341 176.104C600.792 176.104 601.186 175.968 601.523 175.694C601.861 175.421 602.048 175.079 602.084 174.669H603.28C603.257 175.093 603.112 175.496 602.843 175.879C602.574 176.262 602.214 176.567 601.763 176.795C601.316 177.023 600.842 177.137 600.341 177.137C599.334 177.137 598.532 176.802 597.935 176.132C597.342 175.457 597.046 174.537 597.046 173.37V173.158C597.046 172.438 597.178 171.798 597.442 171.237C597.707 170.677 598.085 170.242 598.577 169.932C599.074 169.622 599.66 169.467 600.334 169.467C601.163 169.467 601.852 169.715 602.398 170.212C602.95 170.709 603.244 171.354 603.28 172.146H602.084C602.048 171.668 601.865 171.276 601.537 170.971C601.214 170.661 600.812 170.506 600.334 170.506C599.691 170.506 599.192 170.738 598.837 171.203C598.486 171.663 598.311 172.331 598.311 173.206V173.445C598.311 174.298 598.486 174.954 598.837 175.414C599.188 175.874 599.689 176.104 600.341 176.104ZM605.967 170.499C606.527 169.811 607.257 169.467 608.154 169.467C609.717 169.467 610.506 170.349 610.52 172.112V177H609.255V172.105C609.25 171.572 609.127 171.178 608.886 170.923C608.649 170.668 608.277 170.54 607.771 170.54C607.361 170.54 607.001 170.649 606.691 170.868C606.382 171.087 606.14 171.374 605.967 171.729V177H604.702V166.5H605.967V170.499ZM613.787 177H612.516V169.604H613.787V177ZM613.801 166.507H615.332L613.5 168.517H612.481L613.801 166.507ZM617.068 169.604L617.109 170.533C617.674 169.822 618.413 169.467 619.324 169.467C620.887 169.467 621.676 170.349 621.689 172.112V177H620.425V172.105C620.42 171.572 620.297 171.178 620.056 170.923C619.819 170.668 619.447 170.54 618.941 170.54C618.531 170.54 618.171 170.649 617.861 170.868C617.551 171.087 617.31 171.374 617.137 171.729V177H615.872V169.604H617.068ZM624.861 170.499C625.422 169.811 626.151 169.467 627.049 169.467C628.612 169.467 629.4 170.349 629.414 172.112V177H628.149V172.105C628.145 171.572 628.022 171.178 627.78 170.923C627.543 170.668 627.172 170.54 626.666 170.54C626.256 170.54 625.896 170.649 625.586 170.868C625.276 171.087 625.035 171.374 624.861 171.729V177H623.597V166.5H624.861V170.499ZM641.172 177H634.65V176.091L638.096 172.263C638.606 171.684 638.957 171.215 639.148 170.854C639.344 170.49 639.442 170.114 639.442 169.727C639.442 169.207 639.285 168.781 638.971 168.448C638.656 168.116 638.237 167.949 637.713 167.949C637.084 167.949 636.594 168.129 636.243 168.489C635.897 168.845 635.724 169.341 635.724 169.979H634.459C634.459 169.063 634.753 168.323 635.341 167.758C635.933 167.193 636.724 166.91 637.713 166.91C638.638 166.91 639.369 167.154 639.907 167.642C640.445 168.125 640.714 168.77 640.714 169.576C640.714 170.556 640.09 171.723 638.841 173.076L636.175 175.968H641.172V177ZM642.601 178.982L641.883 178.49C642.311 177.893 642.535 177.278 642.553 176.645V175.503H643.79V176.494C643.79 176.954 643.676 177.415 643.448 177.875C643.225 178.335 642.942 178.704 642.601 178.982ZM656.382 173.842C656.259 174.895 655.869 175.708 655.213 176.282C654.561 176.852 653.693 177.137 652.608 177.137C651.433 177.137 650.489 176.715 649.778 175.872C649.072 175.029 648.719 173.901 648.719 172.488V171.531C648.719 170.606 648.883 169.793 649.211 169.091C649.544 168.389 650.013 167.851 650.619 167.478C651.225 167.099 651.927 166.91 652.725 166.91C653.782 166.91 654.63 167.206 655.268 167.799C655.906 168.387 656.277 169.202 656.382 170.246H655.062C654.949 169.453 654.7 168.879 654.317 168.523C653.939 168.168 653.408 167.99 652.725 167.99C651.886 167.99 651.228 168.3 650.749 168.92C650.275 169.54 650.038 170.422 650.038 171.565V172.529C650.038 173.609 650.264 174.468 650.715 175.106C651.166 175.744 651.797 176.063 652.608 176.063C653.338 176.063 653.896 175.899 654.283 175.571C654.675 175.239 654.935 174.662 655.062 173.842H656.382ZM659.246 170.499C659.807 169.811 660.536 169.467 661.434 169.467C662.997 169.467 663.785 170.349 663.799 172.112V177H662.534V172.105C662.53 171.572 662.407 171.178 662.165 170.923C661.928 170.668 661.557 170.54 661.051 170.54C660.641 170.54 660.281 170.649 659.971 170.868C659.661 171.087 659.419 171.374 659.246 171.729V177H657.981V166.5H659.246V170.499ZM665.357 173.233C665.357 172.509 665.496 171.859 665.774 171.285C666.057 170.706 666.453 170.26 666.964 169.945C667.479 169.626 668.062 169.467 668.714 169.467C669.657 169.467 670.439 169.781 671.059 170.41C671.382 170.374 671.617 170.242 671.763 170.014C671.909 169.786 671.981 169.38 671.981 168.797H673.007C673.007 170.123 672.535 170.902 671.592 171.135C671.924 171.764 672.091 172.463 672.091 173.233V173.384C672.091 174.104 671.95 174.753 671.667 175.332C671.384 175.911 670.988 176.357 670.478 176.672C669.967 176.982 669.384 177.137 668.728 177.137C667.716 177.137 666.9 176.788 666.28 176.091C665.665 175.389 665.357 174.466 665.357 173.322V173.233ZM666.622 173.384C666.622 174.204 666.811 174.863 667.189 175.359C667.572 175.856 668.085 176.104 668.728 176.104C669.361 176.104 669.867 175.856 670.245 175.359C670.628 174.858 670.819 174.186 670.819 173.343V173.233C670.819 172.409 670.626 171.748 670.238 171.251C669.855 170.754 669.347 170.506 668.714 170.506C668.085 170.506 667.579 170.754 667.196 171.251C666.813 171.748 666.622 172.459 666.622 173.384ZM667.928 178.736C667.928 178.531 667.989 178.358 668.112 178.217C668.24 178.076 668.427 178.005 668.673 178.005C668.919 178.005 669.106 178.076 669.233 178.217C669.361 178.358 669.425 178.531 669.425 178.736C669.425 178.941 669.361 179.112 669.233 179.249C669.106 179.386 668.919 179.454 668.673 179.454C668.427 179.454 668.24 179.386 668.112 179.249C667.989 179.112 667.928 178.941 667.928 178.736ZM684.683 173.842C684.56 174.895 684.17 175.708 683.514 176.282C682.862 176.852 681.994 177.137 680.909 177.137C679.733 177.137 678.79 176.715 678.079 175.872C677.373 175.029 677.02 173.901 677.02 172.488V171.531C677.02 170.606 677.184 169.793 677.512 169.091C677.844 168.389 678.314 167.851 678.92 167.478C679.526 167.099 680.228 166.91 681.025 166.91C682.083 166.91 682.93 167.206 683.568 167.799C684.206 168.387 684.578 169.202 684.683 170.246H683.363C683.249 169.453 683.001 168.879 682.618 168.523C682.24 168.168 681.709 167.99 681.025 167.99C680.187 167.99 679.528 168.3 679.05 168.92C678.576 169.54 678.339 170.422 678.339 171.565V172.529C678.339 173.609 678.564 174.468 679.016 175.106C679.467 175.744 680.098 176.063 680.909 176.063C681.638 176.063 682.197 175.899 682.584 175.571C682.976 175.239 683.236 174.662 683.363 173.842H684.683ZM687.547 170.499C688.107 169.811 688.837 169.467 689.734 169.467C691.298 169.467 692.086 170.349 692.1 172.112V177H690.835V172.105C690.83 171.572 690.707 171.178 690.466 170.923C690.229 170.668 689.857 170.54 689.352 170.54C688.941 170.54 688.581 170.649 688.271 170.868C687.962 171.087 687.72 171.374 687.547 171.729V177H686.282V166.5H687.547V170.499ZM698.56 177C698.487 176.854 698.427 176.594 698.382 176.221C697.794 176.831 697.092 177.137 696.276 177.137C695.547 177.137 694.948 176.932 694.479 176.521C694.014 176.107 693.781 175.583 693.781 174.949C693.781 174.179 694.073 173.582 694.656 173.158C695.244 172.73 696.069 172.516 697.131 172.516H698.361V171.935C698.361 171.493 698.229 171.142 697.965 170.882C697.701 170.618 697.311 170.485 696.796 170.485C696.345 170.485 695.966 170.599 695.661 170.827C695.356 171.055 695.203 171.331 695.203 171.654H693.932C693.932 171.285 694.062 170.93 694.321 170.588C694.586 170.242 694.941 169.968 695.388 169.768C695.839 169.567 696.333 169.467 696.871 169.467C697.723 169.467 698.391 169.681 698.874 170.109C699.357 170.533 699.608 171.119 699.626 171.866V175.271C699.626 175.95 699.713 176.49 699.886 176.891V177H698.56ZM696.461 176.036C696.857 176.036 697.233 175.934 697.589 175.729C697.944 175.523 698.202 175.257 698.361 174.929V173.411H697.37C695.821 173.411 695.046 173.865 695.046 174.771C695.046 175.168 695.178 175.478 695.442 175.701C695.707 175.924 696.046 176.036 696.461 176.036ZM697.732 168.51H696.646L694.882 166.5H696.406L697.732 168.51ZM702.805 169.604L702.846 170.533C703.411 169.822 704.149 169.467 705.061 169.467C706.624 169.467 707.412 170.349 707.426 172.112V177H706.161V172.105C706.157 171.572 706.034 171.178 705.792 170.923C705.555 170.668 705.184 170.54 704.678 170.54C704.268 170.54 703.908 170.649 703.598 170.868C703.288 171.087 703.046 171.374 702.873 171.729V177H701.608V169.604H702.805ZM709.032 173.24C709.032 172.087 709.299 171.171 709.832 170.492C710.365 169.809 711.072 169.467 711.951 169.467C712.854 169.467 713.558 169.786 714.063 170.424L714.125 169.604H715.28V176.822C715.28 177.779 714.995 178.534 714.426 179.085C713.861 179.636 713.1 179.912 712.143 179.912C711.609 179.912 711.088 179.798 710.577 179.57C710.067 179.342 709.677 179.03 709.408 178.634L710.064 177.875C710.607 178.545 711.27 178.88 712.054 178.88C712.669 178.88 713.147 178.707 713.489 178.36C713.836 178.014 714.009 177.526 714.009 176.897V176.262C713.503 176.845 712.812 177.137 711.938 177.137C711.072 177.137 710.37 176.788 709.832 176.091C709.299 175.394 709.032 174.443 709.032 173.24ZM710.304 173.384C710.304 174.218 710.475 174.874 710.816 175.353C711.158 175.826 711.637 176.063 712.252 176.063C713.049 176.063 713.635 175.701 714.009 174.977V171.6C713.621 170.893 713.04 170.54 712.266 170.54C711.65 170.54 711.17 170.779 710.823 171.258C710.477 171.736 710.304 172.445 710.304 173.384ZM717.153 178.982L716.436 178.49C716.864 177.893 717.087 177.278 717.105 176.645V175.503H718.343V176.494C718.343 176.954 718.229 177.415 718.001 177.875C717.778 178.335 717.495 178.704 717.153 178.982ZM731.263 177H729.943L724.933 169.33V177H723.613V167.047H724.933L729.957 174.751V167.047H731.263V177ZM733.061 173.233C733.061 172.509 733.202 171.857 733.484 171.278C733.771 170.7 734.168 170.253 734.674 169.938C735.184 169.624 735.765 169.467 736.417 169.467C737.424 169.467 738.238 169.815 738.857 170.513C739.482 171.21 739.794 172.137 739.794 173.295V173.384C739.794 174.104 739.655 174.751 739.377 175.325C739.104 175.895 738.709 176.339 738.194 176.658C737.684 176.977 737.096 177.137 736.431 177.137C735.428 177.137 734.615 176.788 733.99 176.091C733.37 175.394 733.061 174.471 733.061 173.322V173.233ZM734.332 173.384C734.332 174.204 734.521 174.863 734.899 175.359C735.282 175.856 735.793 176.104 736.431 176.104C737.073 176.104 737.584 175.854 737.962 175.353C738.34 174.847 738.529 174.14 738.529 173.233C738.529 172.422 738.336 171.766 737.948 171.265C737.565 170.759 737.055 170.506 736.417 170.506C735.793 170.506 735.289 170.754 734.906 171.251C734.523 171.748 734.332 172.459 734.332 173.384ZM738.44 168.373V168.441H737.395L736.369 167.279L735.351 168.441H734.305V168.359L735.986 166.5H736.752L738.44 168.373ZM742.576 169.604L742.617 170.533C743.182 169.822 743.921 169.467 744.832 169.467C746.395 169.467 747.184 170.349 747.197 172.112V177H745.933V172.105C745.928 171.572 745.805 171.178 745.563 170.923C745.326 170.668 744.955 170.54 744.449 170.54C744.039 170.54 743.679 170.649 743.369 170.868C743.059 171.087 742.818 171.374 742.645 171.729V177H741.38V169.604H742.576ZM748.804 173.24C748.804 172.087 749.07 171.171 749.604 170.492C750.137 169.809 750.843 169.467 751.723 169.467C752.625 169.467 753.329 169.786 753.835 170.424L753.896 169.604H755.052V176.822C755.052 177.779 754.767 178.534 754.197 179.085C753.632 179.636 752.871 179.912 751.914 179.912C751.381 179.912 750.859 179.798 750.349 179.57C749.838 179.342 749.449 179.03 749.18 178.634L749.836 177.875C750.378 178.545 751.041 178.88 751.825 178.88C752.44 178.88 752.919 178.707 753.261 178.36C753.607 178.014 753.78 177.526 753.78 176.897V176.262C753.274 176.845 752.584 177.137 751.709 177.137C750.843 177.137 750.141 176.788 749.604 176.091C749.07 175.394 748.804 174.443 748.804 173.24ZM750.075 173.384C750.075 174.218 750.246 174.874 750.588 175.353C750.93 175.826 751.408 176.063 752.023 176.063C752.821 176.063 753.407 175.701 753.78 174.977V171.6C753.393 170.893 752.812 170.54 752.037 170.54C751.422 170.54 750.941 170.779 750.595 171.258C750.248 171.736 750.075 172.445 750.075 173.384ZM767.985 175.694C767.648 176.177 767.176 176.54 766.57 176.781C765.969 177.018 765.267 177.137 764.465 177.137C763.654 177.137 762.934 176.948 762.305 176.569C761.676 176.187 761.188 175.644 760.842 174.942C760.5 174.241 760.325 173.427 760.315 172.502V171.634C760.315 170.134 760.664 168.972 761.361 168.147C762.063 167.323 763.048 166.91 764.314 166.91C765.354 166.91 766.19 167.177 766.823 167.71C767.457 168.239 767.844 168.991 767.985 169.966H766.673C766.427 168.649 765.643 167.99 764.321 167.99C763.442 167.99 762.774 168.3 762.318 168.92C761.867 169.535 761.639 170.428 761.635 171.6V172.413C761.635 173.53 761.89 174.418 762.4 175.079C762.911 175.735 763.601 176.063 764.472 176.063C764.964 176.063 765.395 176.009 765.764 175.899C766.133 175.79 766.438 175.605 766.68 175.346V173.11H764.376V172.044H767.985V175.694ZM771.355 177H770.091V169.604H771.355V177ZM769.988 167.642C769.988 167.437 770.05 167.263 770.173 167.122C770.3 166.981 770.487 166.91 770.733 166.91C770.979 166.91 771.166 166.981 771.294 167.122C771.422 167.263 771.485 167.437 771.485 167.642C771.485 167.847 771.422 168.018 771.294 168.154C771.166 168.291 770.979 168.359 770.733 168.359C770.487 168.359 770.3 168.291 770.173 168.154C770.05 168.018 769.988 167.847 769.988 167.642ZM773.413 176.337C773.413 176.118 773.477 175.936 773.604 175.79C773.737 175.644 773.933 175.571 774.192 175.571C774.452 175.571 774.648 175.644 774.78 175.79C774.917 175.936 774.985 176.118 774.985 176.337C774.985 176.547 774.917 176.722 774.78 176.863C774.648 177.005 774.452 177.075 774.192 177.075C773.933 177.075 773.737 177.005 773.604 176.863C773.477 176.722 773.413 176.547 773.413 176.337ZM777.104 176.337C777.104 176.118 777.168 175.936 777.296 175.79C777.428 175.644 777.624 175.571 777.884 175.571C778.144 175.571 778.34 175.644 778.472 175.79C778.608 175.936 778.677 176.118 778.677 176.337C778.677 176.547 778.608 176.722 778.472 176.863C778.34 177.005 778.144 177.075 777.884 177.075C777.624 177.075 777.428 177.005 777.296 176.863C777.168 176.722 777.104 176.547 777.104 176.337ZM780.796 176.337C780.796 176.118 780.86 175.936 780.987 175.79C781.119 175.644 781.315 175.571 781.575 175.571C781.835 175.571 782.031 175.644 782.163 175.79C782.3 175.936 782.368 176.118 782.368 176.337C782.368 176.547 782.3 176.722 782.163 176.863C782.031 177.005 781.835 177.075 781.575 177.075C781.315 177.075 781.119 177.005 780.987 176.863C780.86 176.722 780.796 176.547 780.796 176.337Z" fill="black"/>
<circle cx="98.5" cy="111.5" r="48.75" stroke="#C00000" stroke-width="1.5"/>
<mask id="path-10-inside-1" fill="white">
<path fill-rule="evenodd" clip-rule="evenodd" d="M114 93C114 93.3593 113.986 93.7154 113.96 94.0679C121.836 94.8036 128 101.432 128 109.5C128 118.06 121.06 125 112.5 125C112.333 125 112.166 124.997 112 124.992V125H81H80V124.965C72.7347 124.452 67 118.396 67 111C67 106.169 69.4474 101.909 73.1701 99.3926C73.0584 98.7787 73 98.1462 73 97.5C73 91.701 77.701 87 83.5 87C84.7534 87 85.9556 87.2196 87.07 87.6225C89.1781 82.5594 94.1734 79 100 79C107.732 79 114 85.268 114 93Z"/>
</mask>
<path d="M113.96 94.0679L112.464 93.955L112.353 95.4243L113.82 95.5613L113.96 94.0679ZM112 124.992L112.048 123.493L110.5 123.444V124.992H112ZM112 125V126.5H113.5V125H112ZM80 125H78.5V126.5H80V125ZM80 124.965H81.5V123.567L80.1056 123.469L80 124.965ZM73.1701 99.3926L74.0101 100.635L74.8212 100.087L74.6459 99.1239L73.1701 99.3926ZM87.07 87.6225L86.5601 89.0332L87.905 89.5194L88.4548 88.1991L87.07 87.6225ZM115.456 94.1807C115.485 93.7907 115.5 93.3969 115.5 93H112.5C112.5 93.3216 112.488 93.6401 112.464 93.955L115.456 94.1807ZM129.5 109.5C129.5 100.65 122.739 93.3814 114.099 92.5744L113.82 95.5613C120.932 96.2257 126.5 102.214 126.5 109.5H129.5ZM112.5 126.5C121.889 126.5 129.5 118.889 129.5 109.5H126.5C126.5 117.232 120.232 123.5 112.5 123.5V126.5ZM111.952 126.491C112.134 126.497 112.317 126.5 112.5 126.5V123.5C112.349 123.5 112.198 123.498 112.048 123.493L111.952 126.491ZM110.5 124.992V125H113.5V124.992H110.5ZM112 123.5H81V126.5H112V123.5ZM81 123.5H80V126.5H81V123.5ZM81.5 125V124.965H78.5V125H81.5ZM65.5 111C65.5 119.189 71.8492 125.893 79.8944 126.461L80.1056 123.469C73.6202 123.011 68.5 117.603 68.5 111H65.5ZM72.3301 98.1498C68.2123 100.933 65.5 105.649 65.5 111H68.5C68.5 106.688 70.6825 102.884 74.0101 100.635L72.3301 98.1498ZM71.5 97.5C71.5 98.2367 71.5666 98.9591 71.6944 99.6612L74.6459 99.1239C74.5502 98.5983 74.5 98.0556 74.5 97.5H71.5ZM83.5 85.5C76.8726 85.5 71.5 90.8726 71.5 97.5H74.5C74.5 92.5294 78.5294 88.5 83.5 88.5V85.5ZM87.58 86.2118C86.3043 85.7507 84.9298 85.5 83.5 85.5V88.5C84.5771 88.5 85.6068 88.6885 86.5601 89.0332L87.58 86.2118ZM100 77.5C93.5467 77.5 88.018 81.4433 85.6852 87.0459L88.4548 88.1991C90.3382 83.6756 94.8 80.5 100 80.5V77.5ZM115.5 93C115.5 84.4396 108.56 77.5 100 77.5V80.5C106.904 80.5 112.5 86.0964 112.5 93H115.5Z" fill="#C00000" mask="url(#path-10-inside-1)"/>
<mask id="path-12-inside-2" fill="white">
<path fill-rule="evenodd" clip-rule="evenodd" d="M100 128H94V136.674C91.6351 137.797 90 140.208 90 143C90 146.866 93.134 150 97 150C100.866 150 104 146.866 104 143C104 140.208 102.365 137.797 100 136.674V128Z"/>
</mask>
<path d="M94 128V126.5H92.5V128H94ZM100 128H101.5V126.5H100V128ZM94 136.674L94.6436 138.029L95.5 137.622V136.674H94ZM100 136.674H98.5V137.622L99.3564 138.029L100 136.674ZM94 129.5H100V126.5H94V129.5ZM95.5 136.674V128H92.5V136.674H95.5ZM91.5 143C91.5 140.808 92.782 138.913 94.6436 138.029L93.3564 135.319C90.4881 136.681 88.5 139.607 88.5 143H91.5ZM97 148.5C93.9624 148.5 91.5 146.038 91.5 143H88.5C88.5 147.694 92.3056 151.5 97 151.5V148.5ZM102.5 143C102.5 146.038 100.038 148.5 97 148.5V151.5C101.694 151.5 105.5 147.694 105.5 143H102.5ZM99.3564 138.029C101.218 138.913 102.5 140.808 102.5 143H105.5C105.5 139.607 103.512 136.681 100.644 135.319L99.3564 138.029ZM98.5 128V136.674H101.5V128H98.5Z" fill="#C00000" mask="url(#path-12-inside-2)"/>
<circle cx="108" cy="143" r="1.25" stroke="#C00000" stroke-width="1.5"/>
<circle cx="71" cy="143" r="1.25" stroke="#C00000" stroke-width="1.5"/>
<circle cx="113" cy="143" r="1.25" stroke="#C00000" stroke-width="1.5"/>
<circle cx="76" cy="143" r="1.25" stroke="#C00000" stroke-width="1.5"/>
<circle cx="118" cy="143" r="1.25" stroke="#C00000" stroke-width="1.5"/>
<circle cx="81" cy="143" r="1.25" stroke="#C00000" stroke-width="1.5"/>
<circle cx="123" cy="143" r="1.25" stroke="#C00000" stroke-width="1.5"/>
<circle cx="86" cy="143" r="1.25" stroke="#C00000" stroke-width="1.5"/>
<rect x="341.5" y="94.5" width="35" height="35" stroke="black"/>
<path d="M359 94.5V129.5" stroke="black"/>
<path d="M341.5 94.5L359 129.5M359 94.5L376.5 129.5" stroke="black"/>
<path d="M641.5 94.5L676.5 129.5" stroke="black"/>
<rect x="649" y="95" width="3" height="5" fill="black"/>
<rect x="649" y="124" width="3" height="5" fill="black"/>
<rect x="667" y="95" width="3" height="5" fill="black"/>
<rect x="667" y="124" width="3" height="5" fill="black"/>
<rect x="641.5" y="94.5" width="35" height="35" stroke="black"/>
<path d="M643.5 202.5L678.5 237.5" stroke="black"/>
<rect x="651" y="203" width="3" height="5" fill="black"/>
<rect x="651" y="232" width="3" height="5" fill="black"/>
<rect x="669" y="203" width="3" height="5" fill="black"/>
<rect x="669" y="232" width="3" height="5" fill="black"/>
<rect x="643.5" y="202.5" width="35" height="35" stroke="black"/>
<circle cx="661.5" cy="219.5" r="25.75" stroke="#EAC344" stroke-width="1.5" stroke-dasharray="10 5"/>
<path d="M153.5 112H334.5" stroke="#C00000" stroke-width="1.5" stroke-dasharray="12 6"/>
<path d="M383 112H636.5" stroke="#C00000" stroke-width="1.5" stroke-dasharray="12 6"/>
<path d="M453.586 118.127H450.387V127H449.081V118.127H445.889V117.047H453.586V118.127ZM457.25 127.137C456.247 127.137 455.432 126.809 454.803 126.152C454.174 125.492 453.859 124.61 453.859 123.507V123.274C453.859 122.541 453.998 121.887 454.276 121.312C454.559 120.734 454.951 120.283 455.452 119.959C455.958 119.631 456.505 119.467 457.093 119.467C458.054 119.467 458.802 119.784 459.335 120.417C459.868 121.05 460.135 121.957 460.135 123.138V123.664H455.124C455.142 124.393 455.354 124.983 455.76 125.435C456.17 125.881 456.689 126.104 457.318 126.104C457.765 126.104 458.143 126.013 458.453 125.831C458.763 125.649 459.034 125.407 459.267 125.106L460.039 125.708C459.419 126.66 458.49 127.137 457.25 127.137ZM457.093 120.506C456.582 120.506 456.154 120.693 455.808 121.066C455.461 121.436 455.247 121.955 455.165 122.625H458.87V122.529C458.834 121.887 458.66 121.39 458.351 121.039C458.041 120.684 457.621 120.506 457.093 120.506ZM465.911 125.038C465.911 124.696 465.781 124.432 465.521 124.245C465.266 124.054 464.817 123.89 464.175 123.753C463.537 123.616 463.029 123.452 462.65 123.261C462.277 123.069 461.999 122.841 461.816 122.577C461.639 122.313 461.55 121.998 461.55 121.634C461.55 121.028 461.805 120.515 462.315 120.096C462.83 119.676 463.487 119.467 464.284 119.467C465.123 119.467 465.802 119.683 466.321 120.116C466.845 120.549 467.107 121.103 467.107 121.777H465.836C465.836 121.431 465.688 121.132 465.392 120.882C465.1 120.631 464.731 120.506 464.284 120.506C463.824 120.506 463.464 120.606 463.204 120.807C462.944 121.007 462.814 121.269 462.814 121.593C462.814 121.898 462.935 122.128 463.177 122.283C463.418 122.438 463.854 122.586 464.482 122.728C465.116 122.869 465.629 123.037 466.021 123.233C466.412 123.429 466.702 123.666 466.889 123.944C467.08 124.218 467.176 124.553 467.176 124.949C467.176 125.61 466.911 126.141 466.383 126.542C465.854 126.938 465.168 127.137 464.325 127.137C463.733 127.137 463.209 127.032 462.753 126.822C462.297 126.613 461.939 126.321 461.68 125.947C461.424 125.569 461.297 125.161 461.297 124.724H462.562C462.584 125.147 462.753 125.485 463.067 125.735C463.386 125.981 463.806 126.104 464.325 126.104C464.804 126.104 465.187 126.009 465.474 125.817C465.765 125.621 465.911 125.362 465.911 125.038ZM470.539 117.812V119.604H471.92V120.581H470.539V125.168C470.539 125.464 470.601 125.688 470.724 125.838C470.847 125.984 471.056 126.057 471.353 126.057C471.498 126.057 471.699 126.029 471.954 125.975V127C471.621 127.091 471.298 127.137 470.983 127.137C470.418 127.137 469.992 126.966 469.705 126.624C469.418 126.282 469.274 125.797 469.274 125.168V120.581H467.928V119.604H469.274V117.812H470.539Z" fill="black"/>
</svg>
